<svg xmlns="http://www.w3.org/2000/svg" xmlns:xlink="http://www.w3.org/1999/xlink" width="500" zoomAndPan="magnify" viewBox="0 0 375 374.999991" height="500" preserveAspectRatio="xMidYMid meet" version="1.0"><defs><g/><clipPath id="id1"><path d="M 134.160156 124 L 237.703125 124 L 237.703125 171 L 134.160156 171 Z M 134.160156 124 " clip-rule="nonzero"/></clipPath><clipPath id="id2"><path d="M 134.160156 164.121094 L 180 164.121094 L 180 211 L 134.160156 211 Z M 134.160156 164.121094 " clip-rule="nonzero"/></clipPath><clipPath id="id3"><path d="M 195 165 L 240.863281 165 L 240.863281 211.542969 L 195 211.542969 Z M 195 165 " clip-rule="nonzero"/></clipPath></defs><g clip-path="url(#id1)"><path fill="#004aad" d="M 141.699219 124.199219 C 156.0625 124.199219 161.992188 124.585938 177.796875 148.5 C 177.796875 148.5 186.316406 160.0625 196.660156 159.476562 C 196.660156 159.476562 203.75 161.035156 210.0625 146.148438 C 216.382812 131.253906 221.550781 123.023438 237.640625 125.175781 C 237.640625 125.175781 230.171875 131.839844 229.117188 134.679688 C 228.0625 137.523438 210.957031 158.6875 201.605469 160.15625 C 202.980469 160.550781 204.898438 161.035156 208.144531 160.449219 C 208.144531 160.449219 211.496094 160.648438 212.023438 162.3125 C 208.722656 162.019531 197.808594 165.351562 195.511719 167.117188 C 193.214844 168.886719 185.339844 173.597656 179.027344 168.792969 C 180.378906 168.589844 187.9375 167.164062 191.433594 163.714844 C 185.550781 163.785156 175.789062 161.824219 168.503906 154.871094 C 161.234375 147.910156 143.613281 126.9375 134.226562 125.371094 L 141.699219 124.199219 " fill-opacity="1" fill-rule="nonzero"/></g><g clip-path="url(#id2)"><path fill="#004aad" d="M 154.519531 164.292969 C 153.867188 164.359375 153.214844 164.46875 152.5625 164.601562 C 152.347656 164.644531 152.109375 164.6875 151.890625 164.730469 C 151.523438 164.796875 151.152344 164.90625 150.785156 165.015625 C 149.546875 165.363281 148.308594 165.84375 147.136719 166.390625 C 147.113281 166.414062 147.09375 166.414062 147.050781 166.433594 C 146.679688 166.609375 146.332031 166.785156 145.984375 166.980469 C 144.683594 167.703125 143.464844 168.574219 142.335938 169.515625 C 141.492188 170.214844 140.707031 171 139.96875 171.808594 C 139.863281 171.941406 139.730469 172.070312 139.625 172.203125 C 138.929688 173.03125 138.277344 173.90625 137.710938 174.824219 C 137.257812 175.523438 136.867188 176.265625 136.496094 177.03125 C 136.171875 177.707031 135.886719 178.382812 135.628906 179.082031 C 135.453125 179.585938 135.28125 180.089844 135.128906 180.589844 C 134.652344 182.183594 134.390625 183.824219 134.261719 185.484375 C 134.214844 185.921875 134.214844 186.335938 134.195312 186.773438 C 134.195312 186.816406 134.195312 186.839844 134.195312 186.882812 C 134.171875 188.257812 134.304688 189.632812 134.519531 190.988281 C 134.585938 191.449219 134.695312 191.929688 134.804688 192.386719 C 134.976562 193.128906 135.195312 193.851562 135.433594 194.570312 C 135.519531 194.832031 135.628906 195.09375 135.714844 195.359375 C 135.886719 195.773438 136.0625 196.210938 136.234375 196.601562 C 136.277344 196.710938 136.324219 196.820312 136.386719 196.929688 C 136.734375 197.671875 137.125 198.414062 137.558594 199.113281 C 137.667969 199.289062 137.777344 199.441406 137.863281 199.617188 C 138.558594 200.6875 139.339844 201.691406 140.1875 202.609375 C 140.902344 203.394531 141.664062 204.117188 142.46875 204.792969 C 142.921875 205.1875 143.402344 205.539062 143.902344 205.886719 C 144.117188 206.039062 144.335938 206.191406 144.574219 206.34375 C 145.050781 206.671875 145.550781 206.957031 146.070312 207.242188 C 146.070312 207.242188 146.09375 207.242188 146.09375 207.261719 C 147.09375 207.808594 148.113281 208.269531 149.175781 208.660156 C 150.675781 209.230469 152.238281 209.601562 153.84375 209.820312 C 155.558594 210.058594 157.253906 210.101562 158.96875 209.949219 C 160.75 209.796875 162.488281 209.425781 164.179688 208.878906 C 167.371094 207.832031 170.28125 206.039062 172.714844 203.722656 C 173.929688 202.589844 174.972656 201.277344 175.90625 199.921875 C 176.882812 198.503906 177.644531 196.953125 178.273438 195.359375 C 178.902344 193.761719 179.316406 192.082031 179.554688 190.378906 C 179.792969 188.609375 179.859375 186.839844 179.707031 185.046875 C 179.402344 181.640625 178.335938 178.320312 176.601562 175.371094 C 175.820312 173.972656 174.820312 172.660156 173.710938 171.460938 C 172.605469 170.257812 171.367188 169.210938 170.042969 168.25 C 168.785156 167.351562 167.414062 166.589844 165.984375 165.976562 C 164.484375 165.34375 162.941406 164.839844 161.335938 164.535156 C 160.011719 164.273438 158.6875 164.140625 157.339844 164.121094 C 157.296875 164.121094 157.253906 164.121094 157.1875 164.121094 C 157.144531 164.121094 157.125 164.121094 157.082031 164.121094 C 156.234375 164.140625 155.386719 164.183594 154.519531 164.292969 Z M 159.6875 167.046875 C 161.445312 167.308594 163.160156 167.769531 164.789062 168.445312 C 166.394531 169.144531 167.894531 170.019531 169.28125 171.089844 C 170.628906 172.160156 171.84375 173.382812 172.910156 174.734375 C 173.972656 176.132812 174.839844 177.640625 175.535156 179.257812 C 176.210938 180.917969 176.6875 182.644531 176.925781 184.433594 C 177.144531 186.226562 177.144531 188.039062 176.925781 189.851562 C 176.664062 191.621094 176.1875 193.347656 175.515625 195.007812 C 174.820312 196.601562 173.953125 198.109375 172.910156 199.484375 C 171.84375 200.839844 170.628906 202.0625 169.28125 203.132812 C 167.894531 204.183594 166.394531 205.078125 164.808594 205.777344 C 163.160156 206.453125 161.445312 206.933594 159.664062 207.175781 C 157.882812 207.394531 156.101562 207.394531 154.324219 207.175781 C 152.671875 206.933594 151.066406 206.5 149.503906 205.886719 C 149.394531 205.84375 149.285156 205.800781 149.199219 205.753906 C 148.828125 205.601562 148.460938 205.429688 148.113281 205.230469 C 148.089844 205.210938 148.070312 205.210938 148.046875 205.1875 C 148.027344 205.1875 148.027344 205.164062 148.003906 205.164062 C 147.984375 205.164062 147.984375 205.144531 147.960938 205.144531 C 146.832031 204.554688 145.746094 203.875 144.726562 203.089844 C 143.75 202.304688 142.835938 201.453125 142.011719 200.511719 C 142.011719 200.511719 142.011719 200.511719 142.011719 200.492188 C 141.988281 200.46875 141.988281 200.46875 141.96875 200.449219 C 141.945312 200.425781 141.945312 200.425781 141.925781 200.402344 C 141.925781 200.402344 141.925781 200.382812 141.902344 200.382812 C 141.621094 200.074219 141.359375 199.75 141.097656 199.421875 C 140.101562 198.089844 139.253906 196.644531 138.558594 195.117188 C 138.558594 195.117188 138.558594 195.09375 138.558594 195.09375 C 138.558594 195.09375 138.558594 195.074219 138.539062 195.074219 C 138.515625 195.03125 138.492188 194.964844 138.472656 194.921875 C 138.386719 194.722656 138.320312 194.550781 138.253906 194.351562 C 138.253906 194.332031 138.234375 194.308594 138.234375 194.289062 C 138.234375 194.289062 138.234375 194.289062 138.234375 194.265625 C 137.734375 192.933594 137.386719 191.578125 137.148438 190.179688 C 137.148438 190.179688 137.148438 190.160156 137.148438 190.160156 C 137.148438 190.136719 137.148438 190.113281 137.148438 190.113281 C 137.148438 190.09375 137.148438 190.09375 137.148438 190.070312 C 137.148438 190.070312 137.148438 190.050781 137.148438 190.050781 C 137.125 189.960938 137.125 189.851562 137.105469 189.765625 C 136.886719 187.953125 136.886719 186.140625 137.105469 184.347656 C 137.257812 183.386719 137.453125 182.425781 137.710938 181.507812 C 137.710938 181.484375 137.734375 181.464844 137.734375 181.441406 C 137.734375 181.421875 137.734375 181.398438 137.753906 181.398438 C 137.753906 181.398438 137.753906 181.378906 137.753906 181.378906 C 137.972656 180.65625 138.210938 179.957031 138.492188 179.257812 C 139.1875 177.664062 140.058594 176.15625 141.121094 174.757812 C 141.46875 174.300781 141.835938 173.882812 142.230469 173.449219 C 142.25 173.425781 142.25 173.402344 142.273438 173.402344 C 142.273438 173.402344 142.273438 173.382812 142.292969 173.382812 C 142.316406 173.359375 142.316406 173.359375 142.335938 173.339844 C 142.335938 173.339844 142.359375 173.316406 142.359375 173.316406 C 142.359375 173.316406 142.378906 173.292969 142.378906 173.292969 C 142.402344 173.273438 142.402344 173.273438 142.425781 173.25 C 142.425781 173.25 142.445312 173.230469 142.445312 173.230469 C 142.46875 173.207031 142.46875 173.207031 142.488281 173.183594 C 142.488281 173.183594 142.488281 173.183594 142.511719 173.164062 C 142.53125 173.140625 142.554688 173.121094 142.554688 173.121094 C 143.207031 172.441406 143.902344 171.808594 144.617188 171.21875 C 144.640625 171.199219 144.660156 171.175781 144.683594 171.175781 C 144.703125 171.152344 144.726562 171.152344 144.746094 171.132812 C 146.136719 170.082031 147.636719 169.1875 149.21875 168.488281 C 149.414062 168.421875 149.589844 168.335938 149.785156 168.269531 C 149.804688 168.269531 149.804688 168.269531 149.828125 168.25 C 149.851562 168.25 149.851562 168.25 149.871094 168.226562 C 151.085938 167.769531 152.324219 167.441406 153.585938 167.199219 C 153.585938 167.199219 153.605469 167.199219 153.605469 167.199219 C 153.605469 167.199219 153.605469 167.199219 153.628906 167.199219 C 153.867188 167.15625 154.085938 167.113281 154.324219 167.089844 C 154.582031 167.046875 154.867188 167.023438 155.125 167.003906 C 156.625 166.828125 158.167969 166.851562 159.6875 167.046875 Z M 175.492188 195.09375 C 175.472656 195.140625 175.472656 195.160156 175.449219 195.203125 C 175.472656 195.160156 175.492188 195.117188 175.492188 195.09375 Z M 175.492188 195.09375 " fill-opacity="1" fill-rule="nonzero"/></g><g clip-path="url(#id3)"><path fill="#004aad" d="M 212.425781 166.019531 C 210.796875 166.414062 209.214844 167.046875 207.695312 167.789062 C 207.152344 168.050781 206.628906 168.359375 206.109375 168.664062 C 206 168.730469 205.871094 168.816406 205.761719 168.882812 C 204.847656 169.449219 203.980469 170.105469 203.15625 170.804688 C 202.679688 171.21875 202.199219 171.65625 201.746094 172.113281 C 200.613281 173.25 199.59375 174.539062 198.726562 175.894531 C 198.292969 176.570312 197.902344 177.269531 197.53125 177.992188 C 197.464844 178.101562 197.421875 178.230469 197.359375 178.339844 C 197.054688 178.996094 196.773438 179.652344 196.511719 180.328125 C 196.511719 180.351562 196.511719 180.351562 196.488281 180.371094 C 195.902344 181.902344 195.535156 183.519531 195.316406 185.132812 C 195.078125 186.882812 195.035156 188.628906 195.1875 190.398438 C 195.492188 193.785156 196.554688 197.0625 198.25 199.988281 C 199.074219 201.410156 200.074219 202.71875 201.15625 203.921875 C 202.265625 205.144531 203.546875 206.214844 204.871094 207.175781 C 206.238281 208.160156 207.714844 208.921875 209.257812 209.578125 C 210.796875 210.210938 212.382812 210.671875 214.035156 210.953125 C 217.507812 211.542969 221.070312 211.324219 224.457031 210.320312 C 227.757812 209.339844 230.773438 207.546875 233.335938 205.230469 C 235.789062 202.980469 237.699219 200.164062 238.980469 197.082031 C 240.285156 193.9375 240.847656 190.484375 240.675781 187.054688 C 240.503906 183.628906 239.523438 180.285156 237.898438 177.269531 C 237.113281 175.828125 236.160156 174.496094 235.09375 173.25 C 234.03125 171.984375 232.792969 170.890625 231.492188 169.886719 C 230.230469 168.925781 228.84375 168.117188 227.410156 167.441406 C 225.867188 166.742188 224.28125 166.195312 222.632812 165.84375 C 221.089844 165.519531 219.527344 165.363281 217.964844 165.363281 C 216.117188 165.363281 214.25 165.582031 212.425781 166.019531 Z M 220.632812 168.25 C 222.394531 168.511719 224.109375 168.96875 225.757812 169.644531 C 227.34375 170.34375 228.820312 171.21875 230.210938 172.246094 C 231.578125 173.316406 232.792969 174.5625 233.878906 175.914062 C 234.921875 177.292969 235.789062 178.800781 236.484375 180.394531 C 237.160156 182.054688 237.636719 183.800781 237.898438 185.570312 C 238.113281 187.382812 238.113281 189.199219 237.898438 190.988281 C 237.636719 192.757812 237.179688 194.484375 236.507812 196.144531 C 235.8125 197.738281 234.945312 199.246094 233.902344 200.644531 C 232.816406 202.019531 231.601562 203.242188 230.253906 204.3125 C 228.863281 205.363281 227.34375 206.257812 225.757812 206.957031 C 224.109375 207.632812 222.414062 208.09375 220.65625 208.355469 C 218.875 208.574219 217.074219 208.574219 215.273438 208.355469 C 213.535156 208.09375 211.820312 207.632812 210.191406 206.957031 C 208.582031 206.257812 207.085938 205.382812 205.695312 204.3125 C 204.328125 203.222656 203.113281 202 202.027344 200.621094 C 200.984375 199.222656 200.117188 197.738281 199.421875 196.121094 C 198.746094 194.460938 198.292969 192.734375 198.03125 190.964844 C 197.8125 189.152344 197.8125 187.339844 198.03125 185.550781 C 198.269531 183.867188 198.703125 182.230469 199.335938 180.65625 C 199.335938 180.65625 199.335938 180.65625 199.335938 180.632812 C 199.335938 180.632812 199.335938 180.613281 199.335938 180.613281 C 199.355469 180.546875 199.378906 180.480469 199.421875 180.414062 C 199.550781 180.109375 199.679688 179.804688 199.832031 179.519531 C 199.832031 179.519531 199.832031 179.5 199.832031 179.5 C 199.832031 179.476562 199.855469 179.453125 199.855469 179.433594 C 200.464844 178.1875 201.179688 177.007812 202.027344 175.894531 C 203.089844 174.539062 204.328125 173.292969 205.675781 172.222656 C 205.71875 172.179688 205.761719 172.160156 205.804688 172.113281 C 205.804688 172.113281 205.828125 172.113281 205.828125 172.09375 C 205.847656 172.09375 205.847656 172.070312 205.871094 172.070312 C 207.152344 171.132812 208.519531 170.324219 209.972656 169.667969 C 209.996094 169.667969 210.015625 169.644531 210.039062 169.644531 C 210.039062 169.644531 210.058594 169.644531 210.058594 169.625 C 210.082031 169.625 210.082031 169.601562 210.105469 169.601562 C 210.125 169.601562 210.148438 169.582031 210.148438 169.582031 C 210.210938 169.558594 210.277344 169.539062 210.34375 169.492188 C 211.925781 168.859375 213.578125 168.421875 215.273438 168.160156 C 217.050781 168.03125 218.855469 168.03125 220.632812 168.25 Z M 220.632812 168.25 " fill-opacity="1" fill-rule="nonzero"/></g><path fill="#004aad" d="M 186.675781 179.410156 C 185.9375 179.453125 185.175781 179.5625 184.460938 179.761719 C 184.199219 179.824219 183.960938 179.890625 183.699219 179.980469 C 183.027344 180.199219 182.355469 180.523438 181.746094 180.875 C 181.484375 181.027344 181.226562 181.203125 180.988281 181.378906 C 180.988281 181.378906 180.964844 181.398438 180.964844 181.398438 C 180.941406 181.421875 180.921875 181.441406 180.878906 181.464844 C 180.660156 181.640625 180.445312 181.792969 180.226562 181.988281 C 179.445312 182.621094 178.816406 183.386719 178.230469 184.195312 C 177.859375 184.742188 177.535156 185.308594 177.273438 185.921875 C 177.273438 185.921875 177.273438 185.941406 177.25 185.941406 C 177.25 185.941406 177.25 185.964844 177.25 185.964844 C 177.25 185.984375 177.230469 186.007812 177.230469 186.007812 C 177.164062 186.117188 177.121094 186.226562 177.101562 186.335938 C 177.101562 186.359375 177.078125 186.359375 177.078125 186.378906 C 176.949219 186.707031 177.054688 187.144531 177.207031 187.429688 C 177.382812 187.734375 177.6875 187.953125 178.011719 188.0625 C 178.359375 188.148438 178.75 188.105469 179.054688 187.929688 C 179.140625 187.863281 179.226562 187.777344 179.335938 187.710938 C 179.488281 187.539062 179.617188 187.363281 179.683594 187.144531 C 179.964844 186.511719 180.3125 185.921875 180.726562 185.351562 C 181.160156 184.804688 181.660156 184.304688 182.203125 183.867188 C 182.765625 183.453125 183.375 183.101562 184.003906 182.796875 C 184.679688 182.535156 185.351562 182.339844 186.066406 182.230469 C 186.804688 182.140625 187.523438 182.140625 188.261719 182.230469 C 188.695312 182.292969 189.128906 182.402344 189.542969 182.535156 C 189.5625 182.535156 189.5625 182.535156 189.585938 182.535156 C 189.585938 182.535156 189.605469 182.535156 189.605469 182.535156 C 189.84375 182.601562 190.105469 182.6875 190.34375 182.796875 C 190.996094 183.082031 191.605469 183.453125 192.167969 183.867188 C 192.210938 183.910156 192.277344 183.953125 192.320312 184 C 192.796875 184.414062 193.234375 184.851562 193.625 185.332031 C 193.972656 185.8125 194.296875 186.335938 194.558594 186.859375 C 194.558594 186.859375 194.558594 186.882812 194.578125 186.882812 C 194.621094 186.96875 194.664062 187.054688 194.710938 187.164062 C 194.882812 187.625 195.035156 188.0625 195.144531 188.542969 C 195.207031 188.78125 195.253906 189.023438 195.296875 189.285156 C 195.316406 189.480469 195.339844 189.699219 195.339844 189.894531 C 195.339844 189.894531 195.339844 189.917969 195.339844 189.917969 C 195.339844 189.941406 195.339844 189.960938 195.339844 189.984375 C 195.339844 189.984375 195.339844 190.003906 195.339844 190.003906 C 195.339844 190.027344 195.339844 190.050781 195.339844 190.070312 C 195.339844 190.070312 195.339844 190.09375 195.339844 190.09375 C 195.339844 190.113281 195.339844 190.136719 195.339844 190.160156 C 195.339844 190.160156 195.339844 190.179688 195.339844 190.179688 C 195.339844 190.203125 195.339844 190.222656 195.339844 190.246094 C 195.339844 190.246094 195.339844 190.246094 195.339844 190.269531 C 195.339844 190.289062 195.339844 190.3125 195.339844 190.355469 C 195.339844 190.378906 195.339844 190.421875 195.339844 190.441406 C 195.339844 191.183594 195.96875 191.820312 196.707031 191.820312 C 197.445312 191.820312 198.054688 191.207031 198.074219 190.441406 C 198.074219 189.394531 197.945312 188.324219 197.640625 187.296875 C 197.640625 187.296875 197.640625 187.273438 197.640625 187.273438 C 197.574219 187.054688 197.511719 186.816406 197.421875 186.597656 C 197.25 186.140625 197.054688 185.679688 196.816406 185.265625 C 196.640625 184.9375 196.445312 184.589844 196.230469 184.28125 C 195.902344 183.800781 195.535156 183.320312 195.121094 182.90625 C 195.078125 182.863281 195.035156 182.796875 194.992188 182.753906 C 194.859375 182.621094 194.730469 182.492188 194.578125 182.359375 C 194.144531 181.945312 193.667969 181.574219 193.167969 181.246094 C 192.84375 181.027344 192.515625 180.832031 192.167969 180.679688 C 192.015625 180.589844 191.863281 180.523438 191.691406 180.460938 C 191.625 180.4375 191.5625 180.394531 191.496094 180.371094 C 190.929688 180.132812 190.34375 179.933594 189.738281 179.78125 C 189.542969 179.738281 189.347656 179.695312 189.128906 179.652344 C 188.671875 179.5625 188.195312 179.519531 187.71875 179.5 C 187.695312 179.5 187.652344 179.5 187.628906 179.5 C 187.5 179.5 187.347656 179.5 187.21875 179.5 C 187.023438 179.390625 186.847656 179.390625 186.675781 179.410156 Z M 186.675781 179.410156 " fill-opacity="1" fill-rule="nonzero"/><g fill="#004aad" fill-opacity="1"><g transform="translate(45.530373, 244.231304)"><g><path d="M 2.261719 0 L 8.441406 0 L 8.441406 -6.359375 L 15.597656 -6.359375 L 15.597656 -11.710938 L 8.441406 -11.710938 L 8.441406 -15.902344 L 16.390625 -15.902344 L 16.390625 -21.40625 L 2.261719 -21.40625 Z M 2.261719 0 "/></g></g></g><g fill="#004aad" fill-opacity="1"><g transform="translate(63.082699, 244.231304)"><g><path d="M 2.261719 0 L 8.441406 0 L 8.441406 -6.085938 L 10.765625 -6.085938 L 13.824219 0 L 20.824219 0 L 16.878906 -7.21875 C 19.144531 -8.472656 20.429688 -10.734375 20.429688 -13.730469 C 20.429688 -18.472656 17.21875 -21.40625 12.019531 -21.40625 L 2.261719 -21.40625 Z M 8.316406 -11.007812 L 8.316406 -16.359375 L 11.191406 -16.359375 C 13.148438 -16.359375 14.21875 -15.414062 14.21875 -13.699219 C 14.21875 -11.988281 13.148438 -11.007812 11.191406 -11.007812 Z M 8.316406 -11.007812 "/></g></g></g><g fill="#004aad" fill-opacity="1"><g transform="translate(85.099559, 244.231304)"><g><path d="M 2.261719 0 L 17.277344 0 L 17.277344 -5.046875 L 8.378906 -5.046875 L 8.378906 -8.347656 L 16.117188 -8.347656 L 16.117188 -13.300781 L 8.378906 -13.300781 L 8.378906 -16.421875 L 16.941406 -16.421875 L 16.941406 -21.40625 L 2.261719 -21.40625 Z M 2.261719 0 "/></g></g></g><g fill="#004aad" fill-opacity="1"><g transform="translate(103.752725, 244.231304)"><g><path d="M 2.261719 0 L 17.277344 0 L 17.277344 -5.046875 L 8.378906 -5.046875 L 8.378906 -8.347656 L 16.117188 -8.347656 L 16.117188 -13.300781 L 8.378906 -13.300781 L 8.378906 -16.421875 L 16.941406 -16.421875 L 16.941406 -21.40625 L 2.261719 -21.40625 Z M 2.261719 0 "/></g></g></g><g fill="#004aad" fill-opacity="1"><g transform="translate(122.405892, 244.231304)"><g><path d="M 2.261719 0 L 17.1875 0 L 17.1875 -5.71875 L 8.441406 -5.71875 L 8.441406 -21.40625 L 2.261719 -21.40625 Z M 2.261719 0 "/></g></g></g><g fill="#004aad" fill-opacity="1"><g transform="translate(140.355751, 244.231304)"><g><path d="M 0.152344 0 L 6.695312 0 L 7.859375 -3.027344 L 15.167969 -3.027344 L 16.332031 0 L 22.90625 0 L 14.585938 -21.40625 L 8.472656 -21.40625 Z M 9.144531 -7.554688 L 11.527344 -14.191406 L 13.914062 -7.554688 Z M 9.144531 -7.554688 "/></g></g></g><g fill="#004aad" fill-opacity="1"><g transform="translate(163.412292, 244.231304)"><g><path d="M 2.261719 0 L 8.378906 0 L 8.378906 -10.917969 L 16.515625 0 L 21.527344 0 L 21.527344 -21.40625 L 15.445312 -21.40625 L 15.445312 -10.550781 L 7.308594 -21.40625 L 2.261719 -21.40625 Z M 2.261719 0 "/></g></g></g><g fill="#004aad" fill-opacity="1"><g transform="translate(187.233313, 244.231304)"><g><path d="M 12.261719 0.457031 C 18.164062 0.457031 22.628906 -3.121094 23.546875 -8.5625 L 17.277344 -8.5625 C 16.515625 -6.542969 14.710938 -5.261719 12.386719 -5.261719 C 9.386719 -5.261719 7.308594 -7.492188 7.308594 -10.703125 C 7.308594 -13.945312 9.417969 -16.148438 12.445312 -16.148438 C 14.679688 -16.148438 16.542969 -14.894531 17.1875 -12.964844 L 23.425781 -12.964844 C 22.324219 -18.378906 17.921875 -21.867188 12.203125 -21.867188 C 5.597656 -21.867188 1.039062 -17.308594 1.039062 -10.703125 C 1.039062 -4.097656 5.597656 0.457031 12.261719 0.457031 Z M 12.261719 0.457031 "/></g></g></g><g fill="#004aad" fill-opacity="1"><g transform="translate(211.757642, 244.231304)"><g><path d="M 2.261719 0 L 17.277344 0 L 17.277344 -5.046875 L 8.378906 -5.046875 L 8.378906 -8.347656 L 16.117188 -8.347656 L 16.117188 -13.300781 L 8.378906 -13.300781 L 8.378906 -16.421875 L 16.941406 -16.421875 L 16.941406 -21.40625 L 2.261719 -21.40625 Z M 2.261719 0 "/></g></g></g><g fill="#004aad" fill-opacity="1"><g transform="translate(230.410809, 244.231304)"><g><path d="M 2.261719 0 L 13.242188 0 C 17.585938 0 20.613281 -2.445312 20.613281 -5.964844 C 20.613281 -8.226562 19.386719 -10.0625 17.371094 -10.949219 C 19.019531 -11.894531 19.96875 -13.609375 19.96875 -15.65625 C 19.96875 -19.175781 17.15625 -21.40625 12.691406 -21.40625 L 2.261719 -21.40625 Z M 8.316406 -4.585938 L 8.316406 -8.59375 L 12.050781 -8.59375 C 13.515625 -8.59375 14.34375 -7.859375 14.34375 -6.605469 C 14.34375 -5.320312 13.515625 -4.585938 12.050781 -4.585938 Z M 8.316406 -12.996094 L 8.316406 -16.851562 L 11.527344 -16.851562 C 12.964844 -16.851562 13.761719 -16.148438 13.761719 -14.921875 C 13.761719 -13.667969 12.964844 -12.996094 11.527344 -12.996094 Z M 8.316406 -12.996094 "/></g></g></g><g fill="#004aad" fill-opacity="1"><g transform="translate(251.907828, 244.231304)"><g><path d="M 12.691406 0.457031 C 19.511719 0.457031 24.34375 -4.160156 24.34375 -10.703125 C 24.34375 -17.246094 19.511719 -21.867188 12.691406 -21.867188 C 5.871094 -21.867188 1.039062 -17.246094 1.039062 -10.703125 C 1.039062 -4.160156 5.871094 0.457031 12.691406 0.457031 Z M 7.308594 -10.703125 C 7.308594 -13.914062 9.542969 -16.148438 12.691406 -16.148438 C 15.871094 -16.148438 18.074219 -13.914062 18.074219 -10.703125 C 18.074219 -7.492188 15.871094 -5.261719 12.691406 -5.261719 C 9.542969 -5.261719 7.308594 -7.492188 7.308594 -10.703125 Z M 7.308594 -10.703125 "/></g></g></g><g fill="#004aad" fill-opacity="1"><g transform="translate(277.318956, 244.231304)"><g><path d="M 12.691406 0.457031 C 19.511719 0.457031 24.34375 -4.160156 24.34375 -10.703125 C 24.34375 -17.246094 19.511719 -21.867188 12.691406 -21.867188 C 5.871094 -21.867188 1.039062 -17.246094 1.039062 -10.703125 C 1.039062 -4.160156 5.871094 0.457031 12.691406 0.457031 Z M 7.308594 -10.703125 C 7.308594 -13.914062 9.542969 -16.148438 12.691406 -16.148438 C 15.871094 -16.148438 18.074219 -13.914062 18.074219 -10.703125 C 18.074219 -7.492188 15.871094 -5.261719 12.691406 -5.261719 C 9.542969 -5.261719 7.308594 -7.492188 7.308594 -10.703125 Z M 7.308594 -10.703125 "/></g></g></g><g fill="#004aad" fill-opacity="1"><g transform="translate(302.730084, 244.231304)"><g><path d="M 2.261719 0 L 8.441406 0 L 8.441406 -8.105469 L 11.132812 -8.105469 L 15.230469 0 L 22.386719 0 L 16.757812 -10.398438 C 17.402344 -11.160156 17.980469 -12.171875 18.472656 -13.425781 L 21.652344 -21.40625 L 14.953125 -21.40625 L 13.027344 -16.054688 C 12.386719 -14.191406 11.683594 -13.730469 9.480469 -13.730469 L 8.441406 -13.730469 L 8.441406 -21.40625 L 2.261719 -21.40625 Z M 2.261719 0 "/></g></g></g></svg>