<svg xmlns="http://www.w3.org/2000/svg" xmlns:xlink="http://www.w3.org/1999/xlink" width="500" zoomAndPan="magnify" viewBox="0 0 375 374.999991" height="500" preserveAspectRatio="xMidYMid meet" version="1.0"><defs><g/><clipPath id="id1"><path d="M 134.160156 116 L 237.703125 116 L 237.703125 164 L 134.160156 164 Z M 134.160156 116 " clip-rule="nonzero"/></clipPath><clipPath id="id2"><path d="M 134.160156 156.582031 L 180 156.582031 L 180 203 L 134.160156 203 Z M 134.160156 156.582031 " clip-rule="nonzero"/></clipPath><clipPath id="id3"><path d="M 195 157 L 240.863281 157 L 240.863281 204 L 195 204 Z M 195 157 " clip-rule="nonzero"/></clipPath></defs><g clip-path="url(#id1)"><path fill="#004aad" d="M 141.699219 116.664062 C 156.0625 116.664062 161.992188 117.050781 177.796875 140.960938 C 177.796875 140.960938 186.316406 152.527344 196.660156 151.9375 C 196.660156 151.9375 203.75 153.5 210.0625 138.613281 C 216.382812 123.714844 221.550781 115.484375 237.640625 117.640625 C 237.640625 117.640625 230.171875 124.300781 229.117188 127.144531 C 228.0625 129.988281 210.957031 151.152344 201.605469 152.621094 C 202.980469 153.011719 204.898438 153.5 208.144531 152.914062 C 208.144531 152.914062 211.496094 153.113281 212.023438 154.777344 C 208.722656 154.484375 197.808594 157.816406 195.511719 159.582031 C 193.214844 161.351562 185.339844 166.0625 179.027344 161.257812 C 180.378906 161.054688 187.9375 159.628906 191.433594 156.179688 C 185.550781 156.25 175.789062 154.289062 168.503906 147.332031 C 161.234375 140.375 143.613281 119.402344 134.226562 117.835938 L 141.699219 116.664062 " fill-opacity="1" fill-rule="nonzero"/></g><g clip-path="url(#id2)"><path fill="#004aad" d="M 154.519531 156.757812 C 153.867188 156.824219 153.214844 156.933594 152.5625 157.0625 C 152.347656 157.109375 152.109375 157.152344 151.890625 157.195312 C 151.523438 157.261719 151.152344 157.371094 150.785156 157.480469 C 149.546875 157.828125 148.308594 158.308594 147.136719 158.855469 C 147.113281 158.878906 147.09375 158.878906 147.050781 158.898438 C 146.679688 159.074219 146.332031 159.25 145.984375 159.445312 C 144.683594 160.164062 143.464844 161.039062 142.335938 161.980469 C 141.492188 162.679688 140.707031 163.464844 139.96875 164.273438 C 139.863281 164.402344 139.730469 164.535156 139.625 164.664062 C 138.929688 165.496094 138.277344 166.371094 137.710938 167.289062 C 137.257812 167.988281 136.867188 168.730469 136.496094 169.492188 C 136.171875 170.171875 135.886719 170.847656 135.628906 171.546875 C 135.453125 172.050781 135.28125 172.550781 135.128906 173.054688 C 134.652344 174.648438 134.390625 176.289062 134.261719 177.949219 C 134.214844 178.382812 134.214844 178.800781 134.195312 179.238281 C 134.195312 179.28125 134.195312 179.300781 134.195312 179.34375 C 134.171875 180.722656 134.304688 182.097656 134.519531 183.453125 C 134.585938 183.910156 134.695312 184.390625 134.804688 184.851562 C 134.976562 185.59375 135.195312 186.3125 135.433594 187.035156 C 135.519531 187.296875 135.628906 187.558594 135.714844 187.820312 C 135.886719 188.234375 136.0625 188.671875 136.234375 189.066406 C 136.277344 189.175781 136.324219 189.285156 136.386719 189.394531 C 136.734375 190.136719 137.125 190.878906 137.558594 191.578125 C 137.667969 191.753906 137.777344 191.90625 137.863281 192.082031 C 138.558594 193.152344 139.339844 194.15625 140.1875 195.074219 C 140.902344 195.859375 141.664062 196.582031 142.46875 197.257812 C 142.921875 197.652344 143.402344 198 143.902344 198.351562 C 144.117188 198.503906 144.335938 198.65625 144.574219 198.808594 C 145.050781 199.136719 145.550781 199.421875 146.070312 199.703125 C 146.070312 199.703125 146.09375 199.703125 146.09375 199.726562 C 147.09375 200.273438 148.113281 200.730469 149.175781 201.125 C 150.675781 201.691406 152.238281 202.0625 153.84375 202.28125 C 155.558594 202.523438 157.253906 202.566406 158.96875 202.414062 C 160.75 202.261719 162.488281 201.890625 164.179688 201.34375 C 167.371094 200.292969 170.28125 198.503906 172.714844 196.1875 C 173.929688 195.050781 174.972656 193.742188 175.90625 192.386719 C 176.882812 190.96875 177.644531 189.414062 178.273438 187.820312 C 178.902344 186.226562 179.316406 184.542969 179.554688 182.839844 C 179.792969 181.070312 179.859375 179.300781 179.707031 177.511719 C 179.402344 174.101562 178.335938 170.78125 176.601562 167.832031 C 175.820312 166.433594 174.820312 165.125 173.710938 163.921875 C 172.605469 162.722656 171.367188 161.671875 170.042969 160.710938 C 168.785156 159.816406 167.414062 159.050781 165.984375 158.441406 C 164.484375 157.808594 162.941406 157.304688 161.335938 157 C 160.011719 156.738281 158.6875 156.605469 157.339844 156.582031 C 157.296875 156.582031 157.253906 156.582031 157.1875 156.582031 C 157.144531 156.582031 157.125 156.582031 157.082031 156.582031 C 156.234375 156.605469 155.386719 156.648438 154.519531 156.757812 Z M 159.6875 159.511719 C 161.445312 159.773438 163.160156 160.230469 164.789062 160.910156 C 166.394531 161.609375 167.894531 162.480469 169.28125 163.550781 C 170.628906 164.621094 171.84375 165.84375 172.910156 167.199219 C 173.972656 168.597656 174.839844 170.105469 175.535156 171.722656 C 176.210938 173.382812 176.6875 175.109375 176.925781 176.898438 C 177.144531 178.691406 177.144531 180.503906 176.925781 182.316406 C 176.664062 184.085938 176.1875 185.8125 175.515625 187.472656 C 174.820312 189.066406 173.953125 190.574219 172.910156 191.949219 C 171.84375 193.304688 170.628906 194.527344 169.28125 195.597656 C 167.894531 196.644531 166.394531 197.542969 164.808594 198.242188 C 163.160156 198.917969 161.445312 199.398438 159.664062 199.640625 C 157.882812 199.859375 156.101562 199.859375 154.324219 199.640625 C 152.671875 199.398438 151.066406 198.960938 149.503906 198.351562 C 149.394531 198.308594 149.285156 198.261719 149.199219 198.21875 C 148.828125 198.066406 148.460938 197.890625 148.113281 197.695312 C 148.089844 197.671875 148.070312 197.671875 148.046875 197.652344 C 148.027344 197.652344 148.027344 197.628906 148.003906 197.628906 C 147.984375 197.628906 147.984375 197.609375 147.960938 197.609375 C 146.832031 197.019531 145.746094 196.339844 144.726562 195.554688 C 143.75 194.769531 142.835938 193.914062 142.011719 192.976562 C 142.011719 192.976562 142.011719 192.976562 142.011719 192.953125 C 141.988281 192.933594 141.988281 192.933594 141.96875 192.910156 C 141.945312 192.890625 141.945312 192.890625 141.925781 192.867188 C 141.925781 192.867188 141.925781 192.84375 141.902344 192.84375 C 141.621094 192.539062 141.359375 192.210938 141.097656 191.882812 C 140.101562 190.550781 139.253906 189.109375 138.558594 187.582031 C 138.558594 187.582031 138.558594 187.558594 138.558594 187.558594 C 138.558594 187.558594 138.558594 187.539062 138.539062 187.539062 C 138.515625 187.492188 138.492188 187.429688 138.472656 187.382812 C 138.386719 187.1875 138.320312 187.011719 138.253906 186.816406 C 138.253906 186.792969 138.234375 186.773438 138.234375 186.75 C 138.234375 186.75 138.234375 186.75 138.234375 186.730469 C 137.734375 185.398438 137.386719 184.042969 137.148438 182.644531 C 137.148438 182.644531 137.148438 182.621094 137.148438 182.621094 C 137.148438 182.601562 137.148438 182.578125 137.148438 182.578125 C 137.148438 182.558594 137.148438 182.558594 137.148438 182.535156 C 137.148438 182.535156 137.148438 182.511719 137.148438 182.511719 C 137.125 182.425781 137.125 182.316406 137.105469 182.230469 C 136.886719 180.414062 136.886719 178.601562 137.105469 176.8125 C 137.257812 175.851562 137.453125 174.890625 137.710938 173.972656 C 137.710938 173.949219 137.734375 173.929688 137.734375 173.90625 C 137.734375 173.882812 137.734375 173.863281 137.753906 173.863281 C 137.753906 173.863281 137.753906 173.839844 137.753906 173.839844 C 137.972656 173.121094 138.210938 172.421875 138.492188 171.722656 C 139.1875 170.128906 140.058594 168.621094 141.121094 167.222656 C 141.46875 166.761719 141.835938 166.347656 142.230469 165.910156 C 142.25 165.890625 142.25 165.867188 142.273438 165.867188 C 142.273438 165.867188 142.273438 165.84375 142.292969 165.84375 C 142.316406 165.824219 142.316406 165.824219 142.335938 165.800781 C 142.335938 165.800781 142.359375 165.78125 142.359375 165.78125 C 142.359375 165.78125 142.378906 165.757812 142.378906 165.757812 C 142.402344 165.738281 142.402344 165.738281 142.425781 165.714844 C 142.425781 165.714844 142.445312 165.691406 142.445312 165.691406 C 142.46875 165.671875 142.46875 165.671875 142.488281 165.648438 C 142.488281 165.648438 142.488281 165.648438 142.511719 165.628906 C 142.53125 165.605469 142.554688 165.582031 142.554688 165.582031 C 143.207031 164.90625 143.902344 164.273438 144.617188 163.683594 C 144.640625 163.660156 144.660156 163.640625 144.683594 163.640625 C 144.703125 163.617188 144.726562 163.617188 144.746094 163.59375 C 146.136719 162.546875 147.636719 161.652344 149.21875 160.953125 C 149.414062 160.886719 149.589844 160.800781 149.785156 160.734375 C 149.804688 160.734375 149.804688 160.734375 149.828125 160.710938 C 149.851562 160.710938 149.851562 160.710938 149.871094 160.691406 C 151.085938 160.230469 152.324219 159.902344 153.585938 159.664062 C 153.585938 159.664062 153.605469 159.664062 153.605469 159.664062 C 153.605469 159.664062 153.605469 159.664062 153.628906 159.664062 C 153.867188 159.621094 154.085938 159.578125 154.324219 159.554688 C 154.582031 159.511719 154.867188 159.488281 155.125 159.46875 C 156.625 159.292969 158.167969 159.3125 159.6875 159.511719 Z M 175.492188 187.558594 C 175.472656 187.601562 175.472656 187.625 175.449219 187.667969 C 175.472656 187.625 175.492188 187.582031 175.492188 187.558594 Z M 175.492188 187.558594 " fill-opacity="1" fill-rule="nonzero"/></g><g clip-path="url(#id3)"><path fill="#004aad" d="M 212.425781 158.484375 C 210.796875 158.878906 209.214844 159.511719 207.695312 160.253906 C 207.152344 160.515625 206.628906 160.820312 206.109375 161.128906 C 206 161.191406 205.871094 161.28125 205.761719 161.34375 C 204.847656 161.914062 203.980469 162.570312 203.15625 163.269531 C 202.679688 163.683594 202.199219 164.121094 201.746094 164.578125 C 200.613281 165.714844 199.59375 167.003906 198.726562 168.359375 C 198.292969 169.035156 197.902344 169.734375 197.53125 170.453125 C 197.464844 170.5625 197.421875 170.695312 197.359375 170.804688 C 197.054688 171.460938 196.773438 172.113281 196.511719 172.792969 C 196.511719 172.8125 196.511719 172.8125 196.488281 172.835938 C 195.902344 174.363281 195.535156 175.980469 195.316406 177.597656 C 195.078125 179.34375 195.035156 181.09375 195.1875 182.863281 C 195.492188 186.25 196.554688 189.523438 198.25 192.453125 C 199.074219 193.871094 200.074219 195.183594 201.15625 196.382812 C 202.265625 197.609375 203.546875 198.679688 204.871094 199.640625 C 206.238281 200.621094 207.714844 201.386719 209.257812 202.042969 C 210.796875 202.675781 212.382812 203.132812 214.035156 203.417969 C 217.507812 204.007812 221.070312 203.789062 224.457031 202.785156 C 227.757812 201.800781 230.773438 200.011719 233.335938 197.695312 C 235.789062 195.445312 237.699219 192.628906 238.980469 189.546875 C 240.285156 186.402344 240.847656 182.949219 240.675781 179.519531 C 240.503906 176.089844 239.523438 172.75 237.898438 169.734375 C 237.113281 168.292969 236.160156 166.960938 235.09375 165.714844 C 234.03125 164.449219 232.792969 163.355469 231.492188 162.351562 C 230.230469 161.390625 228.84375 160.582031 227.410156 159.902344 C 225.867188 159.203125 224.28125 158.660156 222.632812 158.308594 C 221.089844 157.980469 219.527344 157.828125 217.964844 157.828125 C 216.117188 157.828125 214.25 158.046875 212.425781 158.484375 Z M 220.632812 160.710938 C 222.394531 160.972656 224.109375 161.433594 225.757812 162.109375 C 227.34375 162.808594 228.820312 163.683594 230.210938 164.710938 C 231.578125 165.78125 232.792969 167.023438 233.878906 168.378906 C 234.921875 169.753906 235.789062 171.261719 236.484375 172.859375 C 237.160156 174.519531 237.636719 176.265625 237.898438 178.035156 C 238.113281 179.847656 238.113281 181.660156 237.898438 183.453125 C 237.636719 185.222656 237.179688 186.949219 236.507812 188.609375 C 235.8125 190.203125 234.945312 191.710938 233.902344 193.109375 C 232.816406 194.484375 231.601562 195.707031 230.253906 196.777344 C 228.863281 197.824219 227.34375 198.722656 225.757812 199.421875 C 224.109375 200.097656 222.414062 200.558594 220.65625 200.820312 C 218.875 201.039062 217.074219 201.039062 215.273438 200.820312 C 213.535156 200.558594 211.820312 200.097656 210.191406 199.421875 C 208.582031 198.722656 207.085938 197.847656 205.695312 196.777344 C 204.328125 195.683594 203.113281 194.460938 202.027344 193.085938 C 200.984375 191.6875 200.117188 190.203125 199.421875 188.585938 C 198.746094 186.925781 198.292969 185.199219 198.03125 183.429688 C 197.8125 181.617188 197.8125 179.804688 198.03125 178.011719 C 198.269531 176.332031 198.703125 174.691406 199.335938 173.121094 C 199.335938 173.121094 199.335938 173.121094 199.335938 173.097656 C 199.335938 173.097656 199.335938 173.074219 199.335938 173.074219 C 199.355469 173.011719 199.378906 172.945312 199.421875 172.878906 C 199.550781 172.574219 199.679688 172.269531 199.832031 171.984375 C 199.832031 171.984375 199.832031 171.960938 199.832031 171.960938 C 199.832031 171.941406 199.855469 171.917969 199.855469 171.898438 C 200.464844 170.652344 201.179688 169.472656 202.027344 168.359375 C 203.089844 167.003906 204.328125 165.757812 205.675781 164.6875 C 205.71875 164.644531 205.761719 164.621094 205.804688 164.578125 C 205.804688 164.578125 205.828125 164.578125 205.828125 164.558594 C 205.847656 164.558594 205.847656 164.535156 205.871094 164.535156 C 207.152344 163.59375 208.519531 162.789062 209.972656 162.132812 C 209.996094 162.132812 210.015625 162.109375 210.039062 162.109375 C 210.039062 162.109375 210.058594 162.109375 210.058594 162.089844 C 210.082031 162.089844 210.082031 162.066406 210.105469 162.066406 C 210.125 162.066406 210.148438 162.042969 210.148438 162.042969 C 210.210938 162.023438 210.277344 162 210.34375 161.957031 C 211.925781 161.324219 213.578125 160.886719 215.273438 160.625 C 217.050781 160.492188 218.855469 160.492188 220.632812 160.710938 Z M 220.632812 160.710938 " fill-opacity="1" fill-rule="nonzero"/></g><path fill="#004aad" d="M 186.675781 171.875 C 185.9375 171.917969 185.175781 172.027344 184.460938 172.222656 C 184.199219 172.289062 183.960938 172.355469 183.699219 172.441406 C 183.027344 172.660156 182.355469 172.988281 181.746094 173.339844 C 181.484375 173.492188 181.226562 173.664062 180.988281 173.839844 C 180.988281 173.839844 180.964844 173.863281 180.964844 173.863281 C 180.941406 173.882812 180.921875 173.90625 180.878906 173.929688 C 180.660156 174.101562 180.445312 174.253906 180.226562 174.453125 C 179.445312 175.085938 178.816406 175.851562 178.230469 176.660156 C 177.859375 177.203125 177.535156 177.773438 177.273438 178.382812 C 177.273438 178.382812 177.273438 178.40625 177.25 178.40625 C 177.25 178.40625 177.25 178.429688 177.25 178.429688 C 177.25 178.449219 177.230469 178.472656 177.230469 178.472656 C 177.164062 178.582031 177.121094 178.691406 177.101562 178.800781 C 177.101562 178.820312 177.078125 178.820312 177.078125 178.84375 C 176.949219 179.171875 177.054688 179.609375 177.207031 179.890625 C 177.382812 180.199219 177.6875 180.414062 178.011719 180.523438 C 178.359375 180.613281 178.75 180.570312 179.054688 180.394531 C 179.140625 180.328125 179.226562 180.242188 179.335938 180.175781 C 179.488281 180 179.617188 179.824219 179.683594 179.609375 C 179.964844 178.972656 180.3125 178.382812 180.726562 177.816406 C 181.160156 177.269531 181.660156 176.769531 182.203125 176.332031 C 182.765625 175.914062 183.375 175.566406 184.003906 175.261719 C 184.679688 175 185.351562 174.800781 186.066406 174.691406 C 186.804688 174.605469 187.523438 174.605469 188.261719 174.691406 C 188.695312 174.757812 189.128906 174.867188 189.542969 175 C 189.5625 175 189.5625 175 189.585938 175 C 189.585938 175 189.605469 175 189.605469 175 C 189.84375 175.0625 190.105469 175.152344 190.34375 175.261719 C 190.996094 175.542969 191.605469 175.914062 192.167969 176.332031 C 192.210938 176.375 192.277344 176.417969 192.320312 176.460938 C 192.796875 176.878906 193.234375 177.3125 193.625 177.792969 C 193.972656 178.273438 194.296875 178.800781 194.558594 179.324219 C 194.558594 179.324219 194.558594 179.34375 194.578125 179.34375 C 194.621094 179.433594 194.664062 179.519531 194.710938 179.628906 C 194.882812 180.089844 195.035156 180.523438 195.144531 181.003906 C 195.207031 181.246094 195.253906 181.488281 195.296875 181.75 C 195.316406 181.945312 195.339844 182.164062 195.339844 182.359375 C 195.339844 182.359375 195.339844 182.382812 195.339844 182.382812 C 195.339844 182.402344 195.339844 182.425781 195.339844 182.449219 C 195.339844 182.449219 195.339844 182.46875 195.339844 182.46875 C 195.339844 182.492188 195.339844 182.511719 195.339844 182.535156 C 195.339844 182.535156 195.339844 182.558594 195.339844 182.558594 C 195.339844 182.578125 195.339844 182.601562 195.339844 182.621094 C 195.339844 182.621094 195.339844 182.644531 195.339844 182.644531 C 195.339844 182.664062 195.339844 182.6875 195.339844 182.710938 C 195.339844 182.710938 195.339844 182.710938 195.339844 182.730469 C 195.339844 182.753906 195.339844 182.773438 195.339844 182.820312 C 195.339844 182.839844 195.339844 182.882812 195.339844 182.90625 C 195.339844 183.648438 195.96875 184.28125 196.707031 184.28125 C 197.445312 184.28125 198.054688 183.671875 198.074219 182.90625 C 198.074219 181.859375 197.945312 180.789062 197.640625 179.761719 C 197.640625 179.761719 197.640625 179.738281 197.640625 179.738281 C 197.574219 179.519531 197.511719 179.28125 197.421875 179.0625 C 197.25 178.601562 197.054688 178.144531 196.816406 177.730469 C 196.640625 177.402344 196.445312 177.050781 196.230469 176.746094 C 195.902344 176.265625 195.535156 175.785156 195.121094 175.371094 C 195.078125 175.324219 195.035156 175.261719 194.992188 175.21875 C 194.859375 175.085938 194.730469 174.953125 194.578125 174.824219 C 194.144531 174.410156 193.667969 174.039062 193.167969 173.710938 C 192.84375 173.492188 192.515625 173.292969 192.167969 173.140625 C 192.015625 173.054688 191.863281 172.988281 191.691406 172.921875 C 191.625 172.902344 191.5625 172.859375 191.496094 172.835938 C 190.929688 172.59375 190.34375 172.398438 189.738281 172.246094 C 189.542969 172.203125 189.347656 172.160156 189.128906 172.113281 C 188.671875 172.027344 188.195312 171.984375 187.71875 171.960938 C 187.695312 171.960938 187.652344 171.960938 187.628906 171.960938 C 187.5 171.960938 187.347656 171.960938 187.21875 171.960938 C 187.023438 171.851562 186.847656 171.851562 186.675781 171.875 Z M 186.675781 171.875 " fill-opacity="1" fill-rule="nonzero"/><g fill="#004aad" fill-opacity="1"><g transform="translate(45.530373, 236.69505)"><g><path d="M 2.261719 0 L 8.441406 0 L 8.441406 -6.359375 L 15.597656 -6.359375 L 15.597656 -11.710938 L 8.441406 -11.710938 L 8.441406 -15.902344 L 16.390625 -15.902344 L 16.390625 -21.40625 L 2.261719 -21.40625 Z M 2.261719 0 "/></g></g></g><g fill="#004aad" fill-opacity="1"><g transform="translate(63.082699, 236.69505)"><g><path d="M 2.261719 0 L 8.441406 0 L 8.441406 -6.085938 L 10.765625 -6.085938 L 13.824219 0 L 20.824219 0 L 16.878906 -7.21875 C 19.144531 -8.472656 20.429688 -10.734375 20.429688 -13.730469 C 20.429688 -18.472656 17.21875 -21.40625 12.019531 -21.40625 L 2.261719 -21.40625 Z M 8.316406 -11.007812 L 8.316406 -16.359375 L 11.191406 -16.359375 C 13.148438 -16.359375 14.21875 -15.414062 14.21875 -13.699219 C 14.21875 -11.988281 13.148438 -11.007812 11.191406 -11.007812 Z M 8.316406 -11.007812 "/></g></g></g><g fill="#004aad" fill-opacity="1"><g transform="translate(85.099559, 236.69505)"><g><path d="M 2.261719 0 L 17.277344 0 L 17.277344 -5.046875 L 8.378906 -5.046875 L 8.378906 -8.347656 L 16.117188 -8.347656 L 16.117188 -13.300781 L 8.378906 -13.300781 L 8.378906 -16.421875 L 16.941406 -16.421875 L 16.941406 -21.40625 L 2.261719 -21.40625 Z M 2.261719 0 "/></g></g></g><g fill="#004aad" fill-opacity="1"><g transform="translate(103.752725, 236.69505)"><g><path d="M 2.261719 0 L 17.277344 0 L 17.277344 -5.046875 L 8.378906 -5.046875 L 8.378906 -8.347656 L 16.117188 -8.347656 L 16.117188 -13.300781 L 8.378906 -13.300781 L 8.378906 -16.421875 L 16.941406 -16.421875 L 16.941406 -21.40625 L 2.261719 -21.40625 Z M 2.261719 0 "/></g></g></g><g fill="#004aad" fill-opacity="1"><g transform="translate(122.405892, 236.69505)"><g><path d="M 2.261719 0 L 17.1875 0 L 17.1875 -5.71875 L 8.441406 -5.71875 L 8.441406 -21.40625 L 2.261719 -21.40625 Z M 2.261719 0 "/></g></g></g><g fill="#004aad" fill-opacity="1"><g transform="translate(140.355751, 236.69505)"><g><path d="M 0.152344 0 L 6.695312 0 L 7.859375 -3.027344 L 15.167969 -3.027344 L 16.332031 0 L 22.90625 0 L 14.585938 -21.40625 L 8.472656 -21.40625 Z M 9.144531 -7.554688 L 11.527344 -14.191406 L 13.914062 -7.554688 Z M 9.144531 -7.554688 "/></g></g></g><g fill="#004aad" fill-opacity="1"><g transform="translate(163.412292, 236.69505)"><g><path d="M 2.261719 0 L 8.378906 0 L 8.378906 -10.917969 L 16.515625 0 L 21.527344 0 L 21.527344 -21.40625 L 15.445312 -21.40625 L 15.445312 -10.550781 L 7.308594 -21.40625 L 2.261719 -21.40625 Z M 2.261719 0 "/></g></g></g><g fill="#004aad" fill-opacity="1"><g transform="translate(187.233313, 236.69505)"><g><path d="M 12.261719 0.457031 C 18.164062 0.457031 22.628906 -3.121094 23.546875 -8.5625 L 17.277344 -8.5625 C 16.515625 -6.542969 14.710938 -5.261719 12.386719 -5.261719 C 9.386719 -5.261719 7.308594 -7.492188 7.308594 -10.703125 C 7.308594 -13.945312 9.417969 -16.148438 12.445312 -16.148438 C 14.679688 -16.148438 16.542969 -14.894531 17.1875 -12.964844 L 23.425781 -12.964844 C 22.324219 -18.378906 17.921875 -21.867188 12.203125 -21.867188 C 5.597656 -21.867188 1.039062 -17.308594 1.039062 -10.703125 C 1.039062 -4.097656 5.597656 0.457031 12.261719 0.457031 Z M 12.261719 0.457031 "/></g></g></g><g fill="#004aad" fill-opacity="1"><g transform="translate(211.757642, 236.69505)"><g><path d="M 2.261719 0 L 17.277344 0 L 17.277344 -5.046875 L 8.378906 -5.046875 L 8.378906 -8.347656 L 16.117188 -8.347656 L 16.117188 -13.300781 L 8.378906 -13.300781 L 8.378906 -16.421875 L 16.941406 -16.421875 L 16.941406 -21.40625 L 2.261719 -21.40625 Z M 2.261719 0 "/></g></g></g><g fill="#004aad" fill-opacity="1"><g transform="translate(230.410809, 236.69505)"><g><path d="M 2.261719 0 L 13.242188 0 C 17.585938 0 20.613281 -2.445312 20.613281 -5.964844 C 20.613281 -8.226562 19.386719 -10.0625 17.371094 -10.949219 C 19.019531 -11.894531 19.96875 -13.609375 19.96875 -15.65625 C 19.96875 -19.175781 17.15625 -21.40625 12.691406 -21.40625 L 2.261719 -21.40625 Z M 8.316406 -4.585938 L 8.316406 -8.59375 L 12.050781 -8.59375 C 13.515625 -8.59375 14.34375 -7.859375 14.34375 -6.605469 C 14.34375 -5.320312 13.515625 -4.585938 12.050781 -4.585938 Z M 8.316406 -12.996094 L 8.316406 -16.851562 L 11.527344 -16.851562 C 12.964844 -16.851562 13.761719 -16.148438 13.761719 -14.921875 C 13.761719 -13.667969 12.964844 -12.996094 11.527344 -12.996094 Z M 8.316406 -12.996094 "/></g></g></g><g fill="#004aad" fill-opacity="1"><g transform="translate(251.907828, 236.69505)"><g><path d="M 12.691406 0.457031 C 19.511719 0.457031 24.34375 -4.160156 24.34375 -10.703125 C 24.34375 -17.246094 19.511719 -21.867188 12.691406 -21.867188 C 5.871094 -21.867188 1.039062 -17.246094 1.039062 -10.703125 C 1.039062 -4.160156 5.871094 0.457031 12.691406 0.457031 Z M 7.308594 -10.703125 C 7.308594 -13.914062 9.542969 -16.148438 12.691406 -16.148438 C 15.871094 -16.148438 18.074219 -13.914062 18.074219 -10.703125 C 18.074219 -7.492188 15.871094 -5.261719 12.691406 -5.261719 C 9.542969 -5.261719 7.308594 -7.492188 7.308594 -10.703125 Z M 7.308594 -10.703125 "/></g></g></g><g fill="#004aad" fill-opacity="1"><g transform="translate(277.318956, 236.69505)"><g><path d="M 12.691406 0.457031 C 19.511719 0.457031 24.34375 -4.160156 24.34375 -10.703125 C 24.34375 -17.246094 19.511719 -21.867188 12.691406 -21.867188 C 5.871094 -21.867188 1.039062 -17.246094 1.039062 -10.703125 C 1.039062 -4.160156 5.871094 0.457031 12.691406 0.457031 Z M 7.308594 -10.703125 C 7.308594 -13.914062 9.542969 -16.148438 12.691406 -16.148438 C 15.871094 -16.148438 18.074219 -13.914062 18.074219 -10.703125 C 18.074219 -7.492188 15.871094 -5.261719 12.691406 -5.261719 C 9.542969 -5.261719 7.308594 -7.492188 7.308594 -10.703125 Z M 7.308594 -10.703125 "/></g></g></g><g fill="#004aad" fill-opacity="1"><g transform="translate(302.730084, 236.69505)"><g><path d="M 2.261719 0 L 8.441406 0 L 8.441406 -8.105469 L 11.132812 -8.105469 L 15.230469 0 L 22.386719 0 L 16.757812 -10.398438 C 17.402344 -11.160156 17.980469 -12.171875 18.472656 -13.425781 L 21.652344 -21.40625 L 14.953125 -21.40625 L 13.027344 -16.054688 C 12.386719 -14.191406 11.683594 -13.730469 9.480469 -13.730469 L 8.441406 -13.730469 L 8.441406 -21.40625 L 2.261719 -21.40625 Z M 2.261719 0 "/></g></g></g><g fill="#004aad" fill-opacity="1"><g transform="translate(46.496552, 256.027801)"><g><path d="M 3.296875 -4.140625 L 2.203125 -3.015625 L 2.203125 0 L 1.03125 0 L 1.03125 -8.90625 L 2.203125 -8.90625 L 2.203125 -4.5 L 6.171875 -8.90625 L 7.59375 -8.90625 L 4.078125 -4.96875 L 7.859375 0 L 6.453125 0 Z M 3.296875 -4.140625 "/></g></g></g><g fill="#004aad" fill-opacity="1"><g transform="translate(58.693119, 256.027801)"><g><path d="M 2.296875 0 L 1.125 0 L 1.125 -8.90625 L 2.296875 -8.90625 Z M 2.296875 0 "/></g></g></g><g fill="#004aad" fill-opacity="1"><g transform="translate(66.439864, 256.027801)"><g><path d="M 7.59375 -2.828125 C 7.476562 -1.878906 7.128906 -1.148438 6.546875 -0.640625 C 5.960938 -0.128906 5.179688 0.125 4.203125 0.125 C 3.148438 0.125 2.304688 -0.25 1.671875 -1 C 1.046875 -1.757812 0.734375 -2.769531 0.734375 -4.03125 L 0.734375 -4.890625 C 0.734375 -5.722656 0.878906 -6.453125 1.171875 -7.078125 C 1.460938 -7.703125 1.878906 -8.179688 2.421875 -8.515625 C 2.972656 -8.859375 3.601562 -9.03125 4.3125 -9.03125 C 5.257812 -9.03125 6.019531 -8.765625 6.59375 -8.234375 C 7.164062 -7.710938 7.5 -6.984375 7.59375 -6.046875 L 6.40625 -6.046875 C 6.300781 -6.753906 6.078125 -7.265625 5.734375 -7.578125 C 5.398438 -7.898438 4.925781 -8.0625 4.3125 -8.0625 C 3.5625 -8.0625 2.972656 -7.785156 2.546875 -7.234375 C 2.117188 -6.679688 1.90625 -5.890625 1.90625 -4.859375 L 1.90625 -4 C 1.90625 -3.03125 2.109375 -2.257812 2.515625 -1.6875 C 2.921875 -1.125 3.484375 -0.84375 4.203125 -0.84375 C 4.859375 -0.84375 5.359375 -0.988281 5.703125 -1.28125 C 6.054688 -1.570312 6.289062 -2.085938 6.40625 -2.828125 Z M 7.59375 -2.828125 "/></g></g></g><g fill="#004aad" fill-opacity="1"><g transform="translate(78.936356, 256.027801)"><g><path d="M 3.296875 -4.140625 L 2.203125 -3.015625 L 2.203125 0 L 1.03125 0 L 1.03125 -8.90625 L 2.203125 -8.90625 L 2.203125 -4.5 L 6.171875 -8.90625 L 7.59375 -8.90625 L 4.078125 -4.96875 L 7.859375 0 L 6.453125 0 Z M 3.296875 -4.140625 "/></g></g></g><g fill="#004aad" fill-opacity="1"><g transform="translate(91.132922, 256.027801)"><g><path d="M 3.65625 -3.96875 C 2.644531 -4.257812 1.910156 -4.613281 1.453125 -5.03125 C 0.992188 -5.457031 0.765625 -5.984375 0.765625 -6.609375 C 0.765625 -7.304688 1.046875 -7.882812 1.609375 -8.34375 C 2.171875 -8.800781 2.898438 -9.03125 3.796875 -9.03125 C 4.410156 -9.03125 4.957031 -8.910156 5.4375 -8.671875 C 5.914062 -8.441406 6.285156 -8.117188 6.546875 -7.703125 C 6.804688 -7.285156 6.9375 -6.828125 6.9375 -6.328125 L 5.765625 -6.328125 C 5.765625 -6.867188 5.59375 -7.289062 5.25 -7.59375 C 4.90625 -7.90625 4.421875 -8.0625 3.796875 -8.0625 C 3.222656 -8.0625 2.769531 -7.929688 2.4375 -7.671875 C 2.113281 -7.421875 1.953125 -7.070312 1.953125 -6.625 C 1.953125 -6.257812 2.101562 -5.953125 2.40625 -5.703125 C 2.71875 -5.453125 3.242188 -5.222656 3.984375 -5.015625 C 4.734375 -4.804688 5.316406 -4.578125 5.734375 -4.328125 C 6.148438 -4.078125 6.457031 -3.78125 6.65625 -3.4375 C 6.863281 -3.101562 6.96875 -2.710938 6.96875 -2.265625 C 6.96875 -1.546875 6.6875 -0.96875 6.125 -0.53125 C 5.5625 -0.09375 4.804688 0.125 3.859375 0.125 C 3.242188 0.125 2.671875 0.0078125 2.140625 -0.21875 C 1.617188 -0.457031 1.210938 -0.78125 0.921875 -1.1875 C 0.628906 -1.601562 0.484375 -2.066406 0.484375 -2.578125 L 1.671875 -2.578125 C 1.671875 -2.046875 1.867188 -1.625 2.265625 -1.3125 C 2.660156 -1 3.191406 -0.84375 3.859375 -0.84375 C 4.484375 -0.84375 4.957031 -0.96875 5.28125 -1.21875 C 5.613281 -1.46875 5.78125 -1.8125 5.78125 -2.25 C 5.78125 -2.6875 5.625 -3.023438 5.3125 -3.265625 C 5.007812 -3.503906 4.457031 -3.738281 3.65625 -3.96875 Z M 3.65625 -3.96875 "/></g></g></g><g fill="#004aad" fill-opacity="1"><g transform="translate(102.907159, 256.027801)"><g><path d="M 7.1875 -7.9375 L 4.328125 -7.9375 L 4.328125 0 L 3.15625 0 L 3.15625 -7.9375 L 0.296875 -7.9375 L 0.296875 -8.90625 L 7.1875 -8.90625 Z M 7.1875 -7.9375 "/></g></g></g><g fill="#004aad" fill-opacity="1"><g transform="translate(114.724235, 256.027801)"><g><path d="M 5.953125 -2.328125 L 2.21875 -2.328125 L 1.390625 0 L 0.171875 0 L 3.578125 -8.90625 L 4.59375 -8.90625 L 8.015625 0 L 6.796875 0 Z M 2.578125 -3.296875 L 5.609375 -3.296875 L 4.09375 -7.453125 Z M 2.578125 -3.296875 "/></g></g></g><g fill="#004aad" fill-opacity="1"><g transform="translate(127.239083, 256.027801)"><g><path d="M 4.296875 -3.609375 L 2.203125 -3.609375 L 2.203125 0 L 1.03125 0 L 1.03125 -8.90625 L 3.984375 -8.90625 C 4.984375 -8.90625 5.753906 -8.675781 6.296875 -8.21875 C 6.835938 -7.757812 7.109375 -7.097656 7.109375 -6.234375 C 7.109375 -5.671875 6.957031 -5.179688 6.65625 -4.765625 C 6.351562 -4.359375 5.9375 -4.054688 5.40625 -3.859375 L 7.5 -0.078125 L 7.5 0 L 6.234375 0 Z M 2.203125 -4.5625 L 4.015625 -4.5625 C 4.597656 -4.5625 5.0625 -4.710938 5.40625 -5.015625 C 5.75 -5.316406 5.921875 -5.722656 5.921875 -6.234375 C 5.921875 -6.785156 5.753906 -7.207031 5.421875 -7.5 C 5.097656 -7.789062 4.625 -7.9375 4 -7.9375 L 2.203125 -7.9375 Z M 2.203125 -4.5625 "/></g></g></g><g fill="#004aad" fill-opacity="1"><g transform="translate(139.294877, 256.027801)"><g><path d="M 7.1875 -7.9375 L 4.328125 -7.9375 L 4.328125 0 L 3.15625 0 L 3.15625 -7.9375 L 0.296875 -7.9375 L 0.296875 -8.90625 L 7.1875 -8.90625 Z M 7.1875 -7.9375 "/></g></g></g><g fill="#004aad" fill-opacity="1"><g transform="translate(151.111953, 256.027801)"><g/></g></g><g fill="#004aad" fill-opacity="1"><g transform="translate(158.552658, 256.027801)"><g><path d="M 3.75 -4.4375 L 6.078125 -8.90625 L 7.40625 -8.90625 L 4.34375 -3.328125 L 4.34375 0 L 3.15625 0 L 3.15625 -3.328125 L 0.09375 -8.90625 L 1.4375 -8.90625 Z M 3.75 -4.4375 "/></g></g></g><g fill="#004aad" fill-opacity="1"><g transform="translate(170.418701, 256.027801)"><g><path d="M 7.890625 -4.171875 C 7.890625 -3.296875 7.738281 -2.53125 7.4375 -1.875 C 7.144531 -1.226562 6.726562 -0.734375 6.1875 -0.390625 C 5.65625 -0.046875 5.03125 0.125 4.3125 0.125 C 3.613281 0.125 2.992188 -0.046875 2.453125 -0.390625 C 1.910156 -0.734375 1.488281 -1.222656 1.1875 -1.859375 C 0.882812 -2.503906 0.726562 -3.25 0.71875 -4.09375 L 0.71875 -4.734375 C 0.71875 -5.585938 0.863281 -6.34375 1.15625 -7 C 1.457031 -7.65625 1.878906 -8.15625 2.421875 -8.5 C 2.972656 -8.851562 3.597656 -9.03125 4.296875 -9.03125 C 5.015625 -9.03125 5.644531 -8.859375 6.1875 -8.515625 C 6.726562 -8.171875 7.144531 -7.671875 7.4375 -7.015625 C 7.738281 -6.359375 7.890625 -5.597656 7.890625 -4.734375 Z M 6.71875 -4.734375 C 6.71875 -5.796875 6.503906 -6.609375 6.078125 -7.171875 C 5.660156 -7.734375 5.066406 -8.015625 4.296875 -8.015625 C 3.554688 -8.015625 2.972656 -7.734375 2.546875 -7.171875 C 2.117188 -6.609375 1.898438 -5.828125 1.890625 -4.828125 L 1.890625 -4.171875 C 1.890625 -3.140625 2.101562 -2.332031 2.53125 -1.75 C 2.96875 -1.164062 3.5625 -0.875 4.3125 -0.875 C 5.070312 -0.875 5.660156 -1.148438 6.078125 -1.703125 C 6.492188 -2.253906 6.707031 -3.046875 6.71875 -4.078125 Z M 6.71875 -4.734375 "/></g></g></g><g fill="#004aad" fill-opacity="1"><g transform="translate(183.374247, 256.027801)"><g><path d="M 7.3125 -8.90625 L 7.3125 -2.84375 C 7.300781 -2.007812 7.035156 -1.320312 6.515625 -0.78125 C 5.992188 -0.25 5.28125 0.046875 4.375 0.109375 L 4.0625 0.125 C 3.09375 0.125 2.316406 -0.132812 1.734375 -0.65625 C 1.160156 -1.1875 0.867188 -1.914062 0.859375 -2.84375 L 0.859375 -8.90625 L 2.015625 -8.90625 L 2.015625 -2.875 C 2.015625 -2.226562 2.191406 -1.726562 2.546875 -1.375 C 2.898438 -1.019531 3.40625 -0.84375 4.0625 -0.84375 C 4.726562 -0.84375 5.238281 -1.019531 5.59375 -1.375 C 5.945312 -1.726562 6.125 -2.226562 6.125 -2.875 L 6.125 -8.90625 Z M 7.3125 -8.90625 "/></g></g></g><g fill="#004aad" fill-opacity="1"><g transform="translate(195.840129, 256.027801)"><g><path d="M 4.296875 -3.609375 L 2.203125 -3.609375 L 2.203125 0 L 1.03125 0 L 1.03125 -8.90625 L 3.984375 -8.90625 C 4.984375 -8.90625 5.753906 -8.675781 6.296875 -8.21875 C 6.835938 -7.757812 7.109375 -7.097656 7.109375 -6.234375 C 7.109375 -5.671875 6.957031 -5.179688 6.65625 -4.765625 C 6.351562 -4.359375 5.9375 -4.054688 5.40625 -3.859375 L 7.5 -0.078125 L 7.5 0 L 6.234375 0 Z M 2.203125 -4.5625 L 4.015625 -4.5625 C 4.597656 -4.5625 5.0625 -4.710938 5.40625 -5.015625 C 5.75 -5.316406 5.921875 -5.722656 5.921875 -6.234375 C 5.921875 -6.785156 5.753906 -7.207031 5.421875 -7.5 C 5.097656 -7.789062 4.625 -7.9375 4 -7.9375 L 2.203125 -7.9375 Z M 2.203125 -4.5625 "/></g></g></g><g fill="#004aad" fill-opacity="1"><g transform="translate(207.895922, 256.027801)"><g/></g></g><g fill="#004aad" fill-opacity="1"><g transform="translate(215.336628, 256.027801)"><g><path d="M 2.203125 -3.484375 L 2.203125 0 L 1.03125 0 L 1.03125 -8.90625 L 4.3125 -8.90625 C 5.289062 -8.90625 6.054688 -8.65625 6.609375 -8.15625 C 7.160156 -7.664062 7.4375 -7.007812 7.4375 -6.1875 C 7.4375 -5.320312 7.164062 -4.65625 6.625 -4.1875 C 6.082031 -3.71875 5.3125 -3.484375 4.3125 -3.484375 Z M 2.203125 -4.453125 L 4.3125 -4.453125 C 4.945312 -4.453125 5.429688 -4.597656 5.765625 -4.890625 C 6.097656 -5.179688 6.265625 -5.609375 6.265625 -6.171875 C 6.265625 -6.703125 6.097656 -7.125 5.765625 -7.4375 C 5.429688 -7.757812 4.972656 -7.925781 4.390625 -7.9375 L 2.203125 -7.9375 Z M 2.203125 -4.453125 "/></g></g></g><g fill="#004aad" fill-opacity="1"><g transform="translate(227.58216, 256.027801)"><g><path d="M 4.296875 -3.609375 L 2.203125 -3.609375 L 2.203125 0 L 1.03125 0 L 1.03125 -8.90625 L 3.984375 -8.90625 C 4.984375 -8.90625 5.753906 -8.675781 6.296875 -8.21875 C 6.835938 -7.757812 7.109375 -7.097656 7.109375 -6.234375 C 7.109375 -5.671875 6.957031 -5.179688 6.65625 -4.765625 C 6.351562 -4.359375 5.9375 -4.054688 5.40625 -3.859375 L 7.5 -0.078125 L 7.5 0 L 6.234375 0 Z M 2.203125 -4.5625 L 4.015625 -4.5625 C 4.597656 -4.5625 5.0625 -4.710938 5.40625 -5.015625 C 5.75 -5.316406 5.921875 -5.722656 5.921875 -6.234375 C 5.921875 -6.785156 5.753906 -7.207031 5.421875 -7.5 C 5.097656 -7.789062 4.625 -7.9375 4 -7.9375 L 2.203125 -7.9375 Z M 2.203125 -4.5625 "/></g></g></g><g fill="#004aad" fill-opacity="1"><g transform="translate(239.637954, 256.027801)"><g><path d="M 7.890625 -4.171875 C 7.890625 -3.296875 7.738281 -2.53125 7.4375 -1.875 C 7.144531 -1.226562 6.726562 -0.734375 6.1875 -0.390625 C 5.65625 -0.046875 5.03125 0.125 4.3125 0.125 C 3.613281 0.125 2.992188 -0.046875 2.453125 -0.390625 C 1.910156 -0.734375 1.488281 -1.222656 1.1875 -1.859375 C 0.882812 -2.503906 0.726562 -3.25 0.71875 -4.09375 L 0.71875 -4.734375 C 0.71875 -5.585938 0.863281 -6.34375 1.15625 -7 C 1.457031 -7.65625 1.878906 -8.15625 2.421875 -8.5 C 2.972656 -8.851562 3.597656 -9.03125 4.296875 -9.03125 C 5.015625 -9.03125 5.644531 -8.859375 6.1875 -8.515625 C 6.726562 -8.171875 7.144531 -7.671875 7.4375 -7.015625 C 7.738281 -6.359375 7.890625 -5.597656 7.890625 -4.734375 Z M 6.71875 -4.734375 C 6.71875 -5.796875 6.503906 -6.609375 6.078125 -7.171875 C 5.660156 -7.734375 5.066406 -8.015625 4.296875 -8.015625 C 3.554688 -8.015625 2.972656 -7.734375 2.546875 -7.171875 C 2.117188 -6.609375 1.898438 -5.828125 1.890625 -4.828125 L 1.890625 -4.171875 C 1.890625 -3.140625 2.101562 -2.332031 2.53125 -1.75 C 2.96875 -1.164062 3.5625 -0.875 4.3125 -0.875 C 5.070312 -0.875 5.660156 -1.148438 6.078125 -1.703125 C 6.492188 -2.253906 6.707031 -3.046875 6.71875 -4.078125 Z M 6.71875 -4.734375 "/></g></g></g><g fill="#004aad" fill-opacity="1"><g transform="translate(252.5935, 256.027801)"><g><path d="M 5.953125 -3.9375 L 2.203125 -3.9375 L 2.203125 0 L 1.03125 0 L 1.03125 -8.90625 L 6.546875 -8.90625 L 6.546875 -7.9375 L 2.203125 -7.9375 L 2.203125 -4.890625 L 5.953125 -4.890625 Z M 5.953125 -3.9375 "/></g></g></g><g fill="#004aad" fill-opacity="1"><g transform="translate(263.859692, 256.027801)"><g><path d="M 6.0625 -4.125 L 2.203125 -4.125 L 2.203125 -0.953125 L 6.6875 -0.953125 L 6.6875 0 L 1.03125 0 L 1.03125 -8.90625 L 6.625 -8.90625 L 6.625 -7.9375 L 2.203125 -7.9375 L 2.203125 -5.078125 L 6.0625 -5.078125 Z M 6.0625 -4.125 "/></g></g></g><g fill="#004aad" fill-opacity="1"><g transform="translate(275.321749, 256.027801)"><g><path d="M 3.65625 -3.96875 C 2.644531 -4.257812 1.910156 -4.613281 1.453125 -5.03125 C 0.992188 -5.457031 0.765625 -5.984375 0.765625 -6.609375 C 0.765625 -7.304688 1.046875 -7.882812 1.609375 -8.34375 C 2.171875 -8.800781 2.898438 -9.03125 3.796875 -9.03125 C 4.410156 -9.03125 4.957031 -8.910156 5.4375 -8.671875 C 5.914062 -8.441406 6.285156 -8.117188 6.546875 -7.703125 C 6.804688 -7.285156 6.9375 -6.828125 6.9375 -6.328125 L 5.765625 -6.328125 C 5.765625 -6.867188 5.59375 -7.289062 5.25 -7.59375 C 4.90625 -7.90625 4.421875 -8.0625 3.796875 -8.0625 C 3.222656 -8.0625 2.769531 -7.929688 2.4375 -7.671875 C 2.113281 -7.421875 1.953125 -7.070312 1.953125 -6.625 C 1.953125 -6.257812 2.101562 -5.953125 2.40625 -5.703125 C 2.71875 -5.453125 3.242188 -5.222656 3.984375 -5.015625 C 4.734375 -4.804688 5.316406 -4.578125 5.734375 -4.328125 C 6.148438 -4.078125 6.457031 -3.78125 6.65625 -3.4375 C 6.863281 -3.101562 6.96875 -2.710938 6.96875 -2.265625 C 6.96875 -1.546875 6.6875 -0.96875 6.125 -0.53125 C 5.5625 -0.09375 4.804688 0.125 3.859375 0.125 C 3.242188 0.125 2.671875 0.0078125 2.140625 -0.21875 C 1.617188 -0.457031 1.210938 -0.78125 0.921875 -1.1875 C 0.628906 -1.601562 0.484375 -2.066406 0.484375 -2.578125 L 1.671875 -2.578125 C 1.671875 -2.046875 1.867188 -1.625 2.265625 -1.3125 C 2.660156 -1 3.191406 -0.84375 3.859375 -0.84375 C 4.484375 -0.84375 4.957031 -0.96875 5.28125 -1.21875 C 5.613281 -1.46875 5.78125 -1.8125 5.78125 -2.25 C 5.78125 -2.6875 5.625 -3.023438 5.3125 -3.265625 C 5.007812 -3.503906 4.457031 -3.738281 3.65625 -3.96875 Z M 3.65625 -3.96875 "/></g></g></g><g fill="#004aad" fill-opacity="1"><g transform="translate(287.095986, 256.027801)"><g><path d="M 3.65625 -3.96875 C 2.644531 -4.257812 1.910156 -4.613281 1.453125 -5.03125 C 0.992188 -5.457031 0.765625 -5.984375 0.765625 -6.609375 C 0.765625 -7.304688 1.046875 -7.882812 1.609375 -8.34375 C 2.171875 -8.800781 2.898438 -9.03125 3.796875 -9.03125 C 4.410156 -9.03125 4.957031 -8.910156 5.4375 -8.671875 C 5.914062 -8.441406 6.285156 -8.117188 6.546875 -7.703125 C 6.804688 -7.285156 6.9375 -6.828125 6.9375 -6.328125 L 5.765625 -6.328125 C 5.765625 -6.867188 5.59375 -7.289062 5.25 -7.59375 C 4.90625 -7.90625 4.421875 -8.0625 3.796875 -8.0625 C 3.222656 -8.0625 2.769531 -7.929688 2.4375 -7.671875 C 2.113281 -7.421875 1.953125 -7.070312 1.953125 -6.625 C 1.953125 -6.257812 2.101562 -5.953125 2.40625 -5.703125 C 2.71875 -5.453125 3.242188 -5.222656 3.984375 -5.015625 C 4.734375 -4.804688 5.316406 -4.578125 5.734375 -4.328125 C 6.148438 -4.078125 6.457031 -3.78125 6.65625 -3.4375 C 6.863281 -3.101562 6.96875 -2.710938 6.96875 -2.265625 C 6.96875 -1.546875 6.6875 -0.96875 6.125 -0.53125 C 5.5625 -0.09375 4.804688 0.125 3.859375 0.125 C 3.242188 0.125 2.671875 0.0078125 2.140625 -0.21875 C 1.617188 -0.457031 1.210938 -0.78125 0.921875 -1.1875 C 0.628906 -1.601562 0.484375 -2.066406 0.484375 -2.578125 L 1.671875 -2.578125 C 1.671875 -2.046875 1.867188 -1.625 2.265625 -1.3125 C 2.660156 -1 3.191406 -0.84375 3.859375 -0.84375 C 4.484375 -0.84375 4.957031 -0.96875 5.28125 -1.21875 C 5.613281 -1.46875 5.78125 -1.8125 5.78125 -2.25 C 5.78125 -2.6875 5.625 -3.023438 5.3125 -3.265625 C 5.007812 -3.503906 4.457031 -3.738281 3.65625 -3.96875 Z M 3.65625 -3.96875 "/></g></g></g><g fill="#004aad" fill-opacity="1"><g transform="translate(298.870222, 256.027801)"><g><path d="M 2.296875 0 L 1.125 0 L 1.125 -8.90625 L 2.296875 -8.90625 Z M 2.296875 0 "/></g></g></g><g fill="#004aad" fill-opacity="1"><g transform="translate(306.616956, 256.027801)"><g><path d="M 7.890625 -4.171875 C 7.890625 -3.296875 7.738281 -2.53125 7.4375 -1.875 C 7.144531 -1.226562 6.726562 -0.734375 6.1875 -0.390625 C 5.65625 -0.046875 5.03125 0.125 4.3125 0.125 C 3.613281 0.125 2.992188 -0.046875 2.453125 -0.390625 C 1.910156 -0.734375 1.488281 -1.222656 1.1875 -1.859375 C 0.882812 -2.503906 0.726562 -3.25 0.71875 -4.09375 L 0.71875 -4.734375 C 0.71875 -5.585938 0.863281 -6.34375 1.15625 -7 C 1.457031 -7.65625 1.878906 -8.15625 2.421875 -8.5 C 2.972656 -8.851562 3.597656 -9.03125 4.296875 -9.03125 C 5.015625 -9.03125 5.644531 -8.859375 6.1875 -8.515625 C 6.726562 -8.171875 7.144531 -7.671875 7.4375 -7.015625 C 7.738281 -6.359375 7.890625 -5.597656 7.890625 -4.734375 Z M 6.71875 -4.734375 C 6.71875 -5.796875 6.503906 -6.609375 6.078125 -7.171875 C 5.660156 -7.734375 5.066406 -8.015625 4.296875 -8.015625 C 3.554688 -8.015625 2.972656 -7.734375 2.546875 -7.171875 C 2.117188 -6.609375 1.898438 -5.828125 1.890625 -4.828125 L 1.890625 -4.171875 C 1.890625 -3.140625 2.101562 -2.332031 2.53125 -1.75 C 2.96875 -1.164062 3.5625 -0.875 4.3125 -0.875 C 5.070312 -0.875 5.660156 -1.148438 6.078125 -1.703125 C 6.492188 -2.253906 6.707031 -3.046875 6.71875 -4.078125 Z M 6.71875 -4.734375 "/></g></g></g><g fill="#004aad" fill-opacity="1"><g transform="translate(319.572514, 256.027801)"><g><path d="M 7.875 0 L 6.703125 0 L 2.21875 -6.859375 L 2.21875 0 L 1.03125 0 L 1.03125 -8.90625 L 2.21875 -8.90625 L 6.71875 -2.015625 L 6.71875 -8.90625 L 7.875 -8.90625 Z M 7.875 0 "/></g></g></g></svg>