<svg xmlns="http://www.w3.org/2000/svg" xmlns:xlink="http://www.w3.org/1999/xlink" width="500" zoomAndPan="magnify" viewBox="0 0 375 112.499997" height="150" preserveAspectRatio="xMidYMid meet" version="1.0"><defs><g/><clipPath id="id1"><path d="M 266.289062 26 L 329.457031 26 L 329.457031 55 L 266.289062 55 Z M 266.289062 26 " clip-rule="nonzero"/></clipPath><clipPath id="id2"><path d="M 266.289062 50.375 L 295 50.375 L 295 79 L 266.289062 79 Z M 266.289062 50.375 " clip-rule="nonzero"/></clipPath><clipPath id="id3"><path d="M 303 51 L 331.382812 51 L 331.382812 79.304688 L 303 79.304688 Z M 303 51 " clip-rule="nonzero"/></clipPath></defs><g clip-path="url(#id1)"><path fill="#004aad" d="M 270.890625 26.019531 C 279.652344 26.019531 283.269531 26.257812 292.910156 40.84375 C 292.910156 40.84375 298.109375 47.898438 304.417969 47.539062 C 304.417969 47.539062 308.742188 48.492188 312.59375 39.410156 C 316.449219 30.324219 319.601562 25.300781 329.417969 26.617188 C 329.417969 26.617188 324.859375 30.679688 324.21875 32.414062 C 323.574219 34.148438 313.140625 47.0625 307.4375 47.957031 C 308.273438 48.195312 309.441406 48.492188 311.421875 48.136719 C 311.421875 48.136719 313.46875 48.257812 313.789062 49.273438 C 311.777344 49.09375 305.117188 51.125 303.714844 52.203125 C 302.316406 53.28125 297.511719 56.15625 293.664062 53.226562 C 294.484375 53.101562 299.097656 52.230469 301.230469 50.128906 C 297.640625 50.171875 291.6875 48.972656 287.242188 44.730469 C 282.808594 40.488281 272.058594 27.691406 266.332031 26.738281 L 270.890625 26.019531 " fill-opacity="1" fill-rule="nonzero"/></g><g clip-path="url(#id2)"><path fill="#004aad" d="M 278.710938 50.480469 C 278.3125 50.519531 277.914062 50.585938 277.519531 50.667969 C 277.386719 50.695312 277.238281 50.71875 277.105469 50.746094 C 276.882812 50.789062 276.65625 50.855469 276.433594 50.921875 C 275.675781 51.132812 274.921875 51.425781 274.207031 51.761719 C 274.191406 51.773438 274.179688 51.773438 274.152344 51.785156 C 273.929688 51.894531 273.714844 52 273.503906 52.121094 C 272.710938 52.558594 271.96875 53.09375 271.277344 53.664062 C 270.761719 54.09375 270.285156 54.570312 269.835938 55.066406 C 269.769531 55.144531 269.691406 55.226562 269.625 55.304688 C 269.199219 55.8125 268.800781 56.34375 268.457031 56.902344 C 268.179688 57.332031 267.941406 57.785156 267.714844 58.25 C 267.515625 58.664062 267.34375 59.074219 267.1875 59.503906 C 267.082031 59.808594 266.972656 60.117188 266.882812 60.421875 C 266.589844 61.394531 266.429688 62.394531 266.351562 63.40625 C 266.324219 63.671875 266.324219 63.925781 266.3125 64.191406 C 266.3125 64.21875 266.3125 64.234375 266.3125 64.261719 C 266.296875 65.097656 266.378906 65.9375 266.511719 66.765625 C 266.550781 67.046875 266.617188 67.339844 266.683594 67.617188 C 266.789062 68.070312 266.921875 68.511719 267.066406 68.949219 C 267.121094 69.109375 267.1875 69.269531 267.238281 69.429688 C 267.34375 69.683594 267.449219 69.949219 267.558594 70.191406 C 267.582031 70.257812 267.609375 70.324219 267.648438 70.390625 C 267.863281 70.84375 268.101562 71.296875 268.363281 71.722656 C 268.429688 71.828125 268.496094 71.921875 268.550781 72.027344 C 268.972656 72.683594 269.453125 73.296875 269.96875 73.855469 C 270.40625 74.335938 270.867188 74.773438 271.359375 75.1875 C 271.636719 75.425781 271.929688 75.640625 272.234375 75.855469 C 272.367188 75.945312 272.496094 76.039062 272.644531 76.132812 C 272.933594 76.332031 273.238281 76.507812 273.558594 76.679688 C 273.558594 76.679688 273.570312 76.679688 273.570312 76.691406 C 274.179688 77.027344 274.800781 77.304688 275.453125 77.546875 C 276.367188 77.890625 277.320312 78.117188 278.300781 78.253906 C 279.347656 78.398438 280.378906 78.425781 281.425781 78.332031 C 282.511719 78.238281 283.570312 78.011719 284.605469 77.679688 C 286.550781 77.039062 288.328125 75.945312 289.808594 74.535156 C 290.550781 73.839844 291.1875 73.042969 291.757812 72.214844 C 292.351562 71.347656 292.816406 70.402344 293.199219 69.429688 C 293.585938 68.457031 293.835938 67.429688 293.984375 66.390625 C 294.128906 65.3125 294.167969 64.234375 294.074219 63.140625 C 293.890625 61.0625 293.242188 59.035156 292.179688 57.238281 C 291.703125 56.382812 291.09375 55.585938 290.417969 54.851562 C 289.742188 54.117188 288.988281 53.480469 288.179688 52.894531 C 287.414062 52.347656 286.578125 51.878906 285.703125 51.507812 C 284.789062 51.121094 283.847656 50.8125 282.871094 50.628906 C 282.0625 50.46875 281.253906 50.386719 280.433594 50.375 C 280.40625 50.375 280.378906 50.375 280.339844 50.375 C 280.3125 50.375 280.300781 50.375 280.273438 50.375 C 279.757812 50.386719 279.238281 50.414062 278.710938 50.480469 Z M 281.863281 52.160156 C 282.933594 52.320312 283.980469 52.601562 284.976562 53.011719 C 285.957031 53.4375 286.871094 53.972656 287.71875 54.625 C 288.539062 55.277344 289.28125 56.023438 289.929688 56.851562 C 290.578125 57.703125 291.109375 58.621094 291.53125 59.609375 C 291.941406 60.621094 292.234375 61.675781 292.378906 62.765625 C 292.511719 63.859375 292.511719 64.964844 292.378906 66.070312 C 292.222656 67.152344 291.929688 68.203125 291.519531 69.21875 C 291.09375 70.191406 290.566406 71.109375 289.929688 71.949219 C 289.28125 72.773438 288.539062 73.523438 287.71875 74.175781 C 286.871094 74.8125 285.957031 75.359375 284.988281 75.785156 C 283.980469 76.199219 282.933594 76.492188 281.847656 76.640625 C 280.761719 76.773438 279.675781 76.773438 278.589844 76.640625 C 277.585938 76.492188 276.605469 76.226562 275.648438 75.855469 C 275.585938 75.828125 275.519531 75.800781 275.464844 75.773438 C 275.238281 75.679688 275.015625 75.574219 274.800781 75.453125 C 274.789062 75.441406 274.777344 75.441406 274.761719 75.425781 C 274.75 75.425781 274.75 75.414062 274.734375 75.414062 C 274.722656 75.414062 274.722656 75.402344 274.710938 75.402344 C 274.019531 75.039062 273.359375 74.628906 272.734375 74.148438 C 272.140625 73.667969 271.582031 73.148438 271.082031 72.574219 C 271.082031 72.574219 271.082031 72.574219 271.082031 72.5625 C 271.066406 72.546875 271.066406 72.546875 271.054688 72.535156 C 271.039062 72.523438 271.039062 72.523438 271.027344 72.507812 C 271.027344 72.507812 271.027344 72.496094 271.015625 72.496094 C 270.84375 72.308594 270.683594 72.109375 270.523438 71.910156 C 269.914062 71.097656 269.398438 70.214844 268.972656 69.285156 C 268.972656 69.285156 268.972656 69.269531 268.972656 69.269531 C 268.972656 69.269531 268.972656 69.257812 268.960938 69.257812 C 268.949219 69.230469 268.933594 69.191406 268.921875 69.164062 C 268.867188 69.042969 268.828125 68.9375 268.789062 68.816406 C 268.789062 68.804688 268.777344 68.789062 268.777344 68.777344 C 268.777344 68.777344 268.777344 68.777344 268.777344 68.765625 C 268.472656 67.953125 268.257812 67.125 268.113281 66.273438 C 268.113281 66.273438 268.113281 66.257812 268.113281 66.257812 C 268.113281 66.246094 268.113281 66.230469 268.113281 66.230469 C 268.113281 66.21875 268.113281 66.21875 268.113281 66.207031 C 268.113281 66.207031 268.113281 66.191406 268.113281 66.191406 C 268.101562 66.140625 268.101562 66.070312 268.085938 66.019531 C 267.953125 64.914062 267.953125 63.808594 268.085938 62.714844 C 268.179688 62.128906 268.296875 61.542969 268.457031 60.980469 C 268.457031 60.96875 268.472656 60.953125 268.472656 60.941406 C 268.472656 60.929688 268.472656 60.914062 268.484375 60.914062 C 268.484375 60.914062 268.484375 60.902344 268.484375 60.902344 C 268.617188 60.460938 268.761719 60.035156 268.933594 59.609375 C 269.359375 58.636719 269.886719 57.71875 270.539062 56.863281 C 270.75 56.585938 270.972656 56.332031 271.214844 56.0625 C 271.226562 56.050781 271.226562 56.039062 271.238281 56.039062 C 271.238281 56.039062 271.238281 56.023438 271.253906 56.023438 C 271.265625 56.011719 271.265625 56.011719 271.277344 55.996094 C 271.277344 55.996094 271.292969 55.984375 271.292969 55.984375 C 271.292969 55.984375 271.304688 55.972656 271.304688 55.972656 C 271.320312 55.957031 271.320312 55.957031 271.332031 55.945312 C 271.332031 55.945312 271.34375 55.929688 271.34375 55.929688 C 271.359375 55.917969 271.359375 55.917969 271.371094 55.90625 C 271.371094 55.90625 271.371094 55.90625 271.386719 55.890625 C 271.398438 55.878906 271.410156 55.863281 271.410156 55.863281 C 271.808594 55.453125 272.234375 55.066406 272.671875 54.707031 C 272.683594 54.691406 272.695312 54.679688 272.710938 54.679688 C 272.722656 54.664062 272.734375 54.664062 272.75 54.652344 C 273.597656 54.011719 274.511719 53.464844 275.476562 53.039062 C 275.597656 53 275.703125 52.945312 275.824219 52.90625 C 275.835938 52.90625 275.835938 52.90625 275.847656 52.894531 C 275.863281 52.894531 275.863281 52.894531 275.875 52.878906 C 276.617188 52.601562 277.371094 52.398438 278.140625 52.253906 C 278.140625 52.253906 278.152344 52.253906 278.152344 52.253906 C 278.152344 52.253906 278.152344 52.253906 278.167969 52.253906 C 278.3125 52.226562 278.445312 52.199219 278.589844 52.1875 C 278.75 52.160156 278.921875 52.148438 279.082031 52.132812 C 279.996094 52.027344 280.933594 52.039062 281.863281 52.160156 Z M 291.503906 69.269531 C 291.492188 69.296875 291.492188 69.308594 291.480469 69.335938 C 291.492188 69.308594 291.503906 69.285156 291.503906 69.269531 Z M 291.503906 69.269531 " fill-opacity="1" fill-rule="nonzero"/></g><g clip-path="url(#id3)"><path fill="#004aad" d="M 314.035156 51.535156 C 313.042969 51.773438 312.078125 52.160156 311.148438 52.613281 C 310.816406 52.773438 310.5 52.960938 310.183594 53.144531 C 310.117188 53.1875 310.035156 53.238281 309.96875 53.277344 C 309.414062 53.625 308.882812 54.027344 308.378906 54.453125 C 308.089844 54.707031 307.796875 54.972656 307.519531 55.25 C 306.832031 55.945312 306.207031 56.730469 305.679688 57.558594 C 305.414062 57.96875 305.175781 58.394531 304.949219 58.835938 C 304.910156 58.902344 304.882812 58.984375 304.84375 59.050781 C 304.660156 59.449219 304.488281 59.847656 304.328125 60.261719 C 304.328125 60.277344 304.328125 60.277344 304.3125 60.289062 C 303.957031 61.222656 303.730469 62.207031 303.597656 63.195312 C 303.453125 64.261719 303.425781 65.324219 303.519531 66.40625 C 303.703125 68.472656 304.355469 70.46875 305.386719 72.253906 C 305.890625 73.121094 306.5 73.921875 307.160156 74.652344 C 307.835938 75.402344 308.617188 76.054688 309.425781 76.640625 C 310.261719 77.238281 311.164062 77.707031 312.101562 78.105469 C 313.042969 78.492188 314.011719 78.773438 315.015625 78.945312 C 317.136719 79.304688 319.308594 79.171875 321.375 78.558594 C 323.386719 77.960938 325.230469 76.867188 326.792969 75.453125 C 328.289062 74.082031 329.453125 72.363281 330.234375 70.484375 C 331.03125 68.5625 331.375 66.457031 331.269531 64.367188 C 331.164062 62.273438 330.566406 60.234375 329.574219 58.394531 C 329.097656 57.515625 328.515625 56.703125 327.867188 55.945312 C 327.214844 55.171875 326.460938 54.503906 325.667969 53.890625 C 324.898438 53.304688 324.050781 52.8125 323.175781 52.398438 C 322.234375 51.972656 321.269531 51.640625 320.261719 51.425781 C 319.320312 51.226562 318.367188 51.132812 317.414062 51.132812 C 316.289062 51.132812 315.148438 51.265625 314.035156 51.535156 Z M 319.042969 52.894531 C 320.117188 53.050781 321.164062 53.332031 322.167969 53.746094 C 323.136719 54.171875 324.039062 54.707031 324.886719 55.332031 C 325.71875 55.984375 326.460938 56.742188 327.125 57.570312 C 327.757812 58.410156 328.289062 59.328125 328.714844 60.300781 C 329.125 61.316406 329.414062 62.382812 329.574219 63.460938 C 329.707031 64.566406 329.707031 65.671875 329.574219 66.765625 C 329.414062 67.84375 329.136719 68.898438 328.726562 69.910156 C 328.300781 70.882812 327.773438 71.800781 327.136719 72.65625 C 326.472656 73.496094 325.734375 74.242188 324.910156 74.894531 C 324.0625 75.535156 323.136719 76.082031 322.167969 76.507812 C 321.164062 76.917969 320.128906 77.199219 319.058594 77.359375 C 317.96875 77.492188 316.871094 77.492188 315.773438 77.359375 C 314.710938 77.199219 313.664062 76.917969 312.671875 76.507812 C 311.691406 76.082031 310.777344 75.546875 309.929688 74.894531 C 309.097656 74.226562 308.355469 73.480469 307.691406 72.640625 C 307.054688 71.789062 306.527344 70.882812 306.101562 69.898438 C 305.691406 68.882812 305.414062 67.832031 305.253906 66.75 C 305.121094 65.644531 305.121094 64.539062 305.253906 63.445312 C 305.398438 62.421875 305.664062 61.421875 306.050781 60.460938 C 306.050781 60.460938 306.050781 60.460938 306.050781 60.449219 C 306.050781 60.449219 306.050781 60.433594 306.050781 60.433594 C 306.0625 60.394531 306.074219 60.355469 306.101562 60.316406 C 306.183594 60.128906 306.261719 59.941406 306.355469 59.769531 C 306.355469 59.769531 306.355469 59.753906 306.355469 59.753906 C 306.355469 59.742188 306.367188 59.730469 306.367188 59.714844 C 306.738281 58.957031 307.175781 58.238281 307.691406 57.558594 C 308.339844 56.730469 309.097656 55.972656 309.917969 55.316406 C 309.945312 55.292969 309.96875 55.277344 309.996094 55.25 C 309.996094 55.25 310.011719 55.25 310.011719 55.238281 C 310.023438 55.238281 310.023438 55.226562 310.035156 55.226562 C 310.816406 54.652344 311.652344 54.160156 312.539062 53.757812 C 312.554688 53.757812 312.566406 53.746094 312.578125 53.746094 C 312.578125 53.746094 312.59375 53.746094 312.59375 53.730469 C 312.605469 53.730469 312.605469 53.71875 312.621094 53.71875 C 312.632812 53.71875 312.644531 53.707031 312.644531 53.707031 C 312.683594 53.691406 312.726562 53.679688 312.765625 53.652344 C 313.730469 53.265625 314.738281 53 315.773438 52.839844 C 316.859375 52.757812 317.957031 52.757812 319.042969 52.894531 Z M 319.042969 52.894531 " fill-opacity="1" fill-rule="nonzero"/></g><path fill="#004aad" d="M 298.328125 59.703125 C 297.875 59.730469 297.414062 59.796875 296.976562 59.914062 C 296.816406 59.957031 296.671875 59.996094 296.511719 60.050781 C 296.101562 60.183594 295.691406 60.382812 295.320312 60.59375 C 295.160156 60.6875 295.003906 60.796875 294.855469 60.902344 C 294.855469 60.902344 294.84375 60.914062 294.84375 60.914062 C 294.832031 60.929688 294.816406 60.941406 294.789062 60.953125 C 294.65625 61.0625 294.527344 61.15625 294.394531 61.273438 C 293.917969 61.660156 293.53125 62.128906 293.175781 62.621094 C 292.949219 62.953125 292.75 63.300781 292.589844 63.671875 C 292.589844 63.671875 292.589844 63.6875 292.578125 63.6875 C 292.578125 63.6875 292.578125 63.699219 292.578125 63.699219 C 292.578125 63.714844 292.566406 63.726562 292.566406 63.726562 C 292.527344 63.792969 292.5 63.859375 292.484375 63.925781 C 292.484375 63.941406 292.472656 63.941406 292.472656 63.953125 C 292.394531 64.152344 292.460938 64.417969 292.550781 64.59375 C 292.65625 64.78125 292.84375 64.914062 293.042969 64.980469 C 293.253906 65.03125 293.492188 65.007812 293.679688 64.898438 C 293.730469 64.859375 293.785156 64.804688 293.851562 64.765625 C 293.941406 64.660156 294.023438 64.554688 294.0625 64.417969 C 294.234375 64.035156 294.445312 63.671875 294.699219 63.328125 C 294.960938 62.992188 295.265625 62.6875 295.597656 62.421875 C 295.941406 62.167969 296.3125 61.953125 296.699219 61.769531 C 297.109375 61.609375 297.519531 61.488281 297.957031 61.421875 C 298.40625 61.367188 298.84375 61.367188 299.292969 61.421875 C 299.558594 61.460938 299.824219 61.527344 300.074219 61.609375 C 300.089844 61.609375 300.089844 61.609375 300.101562 61.609375 C 300.101562 61.609375 300.117188 61.609375 300.117188 61.609375 C 300.261719 61.648438 300.417969 61.703125 300.566406 61.769531 C 300.964844 61.941406 301.332031 62.167969 301.679688 62.421875 C 301.703125 62.449219 301.746094 62.472656 301.769531 62.5 C 302.0625 62.753906 302.328125 63.019531 302.566406 63.3125 C 302.777344 63.605469 302.976562 63.925781 303.136719 64.246094 C 303.136719 64.246094 303.136719 64.261719 303.148438 64.261719 C 303.175781 64.3125 303.203125 64.367188 303.226562 64.433594 C 303.335938 64.714844 303.425781 64.980469 303.492188 65.273438 C 303.53125 65.417969 303.558594 65.566406 303.585938 65.726562 C 303.597656 65.84375 303.613281 65.980469 303.613281 66.097656 C 303.613281 66.097656 303.613281 66.113281 303.613281 66.113281 C 303.613281 66.125 303.613281 66.140625 303.613281 66.152344 C 303.613281 66.152344 303.613281 66.164062 303.613281 66.164062 C 303.613281 66.179688 303.613281 66.191406 303.613281 66.207031 C 303.613281 66.207031 303.613281 66.21875 303.613281 66.21875 C 303.613281 66.230469 303.613281 66.246094 303.613281 66.257812 C 303.613281 66.257812 303.613281 66.273438 303.613281 66.273438 C 303.613281 66.285156 303.613281 66.296875 303.613281 66.3125 C 303.613281 66.3125 303.613281 66.3125 303.613281 66.324219 C 303.613281 66.339844 303.613281 66.351562 303.613281 66.378906 C 303.613281 66.390625 303.613281 66.417969 303.613281 66.433594 C 303.613281 66.886719 303.996094 67.273438 304.445312 67.273438 C 304.898438 67.273438 305.269531 66.898438 305.28125 66.433594 C 305.28125 65.792969 305.203125 65.140625 305.015625 64.511719 C 305.015625 64.511719 305.015625 64.5 305.015625 64.5 C 304.976562 64.367188 304.9375 64.21875 304.882812 64.085938 C 304.777344 63.808594 304.660156 63.527344 304.511719 63.273438 C 304.40625 63.074219 304.289062 62.859375 304.15625 62.675781 C 303.957031 62.382812 303.730469 62.085938 303.480469 61.835938 C 303.453125 61.808594 303.425781 61.769531 303.398438 61.742188 C 303.320312 61.660156 303.242188 61.582031 303.148438 61.5 C 302.882812 61.25 302.59375 61.023438 302.289062 60.820312 C 302.089844 60.6875 301.890625 60.570312 301.679688 60.476562 C 301.585938 60.421875 301.492188 60.382812 301.386719 60.34375 C 301.347656 60.328125 301.308594 60.300781 301.269531 60.289062 C 300.921875 60.140625 300.566406 60.023438 300.195312 59.929688 C 300.074219 59.902344 299.957031 59.875 299.824219 59.847656 C 299.546875 59.796875 299.253906 59.769531 298.960938 59.753906 C 298.949219 59.753906 298.921875 59.753906 298.910156 59.753906 C 298.832031 59.753906 298.738281 59.753906 298.660156 59.753906 C 298.539062 59.6875 298.433594 59.6875 298.328125 59.703125 Z M 298.328125 59.703125 " fill-opacity="1" fill-rule="nonzero"/><g fill="#004aad" fill-opacity="1"><g transform="translate(16.291445, 77.424605)"><g><path d="M 2.710938 0 L 10.105469 0 L 10.105469 -7.617188 L 18.671875 -7.617188 L 18.671875 -14.023438 L 10.105469 -14.023438 L 10.105469 -19.039062 L 19.625 -19.039062 L 19.625 -25.628906 L 2.710938 -25.628906 Z M 2.710938 0 "/></g></g></g><g fill="#004aad" fill-opacity="1"><g transform="translate(37.306816, 77.424605)"><g><path d="M 2.710938 0 L 10.105469 0 L 10.105469 -7.285156 L 12.886719 -7.285156 L 16.550781 0 L 24.933594 0 L 20.210938 -8.640625 C 22.921875 -10.140625 24.457031 -12.851562 24.457031 -16.441406 C 24.457031 -22.113281 20.613281 -25.628906 14.390625 -25.628906 L 2.710938 -25.628906 Z M 9.960938 -13.179688 L 9.960938 -19.589844 L 13.402344 -19.589844 C 15.746094 -19.589844 17.027344 -18.453125 17.027344 -16.402344 C 17.027344 -14.351562 15.746094 -13.179688 13.402344 -13.179688 Z M 9.960938 -13.179688 "/></g></g></g><g fill="#004aad" fill-opacity="1"><g transform="translate(63.667566, 77.424605)"><g><path d="M 2.710938 0 L 20.6875 0 L 20.6875 -6.042969 L 10.03125 -6.042969 L 10.03125 -9.996094 L 19.296875 -9.996094 L 19.296875 -15.925781 L 10.03125 -15.925781 L 10.03125 -19.660156 L 20.285156 -19.660156 L 20.285156 -25.628906 L 2.710938 -25.628906 Z M 2.710938 0 "/></g></g></g><g fill="#004aad" fill-opacity="1"><g transform="translate(86.000972, 77.424605)"><g><path d="M 2.710938 0 L 20.6875 0 L 20.6875 -6.042969 L 10.03125 -6.042969 L 10.03125 -9.996094 L 19.296875 -9.996094 L 19.296875 -15.925781 L 10.03125 -15.925781 L 10.03125 -19.660156 L 20.285156 -19.660156 L 20.285156 -25.628906 L 2.710938 -25.628906 Z M 2.710938 0 "/></g></g></g><g fill="#004aad" fill-opacity="1"><g transform="translate(108.334378, 77.424605)"><g><path d="M 2.710938 0 L 20.578125 0 L 20.578125 -6.847656 L 10.105469 -6.847656 L 10.105469 -25.628906 L 2.710938 -25.628906 Z M 2.710938 0 "/></g></g></g><g fill="#004aad" fill-opacity="1"><g transform="translate(129.825714, 77.424605)"><g><path d="M 0.183594 0 L 8.019531 0 L 9.410156 -3.625 L 18.160156 -3.625 L 19.550781 0 L 27.425781 0 L 17.464844 -25.628906 L 10.140625 -25.628906 Z M 10.949219 -9.042969 L 13.804688 -16.988281 L 16.660156 -9.042969 Z M 10.949219 -9.042969 "/></g></g></g><g fill="#004aad" fill-opacity="1"><g transform="translate(157.431273, 77.424605)"><g><path d="M 2.710938 0 L 10.03125 0 L 10.03125 -13.070312 L 19.773438 0 L 25.777344 0 L 25.777344 -25.628906 L 18.492188 -25.628906 L 18.492188 -12.632812 L 8.75 -25.628906 L 2.710938 -25.628906 Z M 2.710938 0 "/></g></g></g><g fill="#004aad" fill-opacity="1"><g transform="translate(185.952142, 77.424605)"><g><path d="M 14.683594 0.550781 C 21.75 0.550781 27.09375 -3.734375 28.191406 -10.253906 L 20.6875 -10.253906 C 19.773438 -7.835938 17.613281 -6.296875 14.828125 -6.296875 C 11.242188 -6.296875 8.75 -8.96875 8.75 -12.816406 C 8.75 -16.695312 11.277344 -19.332031 14.902344 -19.332031 C 17.574219 -19.332031 19.808594 -17.832031 20.578125 -15.523438 L 28.046875 -15.523438 C 26.730469 -22.003906 21.457031 -26.179688 14.609375 -26.179688 C 6.699219 -26.179688 1.246094 -20.722656 1.246094 -12.816406 C 1.246094 -4.90625 6.699219 0.550781 14.683594 0.550781 Z M 14.683594 0.550781 "/></g></g></g><g fill="#004aad" fill-opacity="1"><g transform="translate(215.31508, 77.424605)"><g><path d="M 2.710938 0 L 20.6875 0 L 20.6875 -6.042969 L 10.03125 -6.042969 L 10.03125 -9.996094 L 19.296875 -9.996094 L 19.296875 -15.925781 L 10.03125 -15.925781 L 10.03125 -19.660156 L 20.285156 -19.660156 L 20.285156 -25.628906 L 2.710938 -25.628906 Z M 2.710938 0 "/></g></g></g><g fill="#004aad" fill-opacity="1"><g transform="translate(237.648486, 77.424605)"><g><path d="M 2.710938 0 L 15.855469 0 C 21.054688 0 24.679688 -2.929688 24.679688 -7.140625 C 24.679688 -9.847656 23.214844 -12.046875 20.796875 -13.109375 C 22.773438 -14.242188 23.910156 -16.292969 23.910156 -18.746094 C 23.910156 -22.957031 20.539062 -25.628906 15.195312 -25.628906 L 2.710938 -25.628906 Z M 9.960938 -5.492188 L 9.960938 -10.289062 L 14.425781 -10.289062 C 16.183594 -10.289062 17.171875 -9.410156 17.171875 -7.910156 C 17.171875 -6.371094 16.183594 -5.492188 14.425781 -5.492188 Z M 9.960938 -15.5625 L 9.960938 -20.175781 L 13.804688 -20.175781 C 15.523438 -20.175781 16.476562 -19.332031 16.476562 -17.867188 C 16.476562 -16.367188 15.523438 -15.5625 13.804688 -15.5625 Z M 9.960938 -15.5625 "/></g></g></g><g fill="#004aad" fill-opacity="1"><g transform="translate(263.379299, 77.424605)"><g/></g></g><g fill="#004aad" fill-opacity="1"><g transform="translate(271.836699, 77.424605)"><g/></g></g><g fill="#004aad" fill-opacity="1"><g transform="translate(280.294099, 77.424605)"><g/></g></g><g fill="#004aad" fill-opacity="1"><g transform="translate(288.751499, 77.424605)"><g/></g></g><g fill="#004aad" fill-opacity="1"><g transform="translate(297.208899, 77.424605)"><g/></g></g><g fill="#004aad" fill-opacity="1"><g transform="translate(305.666298, 77.424605)"><g/></g></g><g fill="#004aad" fill-opacity="1"><g transform="translate(314.123698, 77.424605)"><g/></g></g><g fill="#004aad" fill-opacity="1"><g transform="translate(322.581098, 77.424605)"><g/></g></g><g fill="#004aad" fill-opacity="1"><g transform="translate(331.02902, 77.424605)"><g><path d="M 2.710938 0 L 10.105469 0 L 10.105469 -9.703125 L 13.328125 -9.703125 L 18.234375 0 L 26.800781 0 L 20.066406 -12.449219 C 20.832031 -13.363281 21.53125 -14.574219 22.113281 -16.074219 L 25.921875 -25.628906 L 17.90625 -25.628906 L 15.597656 -19.222656 C 14.828125 -16.988281 13.988281 -16.441406 11.351562 -16.441406 L 10.105469 -16.441406 L 10.105469 -25.628906 L 2.710938 -25.628906 Z M 2.710938 0 "/></g></g></g></svg>