<svg xmlns="http://www.w3.org/2000/svg" xmlns:xlink="http://www.w3.org/1999/xlink" width="500" zoomAndPan="magnify" viewBox="0 0 375 112.499997" height="150" preserveAspectRatio="xMidYMid meet" version="1.0"><defs><g/><clipPath id="id1"><path d="M 266.289062 20.183594 L 329.457031 20.183594 L 329.457031 50 L 266.289062 50 Z M 266.289062 20.183594 " clip-rule="nonzero"/></clipPath><clipPath id="id2"><path d="M 266.289062 45.253906 L 295 45.253906 L 295 74 L 266.289062 74 Z M 266.289062 45.253906 " clip-rule="nonzero"/></clipPath><clipPath id="id3"><path d="M 303 46 L 331.382812 46 L 331.382812 74.183594 L 303 74.183594 Z M 303 46 " clip-rule="nonzero"/></clipPath></defs><g clip-path="url(#id1)"><path fill="#004aad" d="M 270.890625 20.898438 C 279.652344 20.898438 283.269531 21.136719 292.910156 35.722656 C 292.910156 35.722656 298.109375 42.777344 304.417969 42.417969 C 304.417969 42.417969 308.742188 43.371094 312.59375 34.289062 C 316.449219 25.203125 319.601562 20.179688 329.417969 21.496094 C 329.417969 21.496094 324.859375 25.558594 324.21875 27.292969 C 323.574219 29.027344 313.140625 41.941406 307.4375 42.835938 C 308.273438 43.074219 309.441406 43.371094 311.421875 43.011719 C 311.421875 43.011719 313.46875 43.136719 313.789062 44.148438 C 311.777344 43.972656 305.117188 46.003906 303.714844 47.082031 C 302.316406 48.160156 297.511719 51.035156 293.664062 48.101562 C 294.484375 47.980469 299.097656 47.109375 301.230469 45.007812 C 297.640625 45.050781 291.6875 43.851562 287.242188 39.609375 C 282.808594 35.363281 272.058594 22.570312 266.332031 21.613281 L 270.890625 20.898438 " fill-opacity="1" fill-rule="nonzero"/></g><g clip-path="url(#id2)"><path fill="#004aad" d="M 278.710938 45.359375 C 278.3125 45.398438 277.914062 45.464844 277.519531 45.546875 C 277.386719 45.574219 277.238281 45.597656 277.105469 45.625 C 276.882812 45.664062 276.65625 45.730469 276.433594 45.800781 C 275.675781 46.011719 274.921875 46.304688 274.207031 46.636719 C 274.191406 46.652344 274.179688 46.652344 274.152344 46.664062 C 273.929688 46.773438 273.714844 46.878906 273.503906 47 C 272.710938 47.4375 271.96875 47.972656 271.277344 48.542969 C 270.761719 48.96875 270.285156 49.449219 269.835938 49.941406 C 269.769531 50.023438 269.691406 50.101562 269.625 50.183594 C 269.199219 50.691406 268.800781 51.222656 268.457031 51.78125 C 268.179688 52.207031 267.941406 52.660156 267.714844 53.128906 C 267.515625 53.542969 267.34375 53.953125 267.1875 54.378906 C 267.082031 54.6875 266.972656 54.992188 266.882812 55.300781 C 266.589844 56.273438 266.429688 57.273438 266.351562 58.285156 C 266.324219 58.550781 266.324219 58.804688 266.3125 59.070312 C 266.3125 59.097656 266.3125 59.113281 266.3125 59.136719 C 266.296875 59.976562 266.378906 60.816406 266.511719 61.644531 C 266.550781 61.921875 266.617188 62.214844 266.683594 62.496094 C 266.789062 62.949219 266.921875 63.390625 267.066406 63.828125 C 267.121094 63.988281 267.1875 64.148438 267.238281 64.308594 C 267.34375 64.5625 267.449219 64.828125 267.558594 65.066406 C 267.582031 65.136719 267.609375 65.203125 267.648438 65.269531 C 267.863281 65.722656 268.101562 66.175781 268.363281 66.601562 C 268.429688 66.707031 268.496094 66.800781 268.550781 66.90625 C 268.972656 67.558594 269.453125 68.171875 269.96875 68.734375 C 270.40625 69.210938 270.867188 69.652344 271.359375 70.066406 C 271.636719 70.304688 271.929688 70.519531 272.234375 70.730469 C 272.367188 70.824219 272.496094 70.917969 272.644531 71.011719 C 272.933594 71.210938 273.238281 71.386719 273.558594 71.558594 C 273.558594 71.558594 273.570312 71.558594 273.570312 71.570312 C 274.179688 71.90625 274.800781 72.183594 275.453125 72.425781 C 276.367188 72.769531 277.320312 72.996094 278.300781 73.128906 C 279.347656 73.277344 280.378906 73.304688 281.425781 73.210938 C 282.511719 73.117188 283.570312 72.890625 284.605469 72.558594 C 286.550781 71.917969 288.328125 70.824219 289.808594 69.414062 C 290.550781 68.71875 291.1875 67.921875 291.757812 67.09375 C 292.351562 66.226562 292.816406 65.28125 293.199219 64.308594 C 293.585938 63.335938 293.835938 62.308594 293.984375 61.269531 C 294.128906 60.191406 294.167969 59.113281 294.074219 58.019531 C 293.890625 55.941406 293.242188 53.914062 292.179688 52.117188 C 291.703125 51.261719 291.09375 50.464844 290.417969 49.730469 C 289.742188 48.996094 288.988281 48.359375 288.179688 47.769531 C 287.414062 47.226562 286.578125 46.757812 285.703125 46.386719 C 284.789062 46 283.847656 45.691406 282.871094 45.503906 C 282.0625 45.347656 281.253906 45.265625 280.433594 45.253906 C 280.40625 45.253906 280.378906 45.253906 280.339844 45.253906 C 280.3125 45.253906 280.300781 45.253906 280.273438 45.253906 C 279.757812 45.265625 279.238281 45.292969 278.710938 45.359375 Z M 281.863281 47.039062 C 282.933594 47.199219 283.980469 47.476562 284.976562 47.890625 C 285.957031 48.316406 286.871094 48.851562 287.71875 49.503906 C 288.539062 50.15625 289.28125 50.902344 289.929688 51.730469 C 290.578125 52.582031 291.109375 53.5 291.53125 54.488281 C 291.941406 55.5 292.234375 56.554688 292.378906 57.644531 C 292.511719 58.738281 292.511719 59.84375 292.378906 60.949219 C 292.222656 62.03125 291.929688 63.082031 291.519531 64.09375 C 291.09375 65.066406 290.566406 65.988281 289.929688 66.828125 C 289.28125 67.652344 288.539062 68.398438 287.71875 69.054688 C 286.871094 69.691406 285.957031 70.238281 284.988281 70.664062 C 283.980469 71.078125 282.933594 71.371094 281.847656 71.519531 C 280.761719 71.652344 279.675781 71.652344 278.589844 71.519531 C 277.585938 71.371094 276.605469 71.105469 275.648438 70.730469 C 275.585938 70.707031 275.519531 70.679688 275.464844 70.652344 C 275.238281 70.558594 275.015625 70.453125 274.800781 70.332031 C 274.789062 70.320312 274.777344 70.320312 274.761719 70.304688 C 274.75 70.304688 274.75 70.292969 274.734375 70.292969 C 274.722656 70.292969 274.722656 70.277344 274.710938 70.277344 C 274.019531 69.917969 273.359375 69.507812 272.734375 69.027344 C 272.140625 68.546875 271.582031 68.027344 271.082031 67.453125 C 271.082031 67.453125 271.082031 67.453125 271.082031 67.441406 C 271.066406 67.425781 271.066406 67.425781 271.054688 67.414062 C 271.039062 67.398438 271.039062 67.398438 271.027344 67.386719 C 271.027344 67.386719 271.027344 67.375 271.015625 67.375 C 270.84375 67.1875 270.683594 66.988281 270.523438 66.789062 C 269.914062 65.972656 269.398438 65.09375 268.972656 64.164062 C 268.972656 64.164062 268.972656 64.148438 268.972656 64.148438 C 268.972656 64.148438 268.972656 64.136719 268.960938 64.136719 C 268.949219 64.109375 268.933594 64.070312 268.921875 64.042969 C 268.867188 63.921875 268.828125 63.816406 268.789062 63.695312 C 268.789062 63.683594 268.777344 63.667969 268.777344 63.65625 C 268.777344 63.65625 268.777344 63.65625 268.777344 63.640625 C 268.472656 62.828125 268.257812 62.003906 268.113281 61.152344 C 268.113281 61.152344 268.113281 61.136719 268.113281 61.136719 C 268.113281 61.125 268.113281 61.109375 268.113281 61.109375 C 268.113281 61.097656 268.113281 61.097656 268.113281 61.082031 C 268.113281 61.082031 268.113281 61.070312 268.113281 61.070312 C 268.101562 61.015625 268.101562 60.949219 268.085938 60.898438 C 267.953125 59.792969 267.953125 58.683594 268.085938 57.59375 C 268.179688 57.007812 268.296875 56.417969 268.457031 55.859375 C 268.457031 55.847656 268.472656 55.832031 268.472656 55.820312 C 268.472656 55.808594 268.472656 55.792969 268.484375 55.792969 C 268.484375 55.792969 268.484375 55.78125 268.484375 55.78125 C 268.617188 55.339844 268.761719 54.914062 268.933594 54.488281 C 269.359375 53.515625 269.886719 52.59375 270.539062 51.742188 C 270.75 51.460938 270.972656 51.210938 271.214844 50.941406 C 271.226562 50.929688 271.226562 50.917969 271.238281 50.917969 C 271.238281 50.917969 271.238281 50.902344 271.253906 50.902344 C 271.265625 50.890625 271.265625 50.890625 271.277344 50.875 C 271.277344 50.875 271.292969 50.863281 271.292969 50.863281 C 271.292969 50.863281 271.304688 50.847656 271.304688 50.847656 C 271.320312 50.835938 271.320312 50.835938 271.332031 50.824219 C 271.332031 50.824219 271.34375 50.808594 271.34375 50.808594 C 271.359375 50.796875 271.359375 50.796875 271.371094 50.78125 C 271.371094 50.78125 271.371094 50.78125 271.386719 50.769531 C 271.398438 50.757812 271.410156 50.742188 271.410156 50.742188 C 271.808594 50.328125 272.234375 49.941406 272.671875 49.582031 C 272.683594 49.570312 272.695312 49.558594 272.710938 49.558594 C 272.722656 49.542969 272.734375 49.542969 272.75 49.53125 C 273.597656 48.890625 274.511719 48.34375 275.476562 47.917969 C 275.597656 47.878906 275.703125 47.824219 275.824219 47.785156 C 275.835938 47.785156 275.835938 47.785156 275.847656 47.769531 C 275.863281 47.769531 275.863281 47.769531 275.875 47.757812 C 276.617188 47.476562 277.371094 47.277344 278.140625 47.132812 C 278.140625 47.132812 278.152344 47.132812 278.152344 47.132812 C 278.152344 47.132812 278.152344 47.132812 278.167969 47.132812 C 278.3125 47.105469 278.445312 47.078125 278.589844 47.066406 C 278.75 47.039062 278.921875 47.023438 279.082031 47.011719 C 279.996094 46.90625 280.933594 46.917969 281.863281 47.039062 Z M 291.503906 64.148438 C 291.492188 64.175781 291.492188 64.1875 291.480469 64.214844 C 291.492188 64.1875 291.503906 64.164062 291.503906 64.148438 Z M 291.503906 64.148438 " fill-opacity="1" fill-rule="nonzero"/></g><g clip-path="url(#id3)"><path fill="#004aad" d="M 314.035156 46.410156 C 313.042969 46.652344 312.078125 47.039062 311.148438 47.492188 C 310.816406 47.652344 310.5 47.835938 310.183594 48.023438 C 310.117188 48.0625 310.035156 48.117188 309.96875 48.15625 C 309.414062 48.503906 308.882812 48.902344 308.378906 49.332031 C 308.089844 49.582031 307.796875 49.851562 307.519531 50.128906 C 306.832031 50.824219 306.207031 51.609375 305.679688 52.433594 C 305.414062 52.847656 305.175781 53.273438 304.949219 53.714844 C 304.910156 53.78125 304.882812 53.859375 304.84375 53.929688 C 304.660156 54.328125 304.488281 54.726562 304.328125 55.140625 C 304.328125 55.152344 304.328125 55.152344 304.3125 55.167969 C 303.957031 56.101562 303.730469 57.085938 303.597656 58.070312 C 303.453125 59.136719 303.425781 60.203125 303.519531 61.285156 C 303.703125 63.347656 304.355469 65.347656 305.386719 67.132812 C 305.890625 68 306.5 68.800781 307.160156 69.53125 C 307.835938 70.277344 308.617188 70.933594 309.425781 71.519531 C 310.261719 72.117188 311.164062 72.585938 312.101562 72.984375 C 313.042969 73.371094 314.011719 73.648438 315.015625 73.824219 C 317.136719 74.183594 319.308594 74.050781 321.375 73.4375 C 323.386719 72.835938 325.230469 71.746094 326.792969 70.332031 C 328.289062 68.960938 329.453125 67.242188 330.234375 65.363281 C 331.03125 63.441406 331.375 61.335938 331.269531 59.246094 C 331.164062 57.152344 330.566406 55.113281 329.574219 53.273438 C 329.097656 52.394531 328.515625 51.582031 327.867188 50.824219 C 327.214844 50.050781 326.460938 49.382812 325.667969 48.769531 C 324.898438 48.183594 324.050781 47.691406 323.175781 47.277344 C 322.234375 46.851562 321.269531 46.519531 320.261719 46.304688 C 319.320312 46.105469 318.367188 46.011719 317.414062 46.011719 C 316.289062 46.011719 315.148438 46.144531 314.035156 46.410156 Z M 319.042969 47.769531 C 320.117188 47.929688 321.164062 48.210938 322.167969 48.625 C 323.136719 49.050781 324.039062 49.582031 324.886719 50.210938 C 325.71875 50.863281 326.460938 51.621094 327.125 52.449219 C 327.757812 53.289062 328.289062 54.207031 328.714844 55.179688 C 329.125 56.191406 329.414062 57.257812 329.574219 58.339844 C 329.707031 59.445312 329.707031 60.550781 329.574219 61.644531 C 329.414062 62.722656 329.136719 63.777344 328.726562 64.789062 C 328.300781 65.761719 327.773438 66.679688 327.136719 67.535156 C 326.472656 68.375 325.734375 69.121094 324.910156 69.773438 C 324.0625 70.410156 323.136719 70.957031 322.167969 71.386719 C 321.164062 71.796875 320.128906 72.078125 319.058594 72.238281 C 317.96875 72.371094 316.871094 72.371094 315.773438 72.238281 C 314.710938 72.078125 313.664062 71.796875 312.671875 71.386719 C 311.691406 70.957031 310.777344 70.425781 309.929688 69.773438 C 309.097656 69.105469 308.355469 68.359375 307.691406 67.519531 C 307.054688 66.667969 306.527344 65.761719 306.101562 64.773438 C 305.691406 63.761719 305.414062 62.710938 305.253906 61.628906 C 305.121094 60.523438 305.121094 59.417969 305.253906 58.324219 C 305.398438 57.300781 305.664062 56.300781 306.050781 55.339844 C 306.050781 55.339844 306.050781 55.339844 306.050781 55.328125 C 306.050781 55.328125 306.050781 55.3125 306.050781 55.3125 C 306.0625 55.273438 306.074219 55.234375 306.101562 55.195312 C 306.183594 55.007812 306.261719 54.820312 306.355469 54.648438 C 306.355469 54.648438 306.355469 54.632812 306.355469 54.632812 C 306.355469 54.621094 306.367188 54.605469 306.367188 54.59375 C 306.738281 53.835938 307.175781 53.113281 307.691406 52.433594 C 308.339844 51.609375 309.097656 50.847656 309.917969 50.195312 C 309.945312 50.167969 309.96875 50.15625 309.996094 50.128906 C 309.996094 50.128906 310.011719 50.128906 310.011719 50.117188 C 310.023438 50.117188 310.023438 50.101562 310.035156 50.101562 C 310.816406 49.53125 311.652344 49.035156 312.539062 48.636719 C 312.554688 48.636719 312.566406 48.625 312.578125 48.625 C 312.578125 48.625 312.59375 48.625 312.59375 48.609375 C 312.605469 48.609375 312.605469 48.597656 312.621094 48.597656 C 312.632812 48.597656 312.644531 48.585938 312.644531 48.585938 C 312.683594 48.570312 312.726562 48.558594 312.765625 48.53125 C 313.730469 48.144531 314.738281 47.878906 315.773438 47.71875 C 316.859375 47.636719 317.957031 47.636719 319.042969 47.769531 Z M 319.042969 47.769531 " fill-opacity="1" fill-rule="nonzero"/></g><path fill="#004aad" d="M 298.328125 54.582031 C 297.875 54.605469 297.414062 54.675781 296.976562 54.792969 C 296.816406 54.832031 296.671875 54.875 296.511719 54.925781 C 296.101562 55.058594 295.691406 55.261719 295.320312 55.472656 C 295.160156 55.566406 295.003906 55.671875 294.855469 55.78125 C 294.855469 55.78125 294.84375 55.792969 294.84375 55.792969 C 294.832031 55.808594 294.816406 55.820312 294.789062 55.832031 C 294.65625 55.941406 294.527344 56.035156 294.394531 56.152344 C 293.917969 56.539062 293.53125 57.007812 293.175781 57.5 C 292.949219 57.832031 292.75 58.179688 292.589844 58.550781 C 292.589844 58.550781 292.589844 58.566406 292.578125 58.566406 C 292.578125 58.566406 292.578125 58.578125 292.578125 58.578125 C 292.578125 58.59375 292.566406 58.605469 292.566406 58.605469 C 292.527344 58.671875 292.5 58.738281 292.484375 58.804688 C 292.484375 58.820312 292.472656 58.820312 292.472656 58.832031 C 292.394531 59.03125 292.460938 59.296875 292.550781 59.472656 C 292.65625 59.65625 292.84375 59.792969 293.042969 59.859375 C 293.253906 59.910156 293.492188 59.882812 293.679688 59.777344 C 293.730469 59.738281 293.785156 59.683594 293.851562 59.644531 C 293.941406 59.539062 294.023438 59.429688 294.0625 59.296875 C 294.234375 58.910156 294.445312 58.550781 294.699219 58.207031 C 294.960938 57.871094 295.265625 57.566406 295.597656 57.300781 C 295.941406 57.046875 296.3125 56.832031 296.699219 56.644531 C 297.109375 56.488281 297.519531 56.367188 297.957031 56.300781 C 298.40625 56.246094 298.84375 56.246094 299.292969 56.300781 C 299.558594 56.339844 299.824219 56.40625 300.074219 56.488281 C 300.089844 56.488281 300.089844 56.488281 300.101562 56.488281 C 300.101562 56.488281 300.117188 56.488281 300.117188 56.488281 C 300.261719 56.527344 300.417969 56.578125 300.566406 56.644531 C 300.964844 56.820312 301.332031 57.046875 301.679688 57.300781 C 301.703125 57.324219 301.746094 57.351562 301.769531 57.378906 C 302.0625 57.632812 302.328125 57.898438 302.566406 58.191406 C 302.777344 58.484375 302.976562 58.804688 303.136719 59.125 C 303.136719 59.125 303.136719 59.136719 303.148438 59.136719 C 303.175781 59.191406 303.203125 59.246094 303.226562 59.3125 C 303.335938 59.589844 303.425781 59.859375 303.492188 60.152344 C 303.53125 60.296875 303.558594 60.445312 303.585938 60.605469 C 303.597656 60.722656 303.613281 60.855469 303.613281 60.976562 C 303.613281 60.976562 303.613281 60.992188 303.613281 60.992188 C 303.613281 61.003906 303.613281 61.015625 303.613281 61.03125 C 303.613281 61.03125 303.613281 61.042969 303.613281 61.042969 C 303.613281 61.058594 303.613281 61.070312 303.613281 61.082031 C 303.613281 61.082031 303.613281 61.097656 303.613281 61.097656 C 303.613281 61.109375 303.613281 61.125 303.613281 61.136719 C 303.613281 61.136719 303.613281 61.152344 303.613281 61.152344 C 303.613281 61.164062 303.613281 61.175781 303.613281 61.191406 C 303.613281 61.191406 303.613281 61.191406 303.613281 61.203125 C 303.613281 61.21875 303.613281 61.230469 303.613281 61.257812 C 303.613281 61.269531 303.613281 61.296875 303.613281 61.308594 C 303.613281 61.761719 303.996094 62.148438 304.445312 62.148438 C 304.898438 62.148438 305.269531 61.777344 305.28125 61.308594 C 305.28125 60.671875 305.203125 60.019531 305.015625 59.390625 C 305.015625 59.390625 305.015625 59.378906 305.015625 59.378906 C 304.976562 59.246094 304.9375 59.097656 304.882812 58.964844 C 304.777344 58.683594 304.660156 58.40625 304.511719 58.152344 C 304.40625 57.953125 304.289062 57.738281 304.15625 57.550781 C 303.957031 57.257812 303.730469 56.964844 303.480469 56.710938 C 303.453125 56.6875 303.425781 56.644531 303.398438 56.621094 C 303.320312 56.539062 303.242188 56.460938 303.148438 56.378906 C 302.882812 56.125 302.59375 55.898438 302.289062 55.699219 C 302.089844 55.566406 301.890625 55.445312 301.679688 55.355469 C 301.585938 55.300781 301.492188 55.261719 301.386719 55.21875 C 301.347656 55.207031 301.308594 55.179688 301.269531 55.167969 C 300.921875 55.019531 300.566406 54.902344 300.195312 54.808594 C 300.074219 54.78125 299.957031 54.753906 299.824219 54.726562 C 299.546875 54.675781 299.253906 54.648438 298.960938 54.632812 C 298.949219 54.632812 298.921875 54.632812 298.910156 54.632812 C 298.832031 54.632812 298.738281 54.632812 298.660156 54.632812 C 298.539062 54.566406 298.433594 54.566406 298.328125 54.582031 Z M 298.328125 54.582031 " fill-opacity="1" fill-rule="nonzero"/><g fill="#004aad" fill-opacity="1"><g transform="translate(16.291445, 72.302925)"><g><path d="M 2.710938 0 L 10.105469 0 L 10.105469 -7.617188 L 18.671875 -7.617188 L 18.671875 -14.023438 L 10.105469 -14.023438 L 10.105469 -19.039062 L 19.625 -19.039062 L 19.625 -25.628906 L 2.710938 -25.628906 Z M 2.710938 0 "/></g></g></g><g fill="#004aad" fill-opacity="1"><g transform="translate(37.306816, 72.302925)"><g><path d="M 2.710938 0 L 10.105469 0 L 10.105469 -7.285156 L 12.886719 -7.285156 L 16.550781 0 L 24.933594 0 L 20.210938 -8.640625 C 22.921875 -10.140625 24.457031 -12.851562 24.457031 -16.441406 C 24.457031 -22.113281 20.613281 -25.628906 14.390625 -25.628906 L 2.710938 -25.628906 Z M 9.960938 -13.179688 L 9.960938 -19.589844 L 13.402344 -19.589844 C 15.746094 -19.589844 17.027344 -18.453125 17.027344 -16.402344 C 17.027344 -14.351562 15.746094 -13.179688 13.402344 -13.179688 Z M 9.960938 -13.179688 "/></g></g></g><g fill="#004aad" fill-opacity="1"><g transform="translate(63.667566, 72.302925)"><g><path d="M 2.710938 0 L 20.6875 0 L 20.6875 -6.042969 L 10.03125 -6.042969 L 10.03125 -9.996094 L 19.296875 -9.996094 L 19.296875 -15.925781 L 10.03125 -15.925781 L 10.03125 -19.660156 L 20.285156 -19.660156 L 20.285156 -25.628906 L 2.710938 -25.628906 Z M 2.710938 0 "/></g></g></g><g fill="#004aad" fill-opacity="1"><g transform="translate(86.000972, 72.302925)"><g><path d="M 2.710938 0 L 20.6875 0 L 20.6875 -6.042969 L 10.03125 -6.042969 L 10.03125 -9.996094 L 19.296875 -9.996094 L 19.296875 -15.925781 L 10.03125 -15.925781 L 10.03125 -19.660156 L 20.285156 -19.660156 L 20.285156 -25.628906 L 2.710938 -25.628906 Z M 2.710938 0 "/></g></g></g><g fill="#004aad" fill-opacity="1"><g transform="translate(108.334378, 72.302925)"><g><path d="M 2.710938 0 L 20.578125 0 L 20.578125 -6.847656 L 10.105469 -6.847656 L 10.105469 -25.628906 L 2.710938 -25.628906 Z M 2.710938 0 "/></g></g></g><g fill="#004aad" fill-opacity="1"><g transform="translate(129.825714, 72.302925)"><g><path d="M 0.183594 0 L 8.019531 0 L 9.410156 -3.625 L 18.160156 -3.625 L 19.550781 0 L 27.425781 0 L 17.464844 -25.628906 L 10.140625 -25.628906 Z M 10.949219 -9.042969 L 13.804688 -16.988281 L 16.660156 -9.042969 Z M 10.949219 -9.042969 "/></g></g></g><g fill="#004aad" fill-opacity="1"><g transform="translate(157.431273, 72.302925)"><g><path d="M 2.710938 0 L 10.03125 0 L 10.03125 -13.070312 L 19.773438 0 L 25.777344 0 L 25.777344 -25.628906 L 18.492188 -25.628906 L 18.492188 -12.632812 L 8.75 -25.628906 L 2.710938 -25.628906 Z M 2.710938 0 "/></g></g></g><g fill="#004aad" fill-opacity="1"><g transform="translate(185.952142, 72.302925)"><g><path d="M 14.683594 0.550781 C 21.75 0.550781 27.09375 -3.734375 28.191406 -10.253906 L 20.6875 -10.253906 C 19.773438 -7.835938 17.613281 -6.296875 14.828125 -6.296875 C 11.242188 -6.296875 8.75 -8.96875 8.75 -12.816406 C 8.75 -16.695312 11.277344 -19.332031 14.902344 -19.332031 C 17.574219 -19.332031 19.808594 -17.832031 20.578125 -15.523438 L 28.046875 -15.523438 C 26.730469 -22.003906 21.457031 -26.179688 14.609375 -26.179688 C 6.699219 -26.179688 1.246094 -20.722656 1.246094 -12.816406 C 1.246094 -4.90625 6.699219 0.550781 14.683594 0.550781 Z M 14.683594 0.550781 "/></g></g></g><g fill="#004aad" fill-opacity="1"><g transform="translate(215.31508, 72.302925)"><g><path d="M 2.710938 0 L 20.6875 0 L 20.6875 -6.042969 L 10.03125 -6.042969 L 10.03125 -9.996094 L 19.296875 -9.996094 L 19.296875 -15.925781 L 10.03125 -15.925781 L 10.03125 -19.660156 L 20.285156 -19.660156 L 20.285156 -25.628906 L 2.710938 -25.628906 Z M 2.710938 0 "/></g></g></g><g fill="#004aad" fill-opacity="1"><g transform="translate(237.648486, 72.302925)"><g><path d="M 2.710938 0 L 15.855469 0 C 21.054688 0 24.679688 -2.929688 24.679688 -7.140625 C 24.679688 -9.847656 23.214844 -12.046875 20.796875 -13.109375 C 22.773438 -14.242188 23.910156 -16.292969 23.910156 -18.746094 C 23.910156 -22.957031 20.539062 -25.628906 15.195312 -25.628906 L 2.710938 -25.628906 Z M 9.960938 -5.492188 L 9.960938 -10.289062 L 14.425781 -10.289062 C 16.183594 -10.289062 17.171875 -9.410156 17.171875 -7.910156 C 17.171875 -6.371094 16.183594 -5.492188 14.425781 -5.492188 Z M 9.960938 -15.5625 L 9.960938 -20.175781 L 13.804688 -20.175781 C 15.523438 -20.175781 16.476562 -19.332031 16.476562 -17.867188 C 16.476562 -16.367188 15.523438 -15.5625 13.804688 -15.5625 Z M 9.960938 -15.5625 "/></g></g></g><g fill="#004aad" fill-opacity="1"><g transform="translate(263.379299, 72.302925)"><g/></g></g><g fill="#004aad" fill-opacity="1"><g transform="translate(271.836699, 72.302925)"><g/></g></g><g fill="#004aad" fill-opacity="1"><g transform="translate(280.294099, 72.302925)"><g/></g></g><g fill="#004aad" fill-opacity="1"><g transform="translate(288.751499, 72.302925)"><g/></g></g><g fill="#004aad" fill-opacity="1"><g transform="translate(297.208899, 72.302925)"><g/></g></g><g fill="#004aad" fill-opacity="1"><g transform="translate(305.666298, 72.302925)"><g/></g></g><g fill="#004aad" fill-opacity="1"><g transform="translate(314.123698, 72.302925)"><g/></g></g><g fill="#004aad" fill-opacity="1"><g transform="translate(322.581098, 72.302925)"><g/></g></g><g fill="#004aad" fill-opacity="1"><g transform="translate(331.02902, 72.302925)"><g><path d="M 2.710938 0 L 10.105469 0 L 10.105469 -9.703125 L 13.328125 -9.703125 L 18.234375 0 L 26.800781 0 L 20.066406 -12.449219 C 20.832031 -13.363281 21.53125 -14.574219 22.113281 -16.074219 L 25.921875 -25.628906 L 17.90625 -25.628906 L 15.597656 -19.222656 C 14.828125 -16.988281 13.988281 -16.441406 11.351562 -16.441406 L 10.105469 -16.441406 L 10.105469 -25.628906 L 2.710938 -25.628906 Z M 2.710938 0 "/></g></g></g><g fill="#004aad" fill-opacity="1"><g transform="translate(18.676819, 87.647028)"><g><path d="M 3.953125 -4.96875 L 2.640625 -3.609375 L 2.640625 0 L 1.234375 0 L 1.234375 -10.671875 L 2.640625 -10.671875 L 2.640625 -5.390625 L 7.390625 -10.671875 L 9.09375 -10.671875 L 4.890625 -5.953125 L 9.421875 0 L 7.734375 0 Z M 3.953125 -4.96875 "/></g></g></g><g fill="#004aad" fill-opacity="1"><g transform="translate(33.279748, 87.647028)"><g><path d="M 2.75 0 L 1.34375 0 L 1.34375 -10.671875 L 2.75 -10.671875 Z M 2.75 0 "/></g></g></g><g fill="#004aad" fill-opacity="1"><g transform="translate(42.554914, 87.647028)"><g><path d="M 9.09375 -3.390625 C 8.957031 -2.253906 8.539062 -1.378906 7.84375 -0.765625 C 7.144531 -0.160156 6.210938 0.140625 5.046875 0.140625 C 3.785156 0.140625 2.773438 -0.304688 2.015625 -1.203125 C 1.253906 -2.109375 0.875 -3.320312 0.875 -4.84375 L 0.875 -5.859375 C 0.875 -6.859375 1.050781 -7.734375 1.40625 -8.484375 C 1.757812 -9.234375 2.257812 -9.8125 2.90625 -10.21875 C 3.5625 -10.625 4.316406 -10.828125 5.171875 -10.828125 C 6.304688 -10.828125 7.210938 -10.507812 7.890625 -9.875 C 8.578125 -9.238281 8.976562 -8.363281 9.09375 -7.25 L 7.671875 -7.25 C 7.554688 -8.09375 7.289062 -8.703125 6.875 -9.078125 C 6.46875 -9.460938 5.898438 -9.65625 5.171875 -9.65625 C 4.265625 -9.65625 3.554688 -9.320312 3.046875 -8.65625 C 2.535156 -8 2.28125 -7.054688 2.28125 -5.828125 L 2.28125 -4.796875 C 2.28125 -3.640625 2.519531 -2.71875 3 -2.03125 C 3.488281 -1.34375 4.171875 -1 5.046875 -1 C 5.828125 -1 6.425781 -1.175781 6.84375 -1.53125 C 7.257812 -1.882812 7.535156 -2.503906 7.671875 -3.390625 Z M 9.09375 -3.390625 "/></g></g></g><g fill="#004aad" fill-opacity="1"><g transform="translate(57.516943, 87.647028)"><g><path d="M 3.953125 -4.96875 L 2.640625 -3.609375 L 2.640625 0 L 1.234375 0 L 1.234375 -10.671875 L 2.640625 -10.671875 L 2.640625 -5.390625 L 7.390625 -10.671875 L 9.09375 -10.671875 L 4.890625 -5.953125 L 9.421875 0 L 7.734375 0 Z M 3.953125 -4.96875 "/></g></g></g><g fill="#004aad" fill-opacity="1"><g transform="translate(72.119871, 87.647028)"><g><path d="M 4.390625 -4.765625 C 3.179688 -5.109375 2.300781 -5.53125 1.75 -6.03125 C 1.195312 -6.539062 0.921875 -7.164062 0.921875 -7.90625 C 0.921875 -8.75 1.253906 -9.445312 1.921875 -10 C 2.597656 -10.550781 3.472656 -10.828125 4.546875 -10.828125 C 5.285156 -10.828125 5.941406 -10.679688 6.515625 -10.390625 C 7.085938 -10.109375 7.53125 -9.71875 7.84375 -9.21875 C 8.164062 -8.71875 8.328125 -8.175781 8.328125 -7.59375 L 6.90625 -7.59375 C 6.90625 -8.238281 6.695312 -8.742188 6.28125 -9.109375 C 5.875 -9.472656 5.296875 -9.65625 4.546875 -9.65625 C 3.859375 -9.65625 3.316406 -9.503906 2.921875 -9.203125 C 2.535156 -8.898438 2.34375 -8.476562 2.34375 -7.9375 C 2.34375 -7.5 2.523438 -7.128906 2.890625 -6.828125 C 3.265625 -6.523438 3.894531 -6.25 4.78125 -6 C 5.664062 -5.75 6.359375 -5.472656 6.859375 -5.171875 C 7.367188 -4.878906 7.742188 -4.53125 7.984375 -4.125 C 8.222656 -3.726562 8.34375 -3.257812 8.34375 -2.71875 C 8.34375 -1.851562 8.003906 -1.160156 7.328125 -0.640625 C 6.648438 -0.117188 5.75 0.140625 4.625 0.140625 C 3.894531 0.140625 3.210938 0 2.578125 -0.28125 C 1.941406 -0.5625 1.453125 -0.941406 1.109375 -1.421875 C 0.765625 -1.910156 0.59375 -2.46875 0.59375 -3.09375 L 2 -3.09375 C 2 -2.445312 2.238281 -1.9375 2.71875 -1.5625 C 3.195312 -1.1875 3.832031 -1 4.625 -1 C 5.363281 -1 5.929688 -1.148438 6.328125 -1.453125 C 6.722656 -1.753906 6.921875 -2.164062 6.921875 -2.6875 C 6.921875 -3.21875 6.738281 -3.625 6.375 -3.90625 C 6.007812 -4.195312 5.347656 -4.484375 4.390625 -4.765625 Z M 4.390625 -4.765625 "/></g></g></g><g fill="#004aad" fill-opacity="1"><g transform="translate(86.217145, 87.647028)"><g><path d="M 8.609375 -9.515625 L 5.1875 -9.515625 L 5.1875 0 L 3.78125 0 L 3.78125 -9.515625 L 0.359375 -9.515625 L 0.359375 -10.671875 L 8.609375 -10.671875 Z M 8.609375 -9.515625 "/></g></g></g><g fill="#004aad" fill-opacity="1"><g transform="translate(100.365711, 87.647028)"><g><path d="M 7.140625 -2.78125 L 2.65625 -2.78125 L 1.65625 0 L 0.203125 0 L 4.28125 -10.671875 L 5.515625 -10.671875 L 9.59375 0 L 8.15625 0 Z M 3.09375 -3.9375 L 6.71875 -3.9375 L 4.890625 -8.9375 Z M 3.09375 -3.9375 "/></g></g></g><g fill="#004aad" fill-opacity="1"><g transform="translate(115.349718, 87.647028)"><g><path d="M 5.15625 -4.3125 L 2.640625 -4.3125 L 2.640625 0 L 1.234375 0 L 1.234375 -10.671875 L 4.765625 -10.671875 C 5.960938 -10.671875 6.882812 -10.394531 7.53125 -9.84375 C 8.1875 -9.300781 8.515625 -8.507812 8.515625 -7.46875 C 8.515625 -6.800781 8.332031 -6.21875 7.96875 -5.71875 C 7.613281 -5.226562 7.113281 -4.863281 6.46875 -4.625 L 8.984375 -0.09375 L 8.984375 0 L 7.46875 0 Z M 2.640625 -5.46875 L 4.8125 -5.46875 C 5.507812 -5.46875 6.0625 -5.644531 6.46875 -6 C 6.882812 -6.363281 7.09375 -6.851562 7.09375 -7.46875 C 7.09375 -8.125 6.894531 -8.628906 6.5 -8.984375 C 6.113281 -9.335938 5.546875 -9.515625 4.796875 -9.515625 L 2.640625 -9.515625 Z M 2.640625 -5.46875 "/></g></g></g><g fill="#004aad" fill-opacity="1"><g transform="translate(129.7841, 87.647028)"><g><path d="M 8.609375 -9.515625 L 5.1875 -9.515625 L 5.1875 0 L 3.78125 0 L 3.78125 -9.515625 L 0.359375 -9.515625 L 0.359375 -10.671875 L 8.609375 -10.671875 Z M 8.609375 -9.515625 "/></g></g></g><g fill="#004aad" fill-opacity="1"><g transform="translate(143.932666, 87.647028)"><g/></g></g><g fill="#004aad" fill-opacity="1"><g transform="translate(152.84141, 87.647028)"><g><path d="M 4.5 -5.3125 L 7.28125 -10.671875 L 8.875 -10.671875 L 5.203125 -3.984375 L 5.203125 0 L 3.796875 0 L 3.796875 -3.984375 L 0.109375 -10.671875 L 1.71875 -10.671875 Z M 4.5 -5.3125 "/></g></g></g><g fill="#004aad" fill-opacity="1"><g transform="translate(167.048603, 87.647028)"><g><path d="M 9.453125 -5 C 9.453125 -3.945312 9.273438 -3.03125 8.921875 -2.25 C 8.566406 -1.46875 8.066406 -0.875 7.421875 -0.46875 C 6.773438 -0.0625 6.023438 0.140625 5.171875 0.140625 C 4.328125 0.140625 3.578125 -0.0625 2.921875 -0.46875 C 2.273438 -0.882812 1.769531 -1.472656 1.40625 -2.234375 C 1.050781 -3.003906 0.867188 -3.890625 0.859375 -4.890625 L 0.859375 -5.671875 C 0.859375 -6.691406 1.035156 -7.59375 1.390625 -8.375 C 1.753906 -9.164062 2.257812 -9.769531 2.90625 -10.1875 C 3.5625 -10.613281 4.3125 -10.828125 5.15625 -10.828125 C 6.007812 -10.828125 6.757812 -10.617188 7.40625 -10.203125 C 8.0625 -9.785156 8.566406 -9.1875 8.921875 -8.40625 C 9.273438 -7.625 9.453125 -6.710938 9.453125 -5.671875 Z M 8.046875 -5.6875 C 8.046875 -6.945312 7.789062 -7.914062 7.28125 -8.59375 C 6.78125 -9.269531 6.070312 -9.609375 5.15625 -9.609375 C 4.257812 -9.609375 3.554688 -9.269531 3.046875 -8.59375 C 2.535156 -7.914062 2.273438 -6.976562 2.265625 -5.78125 L 2.265625 -5 C 2.265625 -3.769531 2.519531 -2.800781 3.03125 -2.09375 C 3.550781 -1.394531 4.265625 -1.046875 5.171875 -1.046875 C 6.078125 -1.046875 6.78125 -1.375 7.28125 -2.03125 C 7.78125 -2.695312 8.035156 -3.648438 8.046875 -4.890625 Z M 8.046875 -5.6875 "/></g></g></g><g fill="#004aad" fill-opacity="1"><g transform="translate(182.560257, 87.647028)"><g><path d="M 8.75 -10.671875 L 8.75 -3.421875 C 8.75 -2.410156 8.429688 -1.582031 7.796875 -0.9375 C 7.171875 -0.300781 6.320312 0.0507812 5.25 0.125 L 4.875 0.140625 C 3.707031 0.140625 2.773438 -0.171875 2.078125 -0.796875 C 1.390625 -1.429688 1.039062 -2.300781 1.03125 -3.40625 L 1.03125 -10.671875 L 2.421875 -10.671875 L 2.421875 -3.453125 C 2.421875 -2.671875 2.628906 -2.066406 3.046875 -1.640625 C 3.472656 -1.210938 4.082031 -1 4.875 -1 C 5.675781 -1 6.285156 -1.210938 6.703125 -1.640625 C 7.128906 -2.066406 7.34375 -2.664062 7.34375 -3.4375 L 7.34375 -10.671875 Z M 8.75 -10.671875 "/></g></g></g><g fill="#004aad" fill-opacity="1"><g transform="translate(197.485637, 87.647028)"><g><path d="M 5.15625 -4.3125 L 2.640625 -4.3125 L 2.640625 0 L 1.234375 0 L 1.234375 -10.671875 L 4.765625 -10.671875 C 5.960938 -10.671875 6.882812 -10.394531 7.53125 -9.84375 C 8.1875 -9.300781 8.515625 -8.507812 8.515625 -7.46875 C 8.515625 -6.800781 8.332031 -6.21875 7.96875 -5.71875 C 7.613281 -5.226562 7.113281 -4.863281 6.46875 -4.625 L 8.984375 -0.09375 L 8.984375 0 L 7.46875 0 Z M 2.640625 -5.46875 L 4.8125 -5.46875 C 5.507812 -5.46875 6.0625 -5.644531 6.46875 -6 C 6.882812 -6.363281 7.09375 -6.851562 7.09375 -7.46875 C 7.09375 -8.125 6.894531 -8.628906 6.5 -8.984375 C 6.113281 -9.335938 5.546875 -9.515625 4.796875 -9.515625 L 2.640625 -9.515625 Z M 2.640625 -5.46875 "/></g></g></g><g fill="#004aad" fill-opacity="1"><g transform="translate(211.920019, 87.647028)"><g/></g></g><g fill="#004aad" fill-opacity="1"><g transform="translate(220.828763, 87.647028)"><g><path d="M 2.640625 -4.171875 L 2.640625 0 L 1.234375 0 L 1.234375 -10.671875 L 5.171875 -10.671875 C 6.335938 -10.671875 7.253906 -10.375 7.921875 -9.78125 C 8.585938 -9.1875 8.921875 -8.394531 8.921875 -7.40625 C 8.921875 -6.375 8.59375 -5.578125 7.9375 -5.015625 C 7.289062 -4.453125 6.363281 -4.171875 5.15625 -4.171875 Z M 2.640625 -5.328125 L 5.171875 -5.328125 C 5.929688 -5.328125 6.507812 -5.503906 6.90625 -5.859375 C 7.3125 -6.210938 7.515625 -6.722656 7.515625 -7.390625 C 7.515625 -8.023438 7.3125 -8.535156 6.90625 -8.921875 C 6.507812 -9.304688 5.957031 -9.503906 5.25 -9.515625 L 2.640625 -9.515625 Z M 2.640625 -5.328125 "/></g></g></g><g fill="#004aad" fill-opacity="1"><g transform="translate(235.490319, 87.647028)"><g><path d="M 5.15625 -4.3125 L 2.640625 -4.3125 L 2.640625 0 L 1.234375 0 L 1.234375 -10.671875 L 4.765625 -10.671875 C 5.960938 -10.671875 6.882812 -10.394531 7.53125 -9.84375 C 8.1875 -9.300781 8.515625 -8.507812 8.515625 -7.46875 C 8.515625 -6.800781 8.332031 -6.21875 7.96875 -5.71875 C 7.613281 -5.226562 7.113281 -4.863281 6.46875 -4.625 L 8.984375 -0.09375 L 8.984375 0 L 7.46875 0 Z M 2.640625 -5.46875 L 4.8125 -5.46875 C 5.507812 -5.46875 6.0625 -5.644531 6.46875 -6 C 6.882812 -6.363281 7.09375 -6.851562 7.09375 -7.46875 C 7.09375 -8.125 6.894531 -8.628906 6.5 -8.984375 C 6.113281 -9.335938 5.546875 -9.515625 4.796875 -9.515625 L 2.640625 -9.515625 Z M 2.640625 -5.46875 "/></g></g></g><g fill="#004aad" fill-opacity="1"><g transform="translate(249.924701, 87.647028)"><g><path d="M 9.453125 -5 C 9.453125 -3.945312 9.273438 -3.03125 8.921875 -2.25 C 8.566406 -1.46875 8.066406 -0.875 7.421875 -0.46875 C 6.773438 -0.0625 6.023438 0.140625 5.171875 0.140625 C 4.328125 0.140625 3.578125 -0.0625 2.921875 -0.46875 C 2.273438 -0.882812 1.769531 -1.472656 1.40625 -2.234375 C 1.050781 -3.003906 0.867188 -3.890625 0.859375 -4.890625 L 0.859375 -5.671875 C 0.859375 -6.691406 1.035156 -7.59375 1.390625 -8.375 C 1.753906 -9.164062 2.257812 -9.769531 2.90625 -10.1875 C 3.5625 -10.613281 4.3125 -10.828125 5.15625 -10.828125 C 6.007812 -10.828125 6.757812 -10.617188 7.40625 -10.203125 C 8.0625 -9.785156 8.566406 -9.1875 8.921875 -8.40625 C 9.273438 -7.625 9.453125 -6.710938 9.453125 -5.671875 Z M 8.046875 -5.6875 C 8.046875 -6.945312 7.789062 -7.914062 7.28125 -8.59375 C 6.78125 -9.269531 6.070312 -9.609375 5.15625 -9.609375 C 4.257812 -9.609375 3.554688 -9.269531 3.046875 -8.59375 C 2.535156 -7.914062 2.273438 -6.976562 2.265625 -5.78125 L 2.265625 -5 C 2.265625 -3.769531 2.519531 -2.800781 3.03125 -2.09375 C 3.550781 -1.394531 4.265625 -1.046875 5.171875 -1.046875 C 6.078125 -1.046875 6.78125 -1.375 7.28125 -2.03125 C 7.78125 -2.695312 8.035156 -3.648438 8.046875 -4.890625 Z M 8.046875 -5.6875 "/></g></g></g><g fill="#004aad" fill-opacity="1"><g transform="translate(265.436355, 87.647028)"><g><path d="M 7.125 -4.71875 L 2.640625 -4.71875 L 2.640625 0 L 1.234375 0 L 1.234375 -10.671875 L 7.859375 -10.671875 L 7.859375 -9.515625 L 2.640625 -9.515625 L 2.640625 -5.859375 L 7.125 -5.859375 Z M 7.125 -4.71875 "/></g></g></g><g fill="#004aad" fill-opacity="1"><g transform="translate(278.925348, 87.647028)"><g><path d="M 7.265625 -4.9375 L 2.640625 -4.9375 L 2.640625 -1.15625 L 8.015625 -1.15625 L 8.015625 0 L 1.234375 0 L 1.234375 -10.671875 L 7.953125 -10.671875 L 7.953125 -9.515625 L 2.640625 -9.515625 L 2.640625 -6.078125 L 7.265625 -6.078125 Z M 7.265625 -4.9375 "/></g></g></g><g fill="#004aad" fill-opacity="1"><g transform="translate(292.64885, 87.647028)"><g><path d="M 4.390625 -4.765625 C 3.179688 -5.109375 2.300781 -5.53125 1.75 -6.03125 C 1.195312 -6.539062 0.921875 -7.164062 0.921875 -7.90625 C 0.921875 -8.75 1.253906 -9.445312 1.921875 -10 C 2.597656 -10.550781 3.472656 -10.828125 4.546875 -10.828125 C 5.285156 -10.828125 5.941406 -10.679688 6.515625 -10.390625 C 7.085938 -10.109375 7.53125 -9.71875 7.84375 -9.21875 C 8.164062 -8.71875 8.328125 -8.175781 8.328125 -7.59375 L 6.90625 -7.59375 C 6.90625 -8.238281 6.695312 -8.742188 6.28125 -9.109375 C 5.875 -9.472656 5.296875 -9.65625 4.546875 -9.65625 C 3.859375 -9.65625 3.316406 -9.503906 2.921875 -9.203125 C 2.535156 -8.898438 2.34375 -8.476562 2.34375 -7.9375 C 2.34375 -7.5 2.523438 -7.128906 2.890625 -6.828125 C 3.265625 -6.523438 3.894531 -6.25 4.78125 -6 C 5.664062 -5.75 6.359375 -5.472656 6.859375 -5.171875 C 7.367188 -4.878906 7.742188 -4.53125 7.984375 -4.125 C 8.222656 -3.726562 8.34375 -3.257812 8.34375 -2.71875 C 8.34375 -1.851562 8.003906 -1.160156 7.328125 -0.640625 C 6.648438 -0.117188 5.75 0.140625 4.625 0.140625 C 3.894531 0.140625 3.210938 0 2.578125 -0.28125 C 1.941406 -0.5625 1.453125 -0.941406 1.109375 -1.421875 C 0.765625 -1.910156 0.59375 -2.46875 0.59375 -3.09375 L 2 -3.09375 C 2 -2.445312 2.238281 -1.9375 2.71875 -1.5625 C 3.195312 -1.1875 3.832031 -1 4.625 -1 C 5.363281 -1 5.929688 -1.148438 6.328125 -1.453125 C 6.722656 -1.753906 6.921875 -2.164062 6.921875 -2.6875 C 6.921875 -3.21875 6.738281 -3.625 6.375 -3.90625 C 6.007812 -4.195312 5.347656 -4.484375 4.390625 -4.765625 Z M 4.390625 -4.765625 "/></g></g></g><g fill="#004aad" fill-opacity="1"><g transform="translate(306.746124, 87.647028)"><g><path d="M 4.390625 -4.765625 C 3.179688 -5.109375 2.300781 -5.53125 1.75 -6.03125 C 1.195312 -6.539062 0.921875 -7.164062 0.921875 -7.90625 C 0.921875 -8.75 1.253906 -9.445312 1.921875 -10 C 2.597656 -10.550781 3.472656 -10.828125 4.546875 -10.828125 C 5.285156 -10.828125 5.941406 -10.679688 6.515625 -10.390625 C 7.085938 -10.109375 7.53125 -9.71875 7.84375 -9.21875 C 8.164062 -8.71875 8.328125 -8.175781 8.328125 -7.59375 L 6.90625 -7.59375 C 6.90625 -8.238281 6.695312 -8.742188 6.28125 -9.109375 C 5.875 -9.472656 5.296875 -9.65625 4.546875 -9.65625 C 3.859375 -9.65625 3.316406 -9.503906 2.921875 -9.203125 C 2.535156 -8.898438 2.34375 -8.476562 2.34375 -7.9375 C 2.34375 -7.5 2.523438 -7.128906 2.890625 -6.828125 C 3.265625 -6.523438 3.894531 -6.25 4.78125 -6 C 5.664062 -5.75 6.359375 -5.472656 6.859375 -5.171875 C 7.367188 -4.878906 7.742188 -4.53125 7.984375 -4.125 C 8.222656 -3.726562 8.34375 -3.257812 8.34375 -2.71875 C 8.34375 -1.851562 8.003906 -1.160156 7.328125 -0.640625 C 6.648438 -0.117188 5.75 0.140625 4.625 0.140625 C 3.894531 0.140625 3.210938 0 2.578125 -0.28125 C 1.941406 -0.5625 1.453125 -0.941406 1.109375 -1.421875 C 0.765625 -1.910156 0.59375 -2.46875 0.59375 -3.09375 L 2 -3.09375 C 2 -2.445312 2.238281 -1.9375 2.71875 -1.5625 C 3.195312 -1.1875 3.832031 -1 4.625 -1 C 5.363281 -1 5.929688 -1.148438 6.328125 -1.453125 C 6.722656 -1.753906 6.921875 -2.164062 6.921875 -2.6875 C 6.921875 -3.21875 6.738281 -3.625 6.375 -3.90625 C 6.007812 -4.195312 5.347656 -4.484375 4.390625 -4.765625 Z M 4.390625 -4.765625 "/></g></g></g><g fill="#004aad" fill-opacity="1"><g transform="translate(320.843398, 87.647028)"><g><path d="M 2.75 0 L 1.34375 0 L 1.34375 -10.671875 L 2.75 -10.671875 Z M 2.75 0 "/></g></g></g><g fill="#004aad" fill-opacity="1"><g transform="translate(330.118549, 87.647028)"><g><path d="M 9.453125 -5 C 9.453125 -3.945312 9.273438 -3.03125 8.921875 -2.25 C 8.566406 -1.46875 8.066406 -0.875 7.421875 -0.46875 C 6.773438 -0.0625 6.023438 0.140625 5.171875 0.140625 C 4.328125 0.140625 3.578125 -0.0625 2.921875 -0.46875 C 2.273438 -0.882812 1.769531 -1.472656 1.40625 -2.234375 C 1.050781 -3.003906 0.867188 -3.890625 0.859375 -4.890625 L 0.859375 -5.671875 C 0.859375 -6.691406 1.035156 -7.59375 1.390625 -8.375 C 1.753906 -9.164062 2.257812 -9.769531 2.90625 -10.1875 C 3.5625 -10.613281 4.3125 -10.828125 5.15625 -10.828125 C 6.007812 -10.828125 6.757812 -10.617188 7.40625 -10.203125 C 8.0625 -9.785156 8.566406 -9.1875 8.921875 -8.40625 C 9.273438 -7.625 9.453125 -6.710938 9.453125 -5.671875 Z M 8.046875 -5.6875 C 8.046875 -6.945312 7.789062 -7.914062 7.28125 -8.59375 C 6.78125 -9.269531 6.070312 -9.609375 5.15625 -9.609375 C 4.257812 -9.609375 3.554688 -9.269531 3.046875 -8.59375 C 2.535156 -7.914062 2.273438 -6.976562 2.265625 -5.78125 L 2.265625 -5 C 2.265625 -3.769531 2.519531 -2.800781 3.03125 -2.09375 C 3.550781 -1.394531 4.265625 -1.046875 5.171875 -1.046875 C 6.078125 -1.046875 6.78125 -1.375 7.28125 -2.03125 C 7.78125 -2.695312 8.035156 -3.648438 8.046875 -4.890625 Z M 8.046875 -5.6875 "/></g></g></g><g fill="#004aad" fill-opacity="1"><g transform="translate(345.630218, 87.647028)"><g><path d="M 9.4375 0 L 8.03125 0 L 2.65625 -8.21875 L 2.65625 0 L 1.234375 0 L 1.234375 -10.671875 L 2.65625 -10.671875 L 8.046875 -2.40625 L 8.046875 -10.671875 L 9.4375 -10.671875 Z M 9.4375 0 "/></g></g></g></svg>