<svg xmlns="http://www.w3.org/2000/svg" xmlns:xlink="http://www.w3.org/1999/xlink" width="500" zoomAndPan="magnify" viewBox="0 0 375 112.499997" height="150" preserveAspectRatio="xMidYMid meet" version="1.0"><defs><g/><clipPath id="id1"><path d="M 12.03125 29.089844 L 74.75 29.089844 L 74.75 59 L 12.03125 59 Z M 12.03125 29.089844 " clip-rule="nonzero"/></clipPath><clipPath id="id2"><path d="M 12.03125 54.160156 L 40 54.160156 L 40 83 L 12.03125 83 Z M 12.03125 54.160156 " clip-rule="nonzero"/></clipPath><clipPath id="id3"><path d="M 49 54.160156 L 76.992188 54.160156 L 76.992188 83.28125 L 49 83.28125 Z M 49 54.160156 " clip-rule="nonzero"/></clipPath></defs><g clip-path="url(#id1)"><path fill="#004aad" d="M 16.597656 29.800781 C 25.296875 29.800781 28.890625 30.035156 38.464844 44.507812 C 38.464844 44.507812 43.625 51.503906 49.890625 51.148438 C 49.890625 51.148438 54.183594 52.09375 58.007812 43.085938 C 61.835938 34.070312 64.96875 29.089844 74.714844 30.390625 C 74.714844 30.390625 70.191406 34.421875 69.550781 36.144531 C 68.914062 37.863281 58.550781 50.671875 52.886719 51.5625 C 53.71875 51.800781 54.878906 52.09375 56.847656 51.738281 C 56.847656 51.738281 58.875 51.859375 59.195312 52.867188 C 57.195312 52.691406 50.585938 54.707031 49.195312 55.773438 C 47.804688 56.847656 43.03125 59.695312 39.210938 56.789062 C 40.027344 56.664062 44.605469 55.804688 46.722656 53.714844 C 43.160156 53.757812 37.246094 52.570312 32.835938 48.363281 C 28.429688 44.152344 17.753906 31.457031 12.070312 30.511719 L 16.597656 29.800781 " fill-opacity="1" fill-rule="nonzero"/></g><g clip-path="url(#id2)"><path fill="#004aad" d="M 24.425781 54.265625 C 24.03125 54.308594 23.632812 54.375 23.238281 54.453125 C 23.105469 54.480469 22.960938 54.507812 22.828125 54.535156 C 22.601562 54.574219 22.378906 54.640625 22.152344 54.710938 C 21.398438 54.925781 20.644531 55.21875 19.933594 55.554688 C 19.917969 55.566406 19.90625 55.566406 19.878906 55.582031 C 19.65625 55.6875 19.441406 55.796875 19.230469 55.917969 C 18.4375 56.359375 17.699219 56.894531 17.011719 57.472656 C 16.496094 57.902344 16.019531 58.386719 15.570312 58.882812 C 15.503906 58.960938 15.425781 59.042969 15.359375 59.121094 C 14.9375 59.632812 14.539062 60.167969 14.195312 60.730469 C 13.917969 61.160156 13.679688 61.617188 13.457031 62.085938 C 13.257812 62.503906 13.085938 62.917969 12.925781 63.347656 C 12.820312 63.65625 12.714844 63.964844 12.621094 64.273438 C 12.332031 65.253906 12.171875 66.257812 12.09375 67.277344 C 12.066406 67.546875 12.066406 67.800781 12.054688 68.070312 C 12.054688 68.097656 12.054688 68.109375 12.054688 68.136719 C 12.042969 68.980469 12.121094 69.828125 12.253906 70.65625 C 12.292969 70.941406 12.359375 71.234375 12.425781 71.515625 C 12.53125 71.972656 12.664062 72.414062 12.808594 72.859375 C 12.859375 73.019531 12.925781 73.179688 12.980469 73.339844 C 13.085938 73.59375 13.191406 73.863281 13.296875 74.105469 C 13.324219 74.171875 13.351562 74.238281 13.390625 74.304688 C 13.601562 74.761719 13.839844 75.21875 14.101562 75.648438 C 14.167969 75.753906 14.234375 75.847656 14.289062 75.957031 C 14.710938 76.613281 15.1875 77.230469 15.703125 77.792969 C 16.136719 78.277344 16.601562 78.71875 17.089844 79.136719 C 17.367188 79.375 17.660156 79.589844 17.960938 79.804688 C 18.09375 79.898438 18.226562 79.992188 18.371094 80.085938 C 18.664062 80.289062 18.96875 80.464844 19.285156 80.636719 C 19.285156 80.636719 19.296875 80.636719 19.296875 80.652344 C 19.90625 80.988281 20.527344 81.269531 21.175781 81.507812 C 22.085938 81.859375 23.039062 82.085938 24.015625 82.21875 C 25.0625 82.367188 26.089844 82.394531 27.136719 82.300781 C 28.21875 82.207031 29.277344 81.980469 30.308594 81.644531 C 32.25 81 34.023438 79.898438 35.503906 78.476562 C 36.242188 77.78125 36.878906 76.976562 37.445312 76.144531 C 38.039062 75.273438 38.503906 74.320312 38.886719 73.339844 C 39.269531 72.363281 39.519531 71.328125 39.667969 70.28125 C 39.8125 69.195312 39.851562 68.109375 39.757812 67.007812 C 39.574219 64.917969 38.925781 62.878906 37.867188 61.066406 C 37.394531 60.210938 36.785156 59.402344 36.109375 58.667969 C 35.4375 57.929688 34.683594 57.285156 33.875 56.695312 C 33.109375 56.144531 32.277344 55.675781 31.40625 55.300781 C 30.492188 54.910156 29.554688 54.601562 28.578125 54.414062 C 27.769531 54.253906 26.964844 54.171875 26.144531 54.160156 C 26.117188 54.160156 26.089844 54.160156 26.050781 54.160156 C 26.027344 54.160156 26.011719 54.160156 25.984375 54.160156 C 25.46875 54.171875 24.953125 54.199219 24.425781 54.265625 Z M 27.570312 55.957031 C 28.644531 56.117188 29.6875 56.398438 30.679688 56.816406 C 31.65625 57.246094 32.566406 57.78125 33.414062 58.4375 C 34.234375 59.097656 34.972656 59.847656 35.621094 60.679688 C 36.269531 61.535156 36.796875 62.460938 37.222656 63.457031 C 37.628906 64.472656 37.921875 65.535156 38.066406 66.632812 C 38.199219 67.734375 38.199219 68.847656 38.066406 69.960938 C 37.910156 71.046875 37.617188 72.105469 37.207031 73.125 C 36.785156 74.105469 36.257812 75.03125 35.621094 75.875 C 34.972656 76.707031 34.234375 77.457031 33.414062 78.117188 C 32.566406 78.761719 31.65625 79.308594 30.691406 79.738281 C 29.6875 80.15625 28.644531 80.449219 27.558594 80.597656 C 26.476562 80.730469 25.390625 80.730469 24.308594 80.597656 C 23.300781 80.449219 22.324219 80.183594 21.371094 79.804688 C 21.308594 79.777344 21.242188 79.753906 21.1875 79.726562 C 20.964844 79.632812 20.738281 79.523438 20.527344 79.402344 C 20.515625 79.390625 20.5 79.390625 20.488281 79.375 C 20.472656 79.375 20.472656 79.363281 20.460938 79.363281 C 20.449219 79.363281 20.449219 79.351562 20.433594 79.351562 C 19.746094 78.988281 19.085938 78.570312 18.464844 78.089844 C 17.871094 77.605469 17.316406 77.082031 16.8125 76.507812 C 16.8125 76.507812 16.8125 76.507812 16.8125 76.492188 C 16.800781 76.480469 16.800781 76.480469 16.785156 76.464844 C 16.773438 76.453125 16.773438 76.453125 16.761719 76.4375 C 16.761719 76.4375 16.761719 76.425781 16.746094 76.425781 C 16.574219 76.238281 16.417969 76.035156 16.257812 75.835938 C 15.648438 75.015625 15.132812 74.132812 14.710938 73.191406 C 14.710938 73.191406 14.710938 73.179688 14.710938 73.179688 C 14.710938 73.179688 14.710938 73.167969 14.699219 73.167969 C 14.683594 73.140625 14.671875 73.097656 14.660156 73.074219 C 14.605469 72.953125 14.566406 72.84375 14.527344 72.722656 C 14.527344 72.710938 14.511719 72.695312 14.511719 72.683594 C 14.511719 72.683594 14.511719 72.683594 14.511719 72.671875 C 14.207031 71.851562 13.996094 71.019531 13.851562 70.160156 C 13.851562 70.160156 13.851562 70.148438 13.851562 70.148438 C 13.851562 70.136719 13.851562 70.121094 13.851562 70.121094 C 13.851562 70.109375 13.851562 70.109375 13.851562 70.09375 C 13.851562 70.09375 13.851562 70.082031 13.851562 70.082031 C 13.839844 70.027344 13.839844 69.960938 13.824219 69.90625 C 13.695312 68.792969 13.695312 67.679688 13.824219 66.582031 C 13.917969 65.992188 14.035156 65.398438 14.195312 64.835938 C 14.195312 64.824219 14.207031 64.808594 14.207031 64.796875 C 14.207031 64.78125 14.207031 64.769531 14.222656 64.769531 C 14.222656 64.769531 14.222656 64.757812 14.222656 64.757812 C 14.355469 64.3125 14.5 63.882812 14.671875 63.457031 C 15.09375 62.476562 15.625 61.550781 16.269531 60.691406 C 16.480469 60.410156 16.707031 60.15625 16.945312 59.886719 C 16.957031 59.875 16.957031 59.859375 16.972656 59.859375 C 16.972656 59.859375 16.972656 59.847656 16.984375 59.847656 C 16.996094 59.832031 16.996094 59.832031 17.011719 59.820312 C 17.011719 59.820312 17.023438 59.808594 17.023438 59.808594 C 17.023438 59.808594 17.039062 59.792969 17.039062 59.792969 C 17.050781 59.78125 17.050781 59.78125 17.0625 59.765625 C 17.0625 59.765625 17.078125 59.753906 17.078125 59.753906 C 17.089844 59.738281 17.089844 59.738281 17.105469 59.726562 C 17.105469 59.726562 17.105469 59.726562 17.117188 59.710938 C 17.128906 59.699219 17.144531 59.6875 17.144531 59.6875 C 17.539062 59.269531 17.960938 58.882812 18.398438 58.519531 C 18.410156 58.503906 18.425781 58.492188 18.4375 58.492188 C 18.453125 58.480469 18.464844 58.480469 18.476562 58.464844 C 19.324219 57.820312 20.234375 57.273438 21.199219 56.84375 C 21.320312 56.800781 21.425781 56.75 21.542969 56.707031 C 21.558594 56.707031 21.558594 56.707031 21.570312 56.695312 C 21.585938 56.695312 21.585938 56.695312 21.597656 56.679688 C 22.335938 56.398438 23.089844 56.199219 23.859375 56.050781 C 23.859375 56.050781 23.871094 56.050781 23.871094 56.050781 C 23.871094 56.050781 23.871094 56.050781 23.882812 56.050781 C 24.03125 56.023438 24.160156 55.996094 24.308594 55.984375 C 24.464844 55.957031 24.636719 55.945312 24.796875 55.929688 C 25.707031 55.824219 26.648438 55.835938 27.570312 55.957031 Z M 37.195312 73.179688 C 37.179688 73.207031 37.179688 73.21875 37.167969 73.246094 C 37.179688 73.21875 37.195312 73.191406 37.195312 73.179688 Z M 37.195312 73.179688 " fill-opacity="1" fill-rule="nonzero"/></g><g clip-path="url(#id3)"><path fill="#004aad" d="M 59.679688 55.328125 C 58.6875 55.566406 57.722656 55.957031 56.796875 56.414062 C 56.464844 56.574219 56.148438 56.761719 55.832031 56.949219 C 55.765625 56.988281 55.6875 57.042969 55.621094 57.082031 C 55.066406 57.433594 54.535156 57.835938 54.035156 58.265625 C 53.742188 58.519531 53.453125 58.789062 53.175781 59.070312 C 52.488281 59.765625 51.867188 60.558594 51.335938 61.390625 C 51.074219 61.804688 50.835938 62.234375 50.609375 62.675781 C 50.570312 62.746094 50.542969 62.824219 50.503906 62.890625 C 50.320312 63.292969 50.148438 63.695312 49.988281 64.113281 C 49.988281 64.125 49.988281 64.125 49.976562 64.140625 C 49.621094 65.078125 49.394531 66.070312 49.261719 67.0625 C 49.117188 68.136719 49.089844 69.210938 49.183594 70.296875 C 49.367188 72.375 50.015625 74.386719 51.046875 76.183594 C 51.550781 77.054688 52.15625 77.859375 52.816406 78.597656 C 53.492188 79.351562 54.273438 80.007812 55.078125 80.597656 C 55.910156 81.199219 56.808594 81.671875 57.75 82.074219 C 58.6875 82.460938 59.652344 82.742188 60.65625 82.917969 C 62.769531 83.28125 64.9375 83.144531 67 82.527344 C 69.007812 81.925781 70.847656 80.824219 72.40625 79.402344 C 73.898438 78.023438 75.0625 76.292969 75.84375 74.402344 C 76.636719 72.46875 76.980469 70.351562 76.875 68.242188 C 76.769531 66.136719 76.171875 64.085938 75.183594 62.234375 C 74.707031 61.347656 74.125 60.53125 73.476562 59.765625 C 72.828125 58.988281 72.074219 58.316406 71.28125 57.699219 C 70.515625 57.109375 69.671875 56.613281 68.796875 56.199219 C 67.859375 55.769531 66.894531 55.433594 65.890625 55.21875 C 64.953125 55.019531 64 54.925781 63.046875 54.925781 C 61.925781 54.925781 60.789062 55.058594 59.679688 55.328125 Z M 64.675781 56.695312 C 65.746094 56.855469 66.789062 57.136719 67.792969 57.554688 C 68.757812 57.984375 69.65625 58.519531 70.503906 59.148438 C 71.335938 59.808594 72.074219 60.570312 72.738281 61.402344 C 73.371094 62.246094 73.898438 63.171875 74.324219 64.152344 C 74.734375 65.171875 75.023438 66.246094 75.183594 67.332031 C 75.3125 68.445312 75.3125 69.558594 75.183594 70.65625 C 75.023438 71.746094 74.746094 72.804688 74.335938 73.824219 C 73.914062 74.804688 73.382812 75.726562 72.75 76.585938 C 72.089844 77.433594 71.347656 78.183594 70.53125 78.839844 C 69.683594 79.484375 68.757812 80.035156 67.792969 80.464844 C 66.789062 80.878906 65.757812 81.160156 64.6875 81.320312 C 63.605469 81.457031 62.507812 81.457031 61.410156 81.320312 C 60.351562 81.160156 59.308594 80.878906 58.316406 80.464844 C 57.339844 80.035156 56.425781 79.496094 55.582031 78.839844 C 54.746094 78.167969 54.007812 77.417969 53.347656 76.574219 C 52.710938 75.714844 52.183594 74.804688 51.761719 73.808594 C 51.351562 72.789062 51.074219 71.730469 50.914062 70.644531 C 50.78125 69.53125 50.78125 68.417969 50.914062 67.316406 C 51.058594 66.285156 51.324219 65.28125 51.707031 64.3125 C 51.707031 64.3125 51.707031 64.3125 51.707031 64.300781 C 51.707031 64.300781 51.707031 64.285156 51.707031 64.285156 C 51.722656 64.246094 51.734375 64.207031 51.761719 64.167969 C 51.839844 63.976562 51.917969 63.789062 52.011719 63.617188 C 52.011719 63.617188 52.011719 63.601562 52.011719 63.601562 C 52.011719 63.589844 52.023438 63.574219 52.023438 63.5625 C 52.394531 62.796875 52.832031 62.074219 53.347656 61.390625 C 53.996094 60.558594 54.746094 59.792969 55.566406 59.136719 C 55.59375 59.109375 55.621094 59.097656 55.644531 59.070312 C 55.644531 59.070312 55.660156 59.070312 55.660156 59.054688 C 55.671875 59.054688 55.671875 59.042969 55.6875 59.042969 C 56.464844 58.464844 57.296875 57.96875 58.183594 57.566406 C 58.199219 57.566406 58.210938 57.554688 58.222656 57.554688 C 58.222656 57.554688 58.238281 57.554688 58.238281 57.539062 C 58.25 57.539062 58.25 57.527344 58.261719 57.527344 C 58.277344 57.527344 58.289062 57.511719 58.289062 57.511719 C 58.328125 57.5 58.371094 57.484375 58.410156 57.460938 C 59.375 57.070312 60.378906 56.800781 61.410156 56.640625 C 62.492188 56.5625 63.589844 56.5625 64.675781 56.695312 Z M 64.675781 56.695312 " fill-opacity="1" fill-rule="nonzero"/></g><path fill="#004aad" d="M 44 63.550781 C 43.550781 63.574219 43.089844 63.644531 42.652344 63.761719 C 42.496094 63.804688 42.347656 63.84375 42.191406 63.898438 C 41.78125 64.03125 41.371094 64.234375 41 64.449219 C 40.84375 64.542969 40.683594 64.648438 40.539062 64.757812 C 40.539062 64.757812 40.523438 64.769531 40.523438 64.769531 C 40.511719 64.78125 40.5 64.796875 40.472656 64.808594 C 40.339844 64.917969 40.207031 65.011719 40.074219 65.132812 C 39.601562 65.519531 39.21875 65.992188 38.859375 66.488281 C 38.636719 66.820312 38.4375 67.171875 38.277344 67.546875 C 38.277344 67.546875 38.277344 67.558594 38.265625 67.558594 C 38.265625 67.558594 38.265625 67.574219 38.265625 67.574219 C 38.265625 67.585938 38.25 67.601562 38.25 67.601562 C 38.210938 67.667969 38.1875 67.734375 38.171875 67.800781 C 38.171875 67.816406 38.160156 67.816406 38.160156 67.828125 C 38.082031 68.027344 38.144531 68.296875 38.238281 68.472656 C 38.34375 68.660156 38.53125 68.792969 38.726562 68.859375 C 38.9375 68.914062 39.175781 68.886719 39.363281 68.78125 C 39.414062 68.738281 39.46875 68.6875 39.535156 68.644531 C 39.625 68.539062 39.707031 68.429688 39.746094 68.296875 C 39.917969 67.910156 40.128906 67.546875 40.378906 67.199219 C 40.644531 66.863281 40.949219 66.554688 41.277344 66.285156 C 41.621094 66.03125 41.992188 65.816406 42.375 65.628906 C 42.785156 65.46875 43.195312 65.347656 43.632812 65.28125 C 44.082031 65.226562 44.515625 65.226562 44.964844 65.28125 C 45.230469 65.320312 45.496094 65.386719 45.746094 65.46875 C 45.757812 65.46875 45.757812 65.46875 45.773438 65.46875 C 45.773438 65.46875 45.785156 65.46875 45.785156 65.46875 C 45.929688 65.507812 46.089844 65.5625 46.234375 65.628906 C 46.632812 65.800781 47.003906 66.03125 47.347656 66.285156 C 47.371094 66.3125 47.410156 66.339844 47.4375 66.367188 C 47.730469 66.621094 47.992188 66.890625 48.230469 67.183594 C 48.441406 67.480469 48.640625 67.800781 48.800781 68.121094 C 48.800781 68.121094 48.800781 68.136719 48.8125 68.136719 C 48.839844 68.191406 48.867188 68.242188 48.890625 68.3125 C 48.996094 68.59375 49.089844 68.859375 49.15625 69.15625 C 49.195312 69.304688 49.222656 69.449219 49.25 69.613281 C 49.261719 69.734375 49.277344 69.867188 49.277344 69.988281 C 49.277344 69.988281 49.277344 70 49.277344 70 C 49.277344 70.015625 49.277344 70.027344 49.277344 70.042969 C 49.277344 70.042969 49.277344 70.054688 49.277344 70.054688 C 49.277344 70.066406 49.277344 70.082031 49.277344 70.09375 C 49.277344 70.09375 49.277344 70.109375 49.277344 70.109375 C 49.277344 70.121094 49.277344 70.136719 49.277344 70.148438 C 49.277344 70.148438 49.277344 70.160156 49.277344 70.160156 C 49.277344 70.175781 49.277344 70.1875 49.277344 70.203125 C 49.277344 70.203125 49.277344 70.203125 49.277344 70.214844 C 49.277344 70.230469 49.277344 70.242188 49.277344 70.269531 C 49.277344 70.28125 49.277344 70.308594 49.277344 70.324219 C 49.277344 70.777344 49.660156 71.167969 50.109375 71.167969 C 50.558594 71.167969 50.925781 70.792969 50.941406 70.324219 C 50.941406 69.679688 50.863281 69.023438 50.675781 68.390625 C 50.675781 68.390625 50.675781 68.378906 50.675781 68.378906 C 50.636719 68.242188 50.597656 68.097656 50.542969 67.960938 C 50.4375 67.679688 50.320312 67.398438 50.175781 67.144531 C 50.070312 66.941406 49.949219 66.726562 49.816406 66.539062 C 49.621094 66.246094 49.394531 65.949219 49.144531 65.695312 C 49.117188 65.667969 49.089844 65.628906 49.0625 65.601562 C 48.984375 65.519531 48.90625 65.441406 48.8125 65.359375 C 48.546875 65.105469 48.257812 64.875 47.953125 64.675781 C 47.753906 64.542969 47.558594 64.421875 47.347656 64.328125 C 47.253906 64.273438 47.160156 64.234375 47.054688 64.191406 C 47.015625 64.179688 46.976562 64.152344 46.9375 64.140625 C 46.59375 63.992188 46.234375 63.871094 45.867188 63.777344 C 45.746094 63.75 45.628906 63.722656 45.496094 63.695312 C 45.21875 63.644531 44.925781 63.617188 44.636719 63.601562 C 44.621094 63.601562 44.597656 63.601562 44.582031 63.601562 C 44.503906 63.601562 44.410156 63.601562 44.332031 63.601562 C 44.214844 63.535156 44.105469 63.535156 44 63.550781 Z M 44 63.550781 " fill-opacity="1" fill-rule="nonzero"/><g fill="#004aad" fill-opacity="1"><g transform="translate(89.073562, 66.13126)"><g><path d="M 2.230469 0 L 8.320312 0 L 8.320312 -6.269531 L 15.375 -6.269531 L 15.375 -11.546875 L 8.320312 -11.546875 L 8.320312 -15.675781 L 16.15625 -15.675781 L 16.15625 -21.101562 L 2.230469 -21.101562 Z M 2.230469 0 "/></g></g></g><g fill="#004aad" fill-opacity="1"><g transform="translate(106.375226, 66.13126)"><g><path d="M 2.230469 0 L 8.320312 0 L 8.320312 -6 L 10.609375 -6 L 13.625 0 L 20.527344 0 L 16.640625 -7.113281 C 18.871094 -8.351562 20.136719 -10.582031 20.136719 -13.535156 C 20.136719 -18.207031 16.972656 -21.101562 11.847656 -21.101562 L 2.230469 -21.101562 Z M 8.199219 -10.851562 L 8.199219 -16.128906 L 11.03125 -16.128906 C 12.960938 -16.128906 14.015625 -15.191406 14.015625 -13.503906 C 14.015625 -11.816406 12.960938 -10.851562 11.03125 -10.851562 Z M 8.199219 -10.851562 "/></g></g></g><g fill="#004aad" fill-opacity="1"><g transform="translate(128.077667, 66.13126)"><g><path d="M 2.230469 0 L 17.03125 0 L 17.03125 -4.972656 L 8.257812 -4.972656 L 8.257812 -8.230469 L 15.886719 -8.230469 L 15.886719 -13.113281 L 8.257812 -13.113281 L 8.257812 -16.1875 L 16.699219 -16.1875 L 16.699219 -21.101562 L 2.230469 -21.101562 Z M 2.230469 0 "/></g></g></g><g fill="#004aad" fill-opacity="1"><g transform="translate(146.46445, 66.13126)"><g><path d="M 2.230469 0 L 17.03125 0 L 17.03125 -4.972656 L 8.257812 -4.972656 L 8.257812 -8.230469 L 15.886719 -8.230469 L 15.886719 -13.113281 L 8.257812 -13.113281 L 8.257812 -16.1875 L 16.699219 -16.1875 L 16.699219 -21.101562 L 2.230469 -21.101562 Z M 2.230469 0 "/></g></g></g><g fill="#004aad" fill-opacity="1"><g transform="translate(164.851234, 66.13126)"><g><path d="M 2.230469 0 L 16.941406 0 L 16.941406 -5.636719 L 8.320312 -5.636719 L 8.320312 -21.101562 L 2.230469 -21.101562 Z M 2.230469 0 "/></g></g></g><g fill="#004aad" fill-opacity="1"><g transform="translate(182.544754, 66.13126)"><g><path d="M 0.152344 0 L 6.601562 0 L 7.746094 -2.984375 L 14.953125 -2.984375 L 16.097656 0 L 22.578125 0 L 14.378906 -21.101562 L 8.351562 -21.101562 Z M 9.011719 -7.445312 L 11.363281 -13.988281 L 13.714844 -7.445312 Z M 9.011719 -7.445312 "/></g></g></g><g fill="#004aad" fill-opacity="1"><g transform="translate(205.272028, 66.13126)"><g><path d="M 2.230469 0 L 8.257812 0 L 8.257812 -10.761719 L 16.277344 0 L 21.222656 0 L 21.222656 -21.101562 L 15.222656 -21.101562 L 15.222656 -10.398438 L 7.203125 -21.101562 L 2.230469 -21.101562 Z M 2.230469 0 "/></g></g></g><g fill="#004aad" fill-opacity="1"><g transform="translate(228.752864, 66.13126)"><g><path d="M 12.085938 0.453125 C 17.90625 0.453125 22.308594 -3.074219 23.210938 -8.441406 L 17.03125 -8.441406 C 16.277344 -6.449219 14.5 -5.183594 12.207031 -5.183594 C 9.253906 -5.183594 7.203125 -7.386719 7.203125 -10.550781 C 7.203125 -13.746094 9.285156 -15.917969 12.269531 -15.917969 C 14.46875 -15.917969 16.308594 -14.679688 16.941406 -12.78125 L 23.089844 -12.78125 C 22.003906 -18.117188 17.664062 -21.554688 12.027344 -21.554688 C 5.515625 -21.554688 1.023438 -17.0625 1.023438 -10.550781 C 1.023438 -4.039062 5.515625 0.453125 12.085938 0.453125 Z M 12.085938 0.453125 "/></g></g></g><g fill="#004aad" fill-opacity="1"><g transform="translate(252.926965, 66.13126)"><g><path d="M 2.230469 0 L 17.03125 0 L 17.03125 -4.972656 L 8.257812 -4.972656 L 8.257812 -8.230469 L 15.886719 -8.230469 L 15.886719 -13.113281 L 8.257812 -13.113281 L 8.257812 -16.1875 L 16.699219 -16.1875 L 16.699219 -21.101562 L 2.230469 -21.101562 Z M 2.230469 0 "/></g></g></g><g fill="#004aad" fill-opacity="1"><g transform="translate(271.313748, 66.13126)"><g><path d="M 2.230469 0 L 13.050781 0 C 17.332031 0 20.316406 -2.410156 20.316406 -5.878906 C 20.316406 -8.109375 19.113281 -9.917969 17.121094 -10.792969 C 18.75 -11.726562 19.683594 -13.414062 19.683594 -15.433594 C 19.683594 -18.902344 16.910156 -21.101562 12.511719 -21.101562 L 2.230469 -21.101562 Z M 8.199219 -4.523438 L 8.199219 -8.46875 L 11.875 -8.46875 C 13.324219 -8.46875 14.136719 -7.746094 14.136719 -6.511719 C 14.136719 -5.246094 13.324219 -4.523438 11.875 -4.523438 Z M 8.199219 -12.8125 L 8.199219 -16.609375 L 11.363281 -16.609375 C 12.78125 -16.609375 13.566406 -15.917969 13.566406 -14.710938 C 13.566406 -13.472656 12.78125 -12.8125 11.363281 -12.8125 Z M 8.199219 -12.8125 "/></g></g></g><g fill="#004aad" fill-opacity="1"><g transform="translate(292.503772, 66.13126)"><g><path d="M 12.511719 0.453125 C 19.230469 0.453125 23.996094 -4.101562 23.996094 -10.550781 C 23.996094 -17 19.230469 -21.554688 12.511719 -21.554688 C 5.789062 -21.554688 1.023438 -17 1.023438 -10.550781 C 1.023438 -4.101562 5.789062 0.453125 12.511719 0.453125 Z M 7.203125 -10.550781 C 7.203125 -13.714844 9.40625 -15.917969 12.511719 -15.917969 C 15.644531 -15.917969 17.816406 -13.714844 17.816406 -10.550781 C 17.816406 -7.386719 15.644531 -5.183594 12.511719 -5.183594 C 9.40625 -5.183594 7.203125 -7.386719 7.203125 -10.550781 Z M 7.203125 -10.550781 "/></g></g></g><g fill="#004aad" fill-opacity="1"><g transform="translate(317.552008, 66.13126)"><g><path d="M 12.511719 0.453125 C 19.230469 0.453125 23.996094 -4.101562 23.996094 -10.550781 C 23.996094 -17 19.230469 -21.554688 12.511719 -21.554688 C 5.789062 -21.554688 1.023438 -17 1.023438 -10.550781 C 1.023438 -4.101562 5.789062 0.453125 12.511719 0.453125 Z M 7.203125 -10.550781 C 7.203125 -13.714844 9.40625 -15.917969 12.511719 -15.917969 C 15.644531 -15.917969 17.816406 -13.714844 17.816406 -10.550781 C 17.816406 -7.386719 15.644531 -5.183594 12.511719 -5.183594 C 9.40625 -5.183594 7.203125 -7.386719 7.203125 -10.550781 Z M 7.203125 -10.550781 "/></g></g></g><g fill="#004aad" fill-opacity="1"><g transform="translate(342.600243, 66.13126)"><g><path d="M 2.230469 0 L 8.320312 0 L 8.320312 -7.988281 L 10.972656 -7.988281 L 15.011719 0 L 22.066406 0 L 16.519531 -10.25 C 17.152344 -11.003906 17.726562 -11.996094 18.207031 -13.234375 L 21.34375 -21.101562 L 14.742188 -21.101562 L 12.839844 -15.824219 C 12.207031 -13.988281 11.515625 -13.535156 9.34375 -13.535156 L 8.320312 -13.535156 L 8.320312 -21.101562 L 2.230469 -21.101562 Z M 2.230469 0 "/></g></g></g></svg>