<svg xmlns="http://www.w3.org/2000/svg" xmlns:xlink="http://www.w3.org/1999/xlink" width="500" zoomAndPan="magnify" viewBox="0 0 375 112.499997" height="150" preserveAspectRatio="xMidYMid meet" version="1.0"><defs><g/><clipPath id="id1"><path d="M 266.289062 26 L 329 26 L 329 55 L 266.289062 55 Z M 266.289062 26 " clip-rule="nonzero"/></clipPath><clipPath id="id2"><path d="M 266.289062 50.375 L 295 50.375 L 295 79 L 266.289062 79 Z M 266.289062 50.375 " clip-rule="nonzero"/></clipPath><clipPath id="id3"><path d="M 303 51 L 331.25 51 L 331.25 79.496094 L 303 79.496094 Z M 303 51 " clip-rule="nonzero"/></clipPath></defs><g fill="#f5f5f5" fill-opacity="1"><g transform="translate(16.346258, 77.4078)"><g><path d="M 2.710938 0 L 10.105469 0 L 10.105469 -7.613281 L 18.671875 -7.613281 L 18.671875 -14.023438 L 10.105469 -14.023438 L 10.105469 -19.035156 L 19.621094 -19.035156 L 19.621094 -25.625 L 2.710938 -25.625 Z M 2.710938 0 "/></g></g></g><g fill="#f5f5f5" fill-opacity="1"><g transform="translate(37.354066, 77.4078)"><g><path d="M 2.710938 0 L 10.105469 0 L 10.105469 -7.285156 L 12.886719 -7.285156 L 16.546875 0 L 24.929688 0 L 20.207031 -8.640625 C 22.917969 -10.140625 24.457031 -12.851562 24.457031 -16.4375 C 24.457031 -22.113281 20.609375 -25.625 14.386719 -25.625 L 2.710938 -25.625 Z M 9.957031 -13.179688 L 9.957031 -19.585938 L 13.398438 -19.585938 C 15.742188 -19.585938 17.023438 -18.453125 17.023438 -16.402344 C 17.023438 -14.351562 15.742188 -13.179688 13.398438 -13.179688 Z M 9.957031 -13.179688 "/></g></g></g><g fill="#f5f5f5" fill-opacity="1"><g transform="translate(63.705334, 77.4078)"><g><path d="M 2.710938 0 L 20.683594 0 L 20.683594 -6.039062 L 10.03125 -6.039062 L 10.03125 -9.996094 L 19.292969 -9.996094 L 19.292969 -15.925781 L 10.03125 -15.925781 L 10.03125 -19.660156 L 20.28125 -19.660156 L 20.28125 -25.625 L 2.710938 -25.625 Z M 2.710938 0 "/></g></g></g><g fill="#f5f5f5" fill-opacity="1"><g transform="translate(86.030715, 77.4078)"><g><path d="M 2.710938 0 L 20.683594 0 L 20.683594 -6.039062 L 10.03125 -6.039062 L 10.03125 -9.996094 L 19.292969 -9.996094 L 19.292969 -15.925781 L 10.03125 -15.925781 L 10.03125 -19.660156 L 20.28125 -19.660156 L 20.28125 -25.625 L 2.710938 -25.625 Z M 2.710938 0 "/></g></g></g><g fill="#f5f5f5" fill-opacity="1"><g transform="translate(108.356096, 77.4078)"><g><path d="M 2.710938 0 L 20.574219 0 L 20.574219 -6.847656 L 10.105469 -6.847656 L 10.105469 -25.625 L 2.710938 -25.625 Z M 2.710938 0 "/></g></g></g><g fill="#f5f5f5" fill-opacity="1"><g transform="translate(129.839694, 77.4078)"><g><path d="M 0.183594 0 L 8.015625 0 L 9.410156 -3.625 L 18.160156 -3.625 L 19.550781 0 L 27.421875 0 L 17.460938 -25.625 L 10.140625 -25.625 Z M 10.945312 -9.042969 L 13.800781 -16.988281 L 16.65625 -9.042969 Z M 10.945312 -9.042969 "/></g></g></g><g fill="#f5f5f5" fill-opacity="1"><g transform="translate(157.435322, 77.4078)"><g><path d="M 2.710938 0 L 10.03125 0 L 10.03125 -13.070312 L 19.769531 0 L 25.773438 0 L 25.773438 -25.625 L 18.488281 -25.625 L 18.488281 -12.628906 L 8.75 -25.625 L 2.710938 -25.625 Z M 2.710938 0 "/></g></g></g><g fill="#f5f5f5" fill-opacity="1"><g transform="translate(185.945924, 77.4078)"><g><path d="M 14.679688 0.550781 C 21.746094 0.550781 27.089844 -3.734375 28.191406 -10.25 L 20.683594 -10.25 C 19.769531 -7.835938 17.609375 -6.296875 14.828125 -6.296875 C 11.238281 -6.296875 8.75 -8.96875 8.75 -12.8125 C 8.75 -16.695312 11.277344 -19.328125 14.898438 -19.328125 C 17.574219 -19.328125 19.804688 -17.828125 20.574219 -15.523438 L 28.042969 -15.523438 C 26.726562 -22.003906 21.453125 -26.175781 14.605469 -26.175781 C 6.699219 -26.175781 1.246094 -20.722656 1.246094 -12.8125 C 1.246094 -4.90625 6.699219 0.550781 14.679688 0.550781 Z M 14.679688 0.550781 "/></g></g></g><g fill="#f5f5f5" fill-opacity="1"><g transform="translate(215.298308, 77.4078)"><g><path d="M 2.710938 0 L 20.683594 0 L 20.683594 -6.039062 L 10.03125 -6.039062 L 10.03125 -9.996094 L 19.292969 -9.996094 L 19.292969 -15.925781 L 10.03125 -15.925781 L 10.03125 -19.660156 L 20.28125 -19.660156 L 20.28125 -25.625 L 2.710938 -25.625 Z M 2.710938 0 "/></g></g></g><g fill="#f5f5f5" fill-opacity="1"><g transform="translate(237.623689, 77.4078)"><g><path d="M 2.710938 0 L 15.851562 0 C 21.050781 0 24.675781 -2.929688 24.675781 -7.140625 C 24.675781 -9.847656 23.210938 -12.042969 20.792969 -13.105469 C 22.769531 -14.242188 23.90625 -16.292969 23.90625 -18.746094 C 23.90625 -22.953125 20.539062 -25.625 15.191406 -25.625 L 2.710938 -25.625 Z M 9.957031 -5.492188 L 9.957031 -10.289062 L 14.425781 -10.289062 C 16.179688 -10.289062 17.171875 -9.410156 17.171875 -7.90625 C 17.171875 -6.371094 16.179688 -5.492188 14.425781 -5.492188 Z M 9.957031 -15.558594 L 9.957031 -20.171875 L 13.800781 -20.171875 C 15.523438 -20.171875 16.472656 -19.328125 16.472656 -17.867188 C 16.472656 -16.363281 15.523438 -15.558594 13.800781 -15.558594 Z M 9.957031 -15.558594 "/></g></g></g><g fill="#f5f5f5" fill-opacity="1"><g transform="translate(263.346119, 77.4078)"><g/></g></g><g fill="#f5f5f5" fill-opacity="1"><g transform="translate(271.800484, 77.4078)"><g/></g></g><g fill="#f5f5f5" fill-opacity="1"><g transform="translate(280.254848, 77.4078)"><g/></g></g><g fill="#f5f5f5" fill-opacity="1"><g transform="translate(288.709212, 77.4078)"><g/></g></g><g fill="#f5f5f5" fill-opacity="1"><g transform="translate(297.163576, 77.4078)"><g/></g></g><g fill="#f5f5f5" fill-opacity="1"><g transform="translate(305.61794, 77.4078)"><g/></g></g><g fill="#f5f5f5" fill-opacity="1"><g transform="translate(314.072304, 77.4078)"><g/></g></g><g fill="#f5f5f5" fill-opacity="1"><g transform="translate(322.526668, 77.4078)"><g/></g></g><g fill="#f5f5f5" fill-opacity="1"><g transform="translate(330.979121, 77.4078)"><g><path d="M 2.710938 0 L 10.105469 0 L 10.105469 -9.703125 L 13.324219 -9.703125 L 18.230469 0 L 26.796875 0 L 20.0625 -12.449219 C 20.832031 -13.363281 21.527344 -14.570312 22.113281 -16.070312 L 25.917969 -25.625 L 17.902344 -25.625 L 15.597656 -19.21875 C 14.828125 -16.988281 13.984375 -16.4375 11.347656 -16.4375 L 10.105469 -16.4375 L 10.105469 -25.625 L 2.710938 -25.625 Z M 2.710938 0 "/></g></g></g><g clip-path="url(#id1)"><path fill="#f5f5f5" d="M 270.855469 26.015625 C 279.558594 26.015625 283.148438 26.25 292.722656 40.722656 C 292.722656 40.722656 297.882812 47.71875 304.148438 47.363281 C 304.148438 47.363281 308.445312 48.308594 312.269531 39.296875 C 316.097656 30.285156 319.226562 25.300781 328.972656 26.605469 C 328.972656 26.605469 324.449219 30.636719 323.808594 32.359375 C 323.171875 34.078125 312.8125 46.886719 307.148438 47.777344 C 307.976562 48.015625 309.140625 48.308594 311.105469 47.953125 C 311.105469 47.953125 313.136719 48.074219 313.457031 49.082031 C 311.457031 48.90625 304.84375 50.921875 303.453125 51.988281 C 302.0625 53.058594 297.292969 55.910156 293.46875 53.003906 C 294.285156 52.878906 298.867188 52.019531 300.984375 49.929688 C 297.421875 49.972656 291.507812 48.785156 287.09375 44.578125 C 282.691406 40.367188 272.015625 27.671875 266.332031 26.726562 L 270.855469 26.015625 " fill-opacity="1" fill-rule="nonzero"/></g><g clip-path="url(#id2)"><path fill="#f5f5f5" d="M 278.6875 50.480469 C 278.289062 50.523438 277.894531 50.589844 277.496094 50.667969 C 277.363281 50.695312 277.21875 50.722656 277.085938 50.75 C 276.863281 50.789062 276.636719 50.855469 276.414062 50.925781 C 275.660156 51.140625 274.90625 51.433594 274.191406 51.769531 C 274.179688 51.78125 274.164062 51.78125 274.140625 51.796875 C 273.914062 51.902344 273.703125 52.011719 273.492188 52.132812 C 272.699219 52.574219 271.957031 53.109375 271.269531 53.6875 C 270.753906 54.117188 270.28125 54.597656 269.832031 55.09375 C 269.765625 55.175781 269.683594 55.257812 269.617188 55.335938 C 269.195312 55.847656 268.800781 56.382812 268.457031 56.945312 C 268.179688 57.375 267.941406 57.832031 267.714844 58.300781 C 267.515625 58.71875 267.34375 59.132812 267.1875 59.5625 C 267.082031 59.871094 266.976562 60.179688 266.882812 60.488281 C 266.59375 61.46875 266.433594 62.472656 266.355469 63.492188 C 266.328125 63.761719 266.328125 64.015625 266.3125 64.285156 C 266.3125 64.3125 266.3125 64.324219 266.3125 64.351562 C 266.300781 65.195312 266.378906 66.042969 266.511719 66.871094 C 266.550781 67.15625 266.617188 67.449219 266.683594 67.730469 C 266.789062 68.1875 266.921875 68.628906 267.066406 69.074219 C 267.121094 69.234375 267.1875 69.394531 267.238281 69.554688 C 267.34375 69.808594 267.449219 70.078125 267.558594 70.320312 C 267.582031 70.386719 267.609375 70.453125 267.648438 70.519531 C 267.859375 70.976562 268.097656 71.433594 268.363281 71.863281 C 268.429688 71.96875 268.496094 72.0625 268.546875 72.171875 C 268.972656 72.828125 269.445312 73.445312 269.960938 74.007812 C 270.398438 74.492188 270.859375 74.933594 271.351562 75.351562 C 271.628906 75.589844 271.917969 75.804688 272.222656 76.019531 C 272.355469 76.113281 272.488281 76.207031 272.632812 76.300781 C 272.921875 76.503906 273.226562 76.679688 273.542969 76.851562 C 273.542969 76.851562 273.558594 76.851562 273.558594 76.867188 C 274.164062 77.199219 274.785156 77.484375 275.433594 77.722656 C 276.347656 78.074219 277.296875 78.300781 278.277344 78.433594 C 279.320312 78.582031 280.351562 78.609375 281.394531 78.515625 C 282.480469 78.421875 283.535156 78.195312 284.566406 77.859375 C 286.511719 77.214844 288.28125 76.113281 289.761719 74.691406 C 290.503906 73.996094 291.136719 73.191406 291.707031 72.359375 C 292.300781 71.488281 292.761719 70.535156 293.144531 69.554688 C 293.53125 68.578125 293.78125 67.542969 293.925781 66.496094 C 294.070312 65.410156 294.109375 64.324219 294.019531 63.222656 C 293.832031 61.132812 293.1875 59.09375 292.128906 57.28125 C 291.652344 56.421875 291.042969 55.617188 290.371094 54.882812 C 289.695312 54.144531 288.941406 53.5 288.136719 52.910156 C 287.371094 52.359375 286.539062 51.890625 285.664062 51.515625 C 284.753906 51.125 283.816406 50.816406 282.835938 50.628906 C 282.03125 50.46875 281.222656 50.386719 280.40625 50.375 C 280.378906 50.375 280.351562 50.375 280.3125 50.375 C 280.285156 50.375 280.273438 50.375 280.246094 50.375 C 279.730469 50.386719 279.214844 50.414062 278.6875 50.480469 Z M 281.832031 52.171875 C 282.902344 52.332031 283.945312 52.613281 284.9375 53.03125 C 285.917969 53.460938 286.828125 53.996094 287.675781 54.652344 C 288.492188 55.308594 289.234375 56.0625 289.882812 56.894531 C 290.527344 57.75 291.058594 58.675781 291.480469 59.667969 C 291.890625 60.6875 292.179688 61.75 292.328125 62.847656 C 292.460938 63.949219 292.460938 65.0625 292.328125 66.175781 C 292.167969 67.261719 291.878906 68.320312 291.46875 69.339844 C 291.042969 70.320312 290.515625 71.246094 289.882812 72.089844 C 289.234375 72.921875 288.492188 73.671875 287.675781 74.332031 C 286.828125 74.972656 285.917969 75.523438 284.953125 75.953125 C 283.945312 76.371094 282.902344 76.664062 281.820312 76.8125 C 280.734375 76.945312 279.652344 76.945312 278.566406 76.8125 C 277.5625 76.664062 276.585938 76.394531 275.632812 76.019531 C 275.566406 75.992188 275.5 75.96875 275.449219 75.941406 C 275.222656 75.847656 275 75.738281 274.785156 75.617188 C 274.773438 75.605469 274.761719 75.605469 274.746094 75.589844 C 274.734375 75.589844 274.734375 75.578125 274.722656 75.578125 C 274.707031 75.578125 274.707031 75.566406 274.695312 75.566406 C 274.007812 75.203125 273.347656 74.785156 272.726562 74.304688 C 272.128906 73.820312 271.574219 73.296875 271.074219 72.722656 C 271.074219 72.722656 271.074219 72.722656 271.074219 72.707031 C 271.058594 72.695312 271.058594 72.695312 271.046875 72.679688 C 271.03125 72.667969 271.03125 72.667969 271.019531 72.652344 C 271.019531 72.652344 271.019531 72.640625 271.007812 72.640625 C 270.835938 72.453125 270.675781 72.25 270.515625 72.050781 C 269.910156 71.230469 269.394531 70.347656 268.972656 69.40625 C 268.972656 69.40625 268.972656 69.394531 268.972656 69.394531 C 268.972656 69.394531 268.972656 69.382812 268.957031 69.382812 C 268.945312 69.355469 268.929688 69.3125 268.917969 69.289062 C 268.867188 69.167969 268.824219 69.058594 268.785156 68.9375 C 268.785156 68.925781 268.773438 68.910156 268.773438 68.898438 C 268.773438 68.898438 268.773438 68.898438 268.773438 68.882812 C 268.46875 68.066406 268.257812 67.234375 268.113281 66.375 C 268.113281 66.375 268.113281 66.363281 268.113281 66.363281 C 268.113281 66.347656 268.113281 66.335938 268.113281 66.335938 C 268.113281 66.324219 268.113281 66.324219 268.113281 66.308594 C 268.113281 66.308594 268.113281 66.296875 268.113281 66.296875 C 268.097656 66.242188 268.097656 66.175781 268.085938 66.121094 C 267.953125 65.007812 267.953125 63.894531 268.085938 62.796875 C 268.179688 62.203125 268.296875 61.613281 268.457031 61.050781 C 268.457031 61.039062 268.46875 61.023438 268.46875 61.011719 C 268.46875 60.996094 268.46875 60.984375 268.480469 60.984375 C 268.480469 60.984375 268.480469 60.972656 268.480469 60.972656 C 268.613281 60.527344 268.757812 60.097656 268.929688 59.667969 C 269.355469 58.691406 269.882812 57.765625 270.53125 56.90625 C 270.742188 56.625 270.96875 56.371094 271.203125 56.101562 C 271.21875 56.089844 271.21875 56.074219 271.230469 56.074219 C 271.230469 56.074219 271.230469 56.0625 271.246094 56.0625 C 271.257812 56.046875 271.257812 56.046875 271.269531 56.035156 C 271.269531 56.035156 271.285156 56.019531 271.285156 56.019531 C 271.285156 56.019531 271.296875 56.007812 271.296875 56.007812 C 271.3125 55.996094 271.3125 55.996094 271.324219 55.980469 C 271.324219 55.980469 271.335938 55.96875 271.335938 55.96875 C 271.351562 55.953125 271.351562 55.953125 271.363281 55.941406 C 271.363281 55.941406 271.363281 55.941406 271.375 55.925781 C 271.390625 55.914062 271.402344 55.902344 271.402344 55.902344 C 271.800781 55.484375 272.222656 55.09375 272.660156 54.734375 C 272.671875 54.71875 272.683594 54.707031 272.699219 54.707031 C 272.710938 54.691406 272.726562 54.691406 272.738281 54.679688 C 273.585938 54.035156 274.496094 53.484375 275.460938 53.058594 C 275.578125 53.015625 275.6875 52.964844 275.804688 52.921875 C 275.816406 52.921875 275.816406 52.921875 275.832031 52.910156 C 275.84375 52.910156 275.84375 52.910156 275.859375 52.894531 C 276.597656 52.613281 277.351562 52.414062 278.117188 52.265625 C 278.117188 52.265625 278.132812 52.265625 278.132812 52.265625 C 278.132812 52.265625 278.132812 52.265625 278.144531 52.265625 C 278.289062 52.238281 278.421875 52.210938 278.566406 52.199219 C 278.726562 52.171875 278.898438 52.15625 279.054688 52.144531 C 279.96875 52.039062 280.90625 52.050781 281.832031 52.171875 Z M 291.453125 69.394531 C 291.441406 69.421875 291.441406 69.433594 291.429688 69.460938 C 291.441406 69.433594 291.453125 69.40625 291.453125 69.394531 Z M 291.453125 69.394531 " fill-opacity="1" fill-rule="nonzero"/></g><g clip-path="url(#id3)"><path fill="#f5f5f5" d="M 313.9375 51.542969 C 312.945312 51.78125 311.980469 52.171875 311.054688 52.628906 C 310.726562 52.789062 310.410156 52.976562 310.089844 53.164062 C 310.023438 53.203125 309.945312 53.257812 309.878906 53.296875 C 309.324219 53.648438 308.796875 54.050781 308.292969 54.480469 C 308.003906 54.734375 307.710938 55 307.433594 55.285156 C 306.746094 55.980469 306.125 56.773438 305.597656 57.605469 C 305.332031 58.019531 305.09375 58.449219 304.871094 58.890625 C 304.832031 58.957031 304.804688 59.039062 304.765625 59.105469 C 304.578125 59.507812 304.40625 59.910156 304.25 60.328125 C 304.25 60.339844 304.25 60.339844 304.234375 60.355469 C 303.878906 61.292969 303.65625 62.285156 303.523438 63.277344 C 303.375 64.351562 303.351562 65.425781 303.441406 66.511719 C 303.628906 68.589844 304.277344 70.601562 305.308594 72.398438 C 305.808594 73.269531 306.417969 74.074219 307.078125 74.8125 C 307.75 75.566406 308.53125 76.222656 309.339844 76.8125 C 310.171875 77.414062 311.070312 77.886719 312.007812 78.289062 C 312.945312 78.675781 313.910156 78.957031 314.914062 79.132812 C 317.03125 79.496094 319.199219 79.359375 321.261719 78.742188 C 323.269531 78.140625 325.105469 77.039062 326.667969 75.617188 C 328.160156 74.238281 329.324219 72.507812 330.101562 70.613281 C 330.894531 68.683594 331.238281 66.5625 331.132812 64.457031 C 331.027344 62.351562 330.433594 60.300781 329.441406 58.449219 C 328.964844 57.5625 328.386719 56.746094 327.738281 55.980469 C 327.089844 55.203125 326.335938 54.53125 325.542969 53.914062 C 324.777344 53.324219 323.929688 52.828125 323.058594 52.414062 C 322.121094 51.984375 321.15625 51.648438 320.148438 51.433594 C 319.210938 51.234375 318.261719 51.140625 317.308594 51.140625 C 316.183594 51.140625 315.046875 51.273438 313.9375 51.542969 Z M 318.933594 52.910156 C 320.003906 53.070312 321.050781 53.351562 322.054688 53.769531 C 323.019531 54.195312 323.917969 54.734375 324.761719 55.363281 C 325.597656 56.019531 326.335938 56.785156 326.996094 57.617188 C 327.632812 58.460938 328.160156 59.386719 328.582031 60.367188 C 328.992188 61.386719 329.285156 62.460938 329.441406 63.546875 C 329.574219 64.660156 329.574219 65.773438 329.441406 66.871094 C 329.285156 67.960938 329.007812 69.019531 328.597656 70.039062 C 328.171875 71.015625 327.644531 71.941406 327.011719 72.800781 C 326.347656 73.648438 325.609375 74.398438 324.789062 75.054688 C 323.945312 75.699219 323.019531 76.25 322.054688 76.679688 C 321.050781 77.09375 320.019531 77.375 318.949219 77.535156 C 317.863281 77.671875 316.765625 77.671875 315.667969 77.535156 C 314.613281 77.375 313.566406 77.09375 312.578125 76.679688 C 311.597656 76.25 310.6875 75.710938 309.839844 75.054688 C 309.007812 74.382812 308.265625 73.632812 307.605469 72.789062 C 306.972656 71.929688 306.445312 71.015625 306.019531 70.023438 C 305.609375 69.003906 305.332031 67.945312 305.175781 66.859375 C 305.042969 65.746094 305.042969 64.632812 305.175781 63.53125 C 305.320312 62.5 305.585938 61.492188 305.96875 60.527344 C 305.96875 60.527344 305.96875 60.527344 305.96875 60.515625 C 305.96875 60.515625 305.96875 60.5 305.96875 60.5 C 305.980469 60.460938 305.992188 60.421875 306.019531 60.378906 C 306.101562 60.191406 306.179688 60.003906 306.273438 59.832031 C 306.273438 59.832031 306.273438 59.816406 306.273438 59.816406 C 306.273438 59.804688 306.285156 59.789062 306.285156 59.777344 C 306.65625 59.011719 307.089844 58.289062 307.605469 57.605469 C 308.253906 56.773438 309.007812 56.007812 309.828125 55.351562 C 309.855469 55.324219 309.878906 55.308594 309.90625 55.285156 C 309.90625 55.285156 309.917969 55.285156 309.917969 55.269531 C 309.933594 55.269531 309.933594 55.257812 309.945312 55.257812 C 310.726562 54.679688 311.558594 54.183594 312.445312 53.78125 C 312.457031 53.78125 312.46875 53.769531 312.484375 53.769531 C 312.484375 53.769531 312.496094 53.769531 312.496094 53.753906 C 312.511719 53.753906 312.511719 53.742188 312.523438 53.742188 C 312.535156 53.742188 312.550781 53.726562 312.550781 53.726562 C 312.589844 53.714844 312.628906 53.699219 312.667969 53.675781 C 313.632812 53.285156 314.636719 53.015625 315.667969 52.855469 C 316.753906 52.773438 317.851562 52.773438 318.933594 52.910156 Z M 318.933594 52.910156 " fill-opacity="1" fill-rule="nonzero"/></g><path fill="#f5f5f5" d="M 298.261719 59.761719 C 297.8125 59.789062 297.347656 59.859375 296.914062 59.976562 C 296.753906 60.019531 296.609375 60.058594 296.449219 60.113281 C 296.042969 60.246094 295.632812 60.449219 295.261719 60.664062 C 295.101562 60.757812 294.945312 60.863281 294.796875 60.972656 C 294.796875 60.972656 294.785156 60.984375 294.785156 60.984375 C 294.773438 60.996094 294.757812 61.011719 294.734375 61.023438 C 294.601562 61.132812 294.46875 61.226562 294.335938 61.347656 C 293.859375 61.734375 293.476562 62.203125 293.121094 62.699219 C 292.894531 63.035156 292.695312 63.386719 292.539062 63.761719 C 292.539062 63.761719 292.539062 63.773438 292.523438 63.773438 C 292.523438 63.773438 292.523438 63.789062 292.523438 63.789062 C 292.523438 63.800781 292.511719 63.8125 292.511719 63.8125 C 292.472656 63.882812 292.445312 63.949219 292.433594 64.015625 C 292.433594 64.027344 292.417969 64.027344 292.417969 64.042969 C 292.339844 64.242188 292.40625 64.511719 292.5 64.6875 C 292.605469 64.875 292.789062 65.007812 292.988281 65.074219 C 293.199219 65.128906 293.4375 65.101562 293.621094 64.996094 C 293.675781 64.953125 293.726562 64.902344 293.792969 64.859375 C 293.886719 64.753906 293.964844 64.644531 294.003906 64.511719 C 294.175781 64.121094 294.390625 63.761719 294.640625 63.410156 C 294.902344 63.078125 295.207031 62.769531 295.539062 62.5 C 295.882812 62.246094 296.253906 62.03125 296.636719 61.84375 C 297.046875 61.683594 297.457031 61.5625 297.890625 61.492188 C 298.339844 61.441406 298.777344 61.441406 299.226562 61.492188 C 299.492188 61.535156 299.753906 61.601562 300.007812 61.683594 C 300.019531 61.683594 300.019531 61.683594 300.03125 61.683594 C 300.03125 61.683594 300.046875 61.683594 300.046875 61.683594 C 300.191406 61.722656 300.351562 61.777344 300.496094 61.84375 C 300.890625 62.015625 301.261719 62.246094 301.605469 62.5 C 301.632812 62.527344 301.671875 62.554688 301.699219 62.582031 C 301.988281 62.835938 302.253906 63.105469 302.492188 63.398438 C 302.703125 63.695312 302.902344 64.015625 303.058594 64.335938 C 303.058594 64.335938 303.058594 64.351562 303.074219 64.351562 C 303.097656 64.40625 303.125 64.457031 303.152344 64.523438 C 303.257812 64.808594 303.351562 65.074219 303.417969 65.371094 C 303.457031 65.519531 303.484375 65.664062 303.507812 65.828125 C 303.523438 65.945312 303.535156 66.082031 303.535156 66.203125 C 303.535156 66.203125 303.535156 66.214844 303.535156 66.214844 C 303.535156 66.230469 303.535156 66.242188 303.535156 66.253906 C 303.535156 66.253906 303.535156 66.269531 303.535156 66.269531 C 303.535156 66.28125 303.535156 66.296875 303.535156 66.308594 C 303.535156 66.308594 303.535156 66.324219 303.535156 66.324219 C 303.535156 66.335938 303.535156 66.347656 303.535156 66.363281 C 303.535156 66.363281 303.535156 66.375 303.535156 66.375 C 303.535156 66.390625 303.535156 66.402344 303.535156 66.417969 C 303.535156 66.417969 303.535156 66.417969 303.535156 66.429688 C 303.535156 66.445312 303.535156 66.457031 303.535156 66.484375 C 303.535156 66.496094 303.535156 66.523438 303.535156 66.539062 C 303.535156 66.992188 303.917969 67.382812 304.367188 67.382812 C 304.816406 67.382812 305.1875 67.007812 305.199219 66.539062 C 305.199219 65.894531 305.121094 65.234375 304.9375 64.605469 C 304.9375 64.605469 304.9375 64.59375 304.9375 64.59375 C 304.898438 64.457031 304.855469 64.3125 304.804688 64.175781 C 304.699219 63.894531 304.578125 63.613281 304.433594 63.359375 C 304.328125 63.15625 304.210938 62.941406 304.078125 62.753906 C 303.878906 62.460938 303.65625 62.164062 303.402344 61.910156 C 303.375 61.882812 303.351562 61.84375 303.324219 61.816406 C 303.246094 61.734375 303.164062 61.65625 303.074219 61.574219 C 302.808594 61.320312 302.519531 61.089844 302.214844 60.890625 C 302.015625 60.757812 301.816406 60.636719 301.605469 60.542969 C 301.511719 60.488281 301.421875 60.449219 301.316406 60.40625 C 301.273438 60.394531 301.234375 60.367188 301.195312 60.355469 C 300.851562 60.207031 300.496094 60.085938 300.125 59.992188 C 300.007812 59.964844 299.886719 59.9375 299.753906 59.910156 C 299.476562 59.859375 299.1875 59.832031 298.894531 59.816406 C 298.882812 59.816406 298.855469 59.816406 298.84375 59.816406 C 298.765625 59.816406 298.671875 59.816406 298.59375 59.816406 C 298.472656 59.75 298.367188 59.75 298.261719 59.761719 Z M 298.261719 59.761719 " fill-opacity="1" fill-rule="nonzero"/></svg>