<svg xmlns="http://www.w3.org/2000/svg" xmlns:xlink="http://www.w3.org/1999/xlink" width="500" zoomAndPan="magnify" viewBox="0 0 375 112.499997" height="150" preserveAspectRatio="xMidYMid meet" version="1.0"><defs><g/><clipPath id="id1"><path d="M 266.289062 20.183594 L 329 20.183594 L 329 50 L 266.289062 50 Z M 266.289062 20.183594 " clip-rule="nonzero"/></clipPath><clipPath id="id2"><path d="M 266.289062 45.253906 L 295 45.253906 L 295 74 L 266.289062 74 Z M 266.289062 45.253906 " clip-rule="nonzero"/></clipPath><clipPath id="id3"><path d="M 303 46 L 331.25 46 L 331.25 74.375 L 303 74.375 Z M 303 46 " clip-rule="nonzero"/></clipPath></defs><g fill="#f5f5f5" fill-opacity="1"><g transform="translate(16.346258, 72.286118)"><g><path d="M 2.710938 0 L 10.105469 0 L 10.105469 -7.613281 L 18.671875 -7.613281 L 18.671875 -14.023438 L 10.105469 -14.023438 L 10.105469 -19.035156 L 19.621094 -19.035156 L 19.621094 -25.625 L 2.710938 -25.625 Z M 2.710938 0 "/></g></g></g><g fill="#f5f5f5" fill-opacity="1"><g transform="translate(37.354066, 72.286118)"><g><path d="M 2.710938 0 L 10.105469 0 L 10.105469 -7.285156 L 12.886719 -7.285156 L 16.546875 0 L 24.929688 0 L 20.207031 -8.640625 C 22.917969 -10.140625 24.457031 -12.851562 24.457031 -16.4375 C 24.457031 -22.113281 20.609375 -25.625 14.386719 -25.625 L 2.710938 -25.625 Z M 9.957031 -13.179688 L 9.957031 -19.585938 L 13.398438 -19.585938 C 15.742188 -19.585938 17.023438 -18.453125 17.023438 -16.402344 C 17.023438 -14.351562 15.742188 -13.179688 13.398438 -13.179688 Z M 9.957031 -13.179688 "/></g></g></g><g fill="#f5f5f5" fill-opacity="1"><g transform="translate(63.705334, 72.286118)"><g><path d="M 2.710938 0 L 20.683594 0 L 20.683594 -6.039062 L 10.03125 -6.039062 L 10.03125 -9.996094 L 19.292969 -9.996094 L 19.292969 -15.925781 L 10.03125 -15.925781 L 10.03125 -19.660156 L 20.28125 -19.660156 L 20.28125 -25.625 L 2.710938 -25.625 Z M 2.710938 0 "/></g></g></g><g fill="#f5f5f5" fill-opacity="1"><g transform="translate(86.030715, 72.286118)"><g><path d="M 2.710938 0 L 20.683594 0 L 20.683594 -6.039062 L 10.03125 -6.039062 L 10.03125 -9.996094 L 19.292969 -9.996094 L 19.292969 -15.925781 L 10.03125 -15.925781 L 10.03125 -19.660156 L 20.28125 -19.660156 L 20.28125 -25.625 L 2.710938 -25.625 Z M 2.710938 0 "/></g></g></g><g fill="#f5f5f5" fill-opacity="1"><g transform="translate(108.356096, 72.286118)"><g><path d="M 2.710938 0 L 20.574219 0 L 20.574219 -6.847656 L 10.105469 -6.847656 L 10.105469 -25.625 L 2.710938 -25.625 Z M 2.710938 0 "/></g></g></g><g fill="#f5f5f5" fill-opacity="1"><g transform="translate(129.839694, 72.286118)"><g><path d="M 0.183594 0 L 8.015625 0 L 9.410156 -3.625 L 18.160156 -3.625 L 19.550781 0 L 27.421875 0 L 17.460938 -25.625 L 10.140625 -25.625 Z M 10.945312 -9.042969 L 13.800781 -16.988281 L 16.65625 -9.042969 Z M 10.945312 -9.042969 "/></g></g></g><g fill="#f5f5f5" fill-opacity="1"><g transform="translate(157.435322, 72.286118)"><g><path d="M 2.710938 0 L 10.03125 0 L 10.03125 -13.070312 L 19.769531 0 L 25.773438 0 L 25.773438 -25.625 L 18.488281 -25.625 L 18.488281 -12.628906 L 8.75 -25.625 L 2.710938 -25.625 Z M 2.710938 0 "/></g></g></g><g fill="#f5f5f5" fill-opacity="1"><g transform="translate(185.945924, 72.286118)"><g><path d="M 14.679688 0.550781 C 21.746094 0.550781 27.089844 -3.734375 28.191406 -10.25 L 20.683594 -10.25 C 19.769531 -7.835938 17.609375 -6.296875 14.828125 -6.296875 C 11.238281 -6.296875 8.75 -8.96875 8.75 -12.8125 C 8.75 -16.695312 11.277344 -19.328125 14.898438 -19.328125 C 17.574219 -19.328125 19.804688 -17.828125 20.574219 -15.523438 L 28.042969 -15.523438 C 26.726562 -22.003906 21.453125 -26.175781 14.605469 -26.175781 C 6.699219 -26.175781 1.246094 -20.722656 1.246094 -12.8125 C 1.246094 -4.90625 6.699219 0.550781 14.679688 0.550781 Z M 14.679688 0.550781 "/></g></g></g><g fill="#f5f5f5" fill-opacity="1"><g transform="translate(215.298308, 72.286118)"><g><path d="M 2.710938 0 L 20.683594 0 L 20.683594 -6.039062 L 10.03125 -6.039062 L 10.03125 -9.996094 L 19.292969 -9.996094 L 19.292969 -15.925781 L 10.03125 -15.925781 L 10.03125 -19.660156 L 20.28125 -19.660156 L 20.28125 -25.625 L 2.710938 -25.625 Z M 2.710938 0 "/></g></g></g><g fill="#f5f5f5" fill-opacity="1"><g transform="translate(237.623689, 72.286118)"><g><path d="M 2.710938 0 L 15.851562 0 C 21.050781 0 24.675781 -2.929688 24.675781 -7.140625 C 24.675781 -9.847656 23.210938 -12.042969 20.792969 -13.105469 C 22.769531 -14.242188 23.90625 -16.292969 23.90625 -18.746094 C 23.90625 -22.953125 20.539062 -25.625 15.191406 -25.625 L 2.710938 -25.625 Z M 9.957031 -5.492188 L 9.957031 -10.289062 L 14.425781 -10.289062 C 16.179688 -10.289062 17.171875 -9.410156 17.171875 -7.90625 C 17.171875 -6.371094 16.179688 -5.492188 14.425781 -5.492188 Z M 9.957031 -15.558594 L 9.957031 -20.171875 L 13.800781 -20.171875 C 15.523438 -20.171875 16.472656 -19.328125 16.472656 -17.867188 C 16.472656 -16.363281 15.523438 -15.558594 13.800781 -15.558594 Z M 9.957031 -15.558594 "/></g></g></g><g fill="#f5f5f5" fill-opacity="1"><g transform="translate(263.346119, 72.286118)"><g/></g></g><g fill="#f5f5f5" fill-opacity="1"><g transform="translate(271.800484, 72.286118)"><g/></g></g><g fill="#f5f5f5" fill-opacity="1"><g transform="translate(280.254848, 72.286118)"><g/></g></g><g fill="#f5f5f5" fill-opacity="1"><g transform="translate(288.709212, 72.286118)"><g/></g></g><g fill="#f5f5f5" fill-opacity="1"><g transform="translate(297.163576, 72.286118)"><g/></g></g><g fill="#f5f5f5" fill-opacity="1"><g transform="translate(305.61794, 72.286118)"><g/></g></g><g fill="#f5f5f5" fill-opacity="1"><g transform="translate(314.072304, 72.286118)"><g/></g></g><g fill="#f5f5f5" fill-opacity="1"><g transform="translate(322.526668, 72.286118)"><g/></g></g><g fill="#f5f5f5" fill-opacity="1"><g transform="translate(330.979121, 72.286118)"><g><path d="M 2.710938 0 L 10.105469 0 L 10.105469 -9.703125 L 13.324219 -9.703125 L 18.230469 0 L 26.796875 0 L 20.0625 -12.449219 C 20.832031 -13.363281 21.527344 -14.570312 22.113281 -16.070312 L 25.917969 -25.625 L 17.902344 -25.625 L 15.597656 -19.21875 C 14.828125 -16.988281 13.984375 -16.4375 11.347656 -16.4375 L 10.105469 -16.4375 L 10.105469 -25.625 L 2.710938 -25.625 Z M 2.710938 0 "/></g></g></g><g clip-path="url(#id1)"><path fill="#f5f5f5" d="M 270.855469 20.894531 C 279.558594 20.894531 283.148438 21.128906 292.722656 35.597656 C 292.722656 35.597656 297.882812 42.597656 304.148438 42.242188 C 304.148438 42.242188 308.445312 43.1875 312.269531 34.175781 C 316.097656 25.164062 319.226562 20.179688 328.972656 21.484375 C 328.972656 21.484375 324.449219 25.515625 323.808594 27.238281 C 323.171875 28.957031 312.8125 41.765625 307.148438 42.65625 C 307.976562 42.890625 309.140625 43.1875 311.105469 42.832031 C 311.105469 42.832031 313.136719 42.953125 313.457031 43.960938 C 311.457031 43.78125 304.84375 45.800781 303.453125 46.867188 C 302.0625 47.9375 297.292969 50.789062 293.46875 47.882812 C 294.285156 47.757812 298.867188 46.894531 300.984375 44.808594 C 297.421875 44.851562 291.507812 43.664062 287.09375 39.453125 C 282.691406 35.242188 272.015625 22.550781 266.332031 21.601562 L 270.855469 20.894531 " fill-opacity="1" fill-rule="nonzero"/></g><g clip-path="url(#id2)"><path fill="#f5f5f5" d="M 278.6875 45.359375 C 278.289062 45.398438 277.894531 45.46875 277.496094 45.546875 C 277.363281 45.574219 277.21875 45.601562 277.085938 45.628906 C 276.863281 45.667969 276.636719 45.734375 276.414062 45.800781 C 275.660156 46.015625 274.90625 46.3125 274.191406 46.648438 C 274.179688 46.660156 274.164062 46.660156 274.140625 46.675781 C 273.914062 46.78125 273.703125 46.890625 273.492188 47.007812 C 272.699219 47.453125 271.957031 47.988281 271.269531 48.566406 C 270.753906 48.996094 270.28125 49.476562 269.832031 49.972656 C 269.765625 50.054688 269.683594 50.136719 269.617188 50.214844 C 269.195312 50.726562 268.800781 51.261719 268.457031 51.824219 C 268.179688 52.253906 267.941406 52.710938 267.714844 53.179688 C 267.515625 53.59375 267.34375 54.011719 267.1875 54.441406 C 267.082031 54.75 266.976562 55.058594 266.882812 55.367188 C 266.59375 56.34375 266.433594 57.351562 266.355469 58.371094 C 266.328125 58.640625 266.328125 58.894531 266.3125 59.164062 C 266.3125 59.1875 266.3125 59.203125 266.3125 59.230469 C 266.300781 60.074219 266.378906 60.917969 266.511719 61.75 C 266.550781 62.03125 266.617188 62.328125 266.683594 62.609375 C 266.789062 63.066406 266.921875 63.507812 267.066406 63.949219 C 267.121094 64.113281 267.1875 64.273438 267.238281 64.433594 C 267.34375 64.6875 267.449219 64.957031 267.558594 65.199219 C 267.582031 65.265625 267.609375 65.332031 267.648438 65.398438 C 267.859375 65.855469 268.097656 66.3125 268.363281 66.742188 C 268.429688 66.847656 268.496094 66.941406 268.546875 67.050781 C 268.972656 67.707031 269.445312 68.324219 269.960938 68.886719 C 270.398438 69.371094 270.859375 69.8125 271.351562 70.226562 C 271.628906 70.46875 271.917969 70.683594 272.222656 70.898438 C 272.355469 70.992188 272.488281 71.085938 272.632812 71.179688 C 272.921875 71.382812 273.226562 71.554688 273.542969 71.730469 C 273.542969 71.730469 273.558594 71.730469 273.558594 71.742188 C 274.164062 72.078125 274.785156 72.359375 275.433594 72.601562 C 276.347656 72.953125 277.296875 73.179688 278.277344 73.3125 C 279.320312 73.460938 280.351562 73.488281 281.394531 73.394531 C 282.480469 73.300781 283.535156 73.070312 284.566406 72.738281 C 286.511719 72.09375 288.28125 70.992188 289.761719 69.570312 C 290.503906 68.875 291.136719 68.070312 291.707031 67.238281 C 292.300781 66.367188 292.761719 65.414062 293.144531 64.433594 C 293.53125 63.453125 293.78125 62.421875 293.925781 61.375 C 294.070312 60.289062 294.109375 59.203125 294.019531 58.101562 C 293.832031 56.011719 293.1875 53.972656 292.128906 52.160156 C 291.652344 51.300781 291.042969 50.496094 290.371094 49.757812 C 289.695312 49.023438 288.941406 48.378906 288.136719 47.789062 C 287.371094 47.238281 286.539062 46.769531 285.664062 46.394531 C 284.753906 46.003906 283.816406 45.695312 282.835938 45.507812 C 282.03125 45.347656 281.222656 45.265625 280.40625 45.253906 C 280.378906 45.253906 280.351562 45.253906 280.3125 45.253906 C 280.285156 45.253906 280.273438 45.253906 280.246094 45.253906 C 279.730469 45.265625 279.214844 45.292969 278.6875 45.359375 Z M 281.832031 47.050781 C 282.902344 47.210938 283.945312 47.492188 284.9375 47.910156 C 285.917969 48.335938 286.828125 48.875 287.675781 49.53125 C 288.492188 50.1875 289.234375 50.941406 289.882812 51.769531 C 290.527344 52.628906 291.058594 53.554688 291.480469 54.546875 C 291.890625 55.566406 292.179688 56.628906 292.328125 57.726562 C 292.460938 58.828125 292.460938 59.941406 292.328125 61.054688 C 292.167969 62.140625 291.878906 63.199219 291.46875 64.21875 C 291.042969 65.199219 290.515625 66.125 289.882812 66.96875 C 289.234375 67.800781 288.492188 68.550781 287.675781 69.207031 C 286.828125 69.851562 285.917969 70.402344 284.953125 70.832031 C 283.945312 71.246094 282.902344 71.542969 281.820312 71.691406 C 280.734375 71.824219 279.652344 71.824219 278.566406 71.691406 C 277.5625 71.542969 276.585938 71.273438 275.632812 70.898438 C 275.566406 70.871094 275.5 70.84375 275.449219 70.820312 C 275.222656 70.722656 275 70.617188 274.785156 70.496094 C 274.773438 70.484375 274.761719 70.484375 274.746094 70.46875 C 274.734375 70.46875 274.734375 70.457031 274.722656 70.457031 C 274.707031 70.457031 274.707031 70.441406 274.695312 70.441406 C 274.007812 70.082031 273.347656 69.664062 272.726562 69.183594 C 272.128906 68.699219 271.574219 68.175781 271.074219 67.597656 C 271.074219 67.597656 271.074219 67.597656 271.074219 67.585938 C 271.058594 67.574219 271.058594 67.574219 271.046875 67.558594 C 271.03125 67.546875 271.03125 67.546875 271.019531 67.53125 C 271.019531 67.53125 271.019531 67.519531 271.007812 67.519531 C 270.835938 67.332031 270.675781 67.128906 270.515625 66.929688 C 269.910156 66.109375 269.394531 65.226562 268.972656 64.285156 C 268.972656 64.285156 268.972656 64.273438 268.972656 64.273438 C 268.972656 64.273438 268.972656 64.257812 268.957031 64.257812 C 268.945312 64.234375 268.929688 64.191406 268.917969 64.164062 C 268.867188 64.042969 268.824219 63.9375 268.785156 63.816406 C 268.785156 63.804688 268.773438 63.789062 268.773438 63.777344 C 268.773438 63.777344 268.773438 63.777344 268.773438 63.761719 C 268.46875 62.945312 268.257812 62.113281 268.113281 61.253906 C 268.113281 61.253906 268.113281 61.242188 268.113281 61.242188 C 268.113281 61.226562 268.113281 61.214844 268.113281 61.214844 C 268.113281 61.199219 268.113281 61.199219 268.113281 61.1875 C 268.113281 61.1875 268.113281 61.175781 268.113281 61.175781 C 268.097656 61.121094 268.097656 61.054688 268.085938 61 C 267.953125 59.886719 267.953125 58.773438 268.085938 57.671875 C 268.179688 57.082031 268.296875 56.492188 268.457031 55.929688 C 268.457031 55.917969 268.46875 55.902344 268.46875 55.890625 C 268.46875 55.875 268.46875 55.863281 268.480469 55.863281 C 268.480469 55.863281 268.480469 55.847656 268.480469 55.847656 C 268.613281 55.40625 268.757812 54.976562 268.929688 54.546875 C 269.355469 53.570312 269.882812 52.644531 270.53125 51.785156 C 270.742188 51.503906 270.96875 51.25 271.203125 50.980469 C 271.21875 50.964844 271.21875 50.953125 271.230469 50.953125 C 271.230469 50.953125 271.230469 50.941406 271.246094 50.941406 C 271.257812 50.925781 271.257812 50.925781 271.269531 50.914062 C 271.269531 50.914062 271.285156 50.898438 271.285156 50.898438 C 271.285156 50.898438 271.296875 50.886719 271.296875 50.886719 C 271.3125 50.871094 271.3125 50.871094 271.324219 50.859375 C 271.324219 50.859375 271.335938 50.847656 271.335938 50.847656 C 271.351562 50.832031 271.351562 50.832031 271.363281 50.820312 C 271.363281 50.820312 271.363281 50.820312 271.375 50.804688 C 271.390625 50.792969 271.402344 50.777344 271.402344 50.777344 C 271.800781 50.363281 272.222656 49.972656 272.660156 49.613281 C 272.671875 49.597656 272.683594 49.585938 272.699219 49.585938 C 272.710938 49.570312 272.726562 49.570312 272.738281 49.558594 C 273.585938 48.914062 274.496094 48.363281 275.460938 47.933594 C 275.578125 47.894531 275.6875 47.839844 275.804688 47.800781 C 275.816406 47.800781 275.816406 47.800781 275.832031 47.789062 C 275.84375 47.789062 275.84375 47.789062 275.859375 47.773438 C 276.597656 47.492188 277.351562 47.292969 278.117188 47.144531 C 278.117188 47.144531 278.132812 47.144531 278.132812 47.144531 C 278.132812 47.144531 278.132812 47.144531 278.144531 47.144531 C 278.289062 47.117188 278.421875 47.089844 278.566406 47.078125 C 278.726562 47.050781 278.898438 47.035156 279.054688 47.023438 C 279.96875 46.914062 280.90625 46.929688 281.832031 47.050781 Z M 291.453125 64.273438 C 291.441406 64.300781 291.441406 64.3125 291.429688 64.339844 C 291.441406 64.3125 291.453125 64.285156 291.453125 64.273438 Z M 291.453125 64.273438 " fill-opacity="1" fill-rule="nonzero"/></g><g clip-path="url(#id3)"><path fill="#f5f5f5" d="M 313.9375 46.417969 C 312.945312 46.660156 311.980469 47.050781 311.054688 47.507812 C 310.726562 47.667969 310.410156 47.855469 310.089844 48.042969 C 310.023438 48.082031 309.945312 48.136719 309.878906 48.175781 C 309.324219 48.523438 308.796875 48.929688 308.292969 49.355469 C 308.003906 49.613281 307.710938 49.878906 307.433594 50.160156 C 306.746094 50.859375 306.125 51.652344 305.597656 52.480469 C 305.332031 52.898438 305.09375 53.328125 304.871094 53.769531 C 304.832031 53.835938 304.804688 53.917969 304.765625 53.984375 C 304.578125 54.386719 304.40625 54.789062 304.25 55.207031 C 304.25 55.21875 304.25 55.21875 304.234375 55.230469 C 303.878906 56.171875 303.65625 57.164062 303.523438 58.15625 C 303.375 59.230469 303.351562 60.300781 303.441406 61.390625 C 303.628906 63.46875 304.277344 65.480469 305.308594 67.277344 C 305.808594 68.148438 306.417969 68.953125 307.078125 69.691406 C 307.75 70.441406 308.53125 71.101562 309.339844 71.691406 C 310.171875 72.292969 311.070312 72.761719 312.007812 73.164062 C 312.945312 73.554688 313.910156 73.835938 314.914062 74.011719 C 317.03125 74.375 319.199219 74.238281 321.261719 73.621094 C 323.269531 73.019531 325.105469 71.917969 326.667969 70.496094 C 328.160156 69.113281 329.324219 67.382812 330.101562 65.492188 C 330.894531 63.5625 331.238281 61.441406 331.132812 59.335938 C 331.027344 57.230469 330.433594 55.179688 329.441406 53.328125 C 328.964844 52.441406 328.386719 51.625 327.738281 50.859375 C 327.089844 50.082031 326.335938 49.410156 325.542969 48.792969 C 324.777344 48.203125 323.929688 47.707031 323.058594 47.292969 C 322.121094 46.863281 321.15625 46.527344 320.148438 46.3125 C 319.210938 46.109375 318.261719 46.015625 317.308594 46.015625 C 316.183594 46.015625 315.046875 46.152344 313.9375 46.417969 Z M 318.933594 47.789062 C 320.003906 47.949219 321.050781 48.230469 322.054688 48.644531 C 323.019531 49.074219 323.917969 49.613281 324.761719 50.242188 C 325.597656 50.898438 326.335938 51.664062 326.996094 52.496094 C 327.632812 53.339844 328.160156 54.265625 328.582031 55.246094 C 328.992188 56.265625 329.285156 57.339844 329.441406 58.425781 C 329.574219 59.539062 329.574219 60.652344 329.441406 61.75 C 329.285156 62.835938 329.007812 63.898438 328.597656 64.917969 C 328.171875 65.894531 327.644531 66.820312 327.011719 67.679688 C 326.347656 68.523438 325.609375 69.277344 324.789062 69.933594 C 323.945312 70.578125 323.019531 71.128906 322.054688 71.554688 C 321.050781 71.972656 320.019531 72.253906 318.949219 72.414062 C 317.863281 72.550781 316.765625 72.550781 315.667969 72.414062 C 314.613281 72.253906 313.566406 71.972656 312.578125 71.554688 C 311.597656 71.128906 310.6875 70.589844 309.839844 69.933594 C 309.007812 69.261719 308.265625 68.511719 307.605469 67.667969 C 306.972656 66.808594 306.445312 65.894531 306.019531 64.902344 C 305.609375 63.882812 305.332031 62.824219 305.175781 61.738281 C 305.042969 60.625 305.042969 59.511719 305.175781 58.410156 C 305.320312 57.378906 305.585938 56.371094 305.96875 55.40625 C 305.96875 55.40625 305.96875 55.40625 305.96875 55.394531 C 305.96875 55.394531 305.96875 55.378906 305.96875 55.378906 C 305.980469 55.339844 305.992188 55.300781 306.019531 55.257812 C 306.101562 55.070312 306.179688 54.882812 306.273438 54.707031 C 306.273438 54.707031 306.273438 54.695312 306.273438 54.695312 C 306.273438 54.683594 306.285156 54.667969 306.285156 54.65625 C 306.65625 53.890625 307.089844 53.167969 307.605469 52.480469 C 308.253906 51.652344 309.007812 50.886719 309.828125 50.230469 C 309.855469 50.203125 309.878906 50.1875 309.90625 50.160156 C 309.90625 50.160156 309.917969 50.160156 309.917969 50.148438 C 309.933594 50.148438 309.933594 50.136719 309.945312 50.136719 C 310.726562 49.558594 311.558594 49.0625 312.445312 48.660156 C 312.457031 48.660156 312.46875 48.644531 312.484375 48.644531 C 312.484375 48.644531 312.496094 48.644531 312.496094 48.632812 C 312.511719 48.632812 312.511719 48.621094 312.523438 48.621094 C 312.535156 48.621094 312.550781 48.605469 312.550781 48.605469 C 312.589844 48.59375 312.628906 48.578125 312.667969 48.550781 C 313.632812 48.164062 314.636719 47.894531 315.667969 47.734375 C 316.753906 47.652344 317.851562 47.652344 318.933594 47.789062 Z M 318.933594 47.789062 " fill-opacity="1" fill-rule="nonzero"/></g><path fill="#f5f5f5" d="M 298.261719 54.640625 C 297.8125 54.667969 297.347656 54.734375 296.914062 54.855469 C 296.753906 54.898438 296.609375 54.9375 296.449219 54.992188 C 296.042969 55.125 295.632812 55.324219 295.261719 55.539062 C 295.101562 55.632812 294.945312 55.742188 294.796875 55.847656 C 294.796875 55.847656 294.785156 55.863281 294.785156 55.863281 C 294.773438 55.875 294.757812 55.890625 294.734375 55.902344 C 294.601562 56.011719 294.46875 56.105469 294.335938 56.226562 C 293.859375 56.613281 293.476562 57.082031 293.121094 57.578125 C 292.894531 57.914062 292.695312 58.261719 292.539062 58.640625 C 292.539062 58.640625 292.539062 58.652344 292.523438 58.652344 C 292.523438 58.652344 292.523438 58.664062 292.523438 58.664062 C 292.523438 58.679688 292.511719 58.691406 292.511719 58.691406 C 292.472656 58.761719 292.445312 58.828125 292.433594 58.894531 C 292.433594 58.90625 292.417969 58.90625 292.417969 58.921875 C 292.339844 59.121094 292.40625 59.390625 292.5 59.566406 C 292.605469 59.753906 292.789062 59.886719 292.988281 59.953125 C 293.199219 60.007812 293.4375 59.980469 293.621094 59.875 C 293.675781 59.832031 293.726562 59.777344 293.792969 59.738281 C 293.886719 59.632812 293.964844 59.523438 294.003906 59.390625 C 294.175781 59 294.390625 58.640625 294.640625 58.289062 C 294.902344 57.953125 295.207031 57.648438 295.539062 57.378906 C 295.882812 57.125 296.253906 56.910156 296.636719 56.722656 C 297.046875 56.558594 297.457031 56.4375 297.890625 56.371094 C 298.339844 56.320312 298.777344 56.320312 299.226562 56.371094 C 299.492188 56.414062 299.753906 56.480469 300.007812 56.558594 C 300.019531 56.558594 300.019531 56.558594 300.03125 56.558594 C 300.03125 56.558594 300.046875 56.558594 300.046875 56.558594 C 300.191406 56.601562 300.351562 56.652344 300.496094 56.722656 C 300.890625 56.894531 301.261719 57.125 301.605469 57.378906 C 301.632812 57.40625 301.671875 57.433594 301.699219 57.457031 C 301.988281 57.714844 302.253906 57.980469 302.492188 58.277344 C 302.703125 58.570312 302.902344 58.894531 303.058594 59.214844 C 303.058594 59.214844 303.058594 59.230469 303.074219 59.230469 C 303.097656 59.28125 303.125 59.335938 303.152344 59.402344 C 303.257812 59.683594 303.351562 59.953125 303.417969 60.25 C 303.457031 60.394531 303.484375 60.542969 303.507812 60.703125 C 303.523438 60.824219 303.535156 60.960938 303.535156 61.082031 C 303.535156 61.082031 303.535156 61.09375 303.535156 61.09375 C 303.535156 61.105469 303.535156 61.121094 303.535156 61.132812 C 303.535156 61.132812 303.535156 61.148438 303.535156 61.148438 C 303.535156 61.160156 303.535156 61.175781 303.535156 61.1875 C 303.535156 61.1875 303.535156 61.199219 303.535156 61.199219 C 303.535156 61.214844 303.535156 61.226562 303.535156 61.242188 C 303.535156 61.242188 303.535156 61.253906 303.535156 61.253906 C 303.535156 61.269531 303.535156 61.28125 303.535156 61.296875 C 303.535156 61.296875 303.535156 61.296875 303.535156 61.308594 C 303.535156 61.320312 303.535156 61.335938 303.535156 61.363281 C 303.535156 61.375 303.535156 61.402344 303.535156 61.414062 C 303.535156 61.871094 303.917969 62.261719 304.367188 62.261719 C 304.816406 62.261719 305.1875 61.886719 305.199219 61.414062 C 305.199219 60.773438 305.121094 60.113281 304.9375 59.484375 C 304.9375 59.484375 304.9375 59.472656 304.9375 59.472656 C 304.898438 59.335938 304.855469 59.1875 304.804688 59.054688 C 304.699219 58.773438 304.578125 58.492188 304.433594 58.238281 C 304.328125 58.035156 304.210938 57.820312 304.078125 57.632812 C 303.878906 57.339844 303.65625 57.042969 303.402344 56.789062 C 303.375 56.761719 303.351562 56.722656 303.324219 56.695312 C 303.246094 56.613281 303.164062 56.53125 303.074219 56.453125 C 302.808594 56.199219 302.519531 55.96875 302.214844 55.769531 C 302.015625 55.632812 301.816406 55.515625 301.605469 55.417969 C 301.511719 55.367188 301.421875 55.324219 301.316406 55.285156 C 301.273438 55.273438 301.234375 55.246094 301.195312 55.230469 C 300.851562 55.085938 300.496094 54.964844 300.125 54.871094 C 300.007812 54.84375 299.886719 54.816406 299.753906 54.789062 C 299.476562 54.734375 299.1875 54.707031 298.894531 54.695312 C 298.882812 54.695312 298.855469 54.695312 298.84375 54.695312 C 298.765625 54.695312 298.671875 54.695312 298.59375 54.695312 C 298.472656 54.628906 298.367188 54.628906 298.261719 54.640625 Z M 298.261719 54.640625 " fill-opacity="1" fill-rule="nonzero"/><g fill="#f5f5f5" fill-opacity="1"><g transform="translate(18.706933, 88.185628)"><g><path d="M 3.953125 -4.96875 L 2.640625 -3.609375 L 2.640625 0 L 1.234375 0 L 1.234375 -10.671875 L 2.640625 -10.671875 L 2.640625 -5.390625 L 7.390625 -10.671875 L 9.09375 -10.671875 L 4.890625 -5.953125 L 9.421875 0 L 7.734375 0 Z M 3.953125 -4.96875 "/></g></g></g><g fill="#f5f5f5" fill-opacity="1"><g transform="translate(33.306736, 88.185628)"><g><path d="M 2.75 0 L 1.34375 0 L 1.34375 -10.671875 L 2.75 -10.671875 Z M 2.75 0 "/></g></g></g><g fill="#f5f5f5" fill-opacity="1"><g transform="translate(42.580544, 88.185628)"><g><path d="M 9.09375 -3.390625 C 8.957031 -2.253906 8.539062 -1.378906 7.84375 -0.765625 C 7.144531 -0.160156 6.210938 0.140625 5.046875 0.140625 C 3.785156 0.140625 2.773438 -0.304688 2.015625 -1.203125 C 1.253906 -2.109375 0.875 -3.320312 0.875 -4.84375 L 0.875 -5.859375 C 0.875 -6.859375 1.050781 -7.734375 1.40625 -8.484375 C 1.757812 -9.234375 2.257812 -9.8125 2.90625 -10.21875 C 3.5625 -10.625 4.316406 -10.828125 5.171875 -10.828125 C 6.304688 -10.828125 7.210938 -10.507812 7.890625 -9.875 C 8.578125 -9.238281 8.976562 -8.363281 9.09375 -7.25 L 7.671875 -7.25 C 7.554688 -8.09375 7.289062 -8.703125 6.875 -9.078125 C 6.46875 -9.460938 5.898438 -9.65625 5.171875 -9.65625 C 4.265625 -9.65625 3.554688 -9.320312 3.046875 -8.65625 C 2.535156 -8 2.28125 -7.054688 2.28125 -5.828125 L 2.28125 -4.796875 C 2.28125 -3.640625 2.519531 -2.71875 3 -2.03125 C 3.488281 -1.34375 4.171875 -1 5.046875 -1 C 5.828125 -1 6.425781 -1.175781 6.84375 -1.53125 C 7.257812 -1.882812 7.535156 -2.503906 7.671875 -3.390625 Z M 9.09375 -3.390625 "/></g></g></g><g fill="#f5f5f5" fill-opacity="1"><g transform="translate(57.53932, 88.185628)"><g><path d="M 3.953125 -4.96875 L 2.640625 -3.609375 L 2.640625 0 L 1.234375 0 L 1.234375 -10.671875 L 2.640625 -10.671875 L 2.640625 -5.390625 L 7.390625 -10.671875 L 9.09375 -10.671875 L 4.890625 -5.953125 L 9.421875 0 L 7.734375 0 Z M 3.953125 -4.96875 "/></g></g></g><g fill="#f5f5f5" fill-opacity="1"><g transform="translate(72.139124, 88.185628)"><g><path d="M 4.390625 -4.765625 C 3.179688 -5.109375 2.300781 -5.53125 1.75 -6.03125 C 1.195312 -6.539062 0.921875 -7.164062 0.921875 -7.90625 C 0.921875 -8.75 1.253906 -9.445312 1.921875 -10 C 2.597656 -10.550781 3.472656 -10.828125 4.546875 -10.828125 C 5.285156 -10.828125 5.941406 -10.679688 6.515625 -10.390625 C 7.085938 -10.109375 7.53125 -9.71875 7.84375 -9.21875 C 8.164062 -8.71875 8.328125 -8.175781 8.328125 -7.59375 L 6.90625 -7.59375 C 6.90625 -8.238281 6.695312 -8.742188 6.28125 -9.109375 C 5.875 -9.472656 5.296875 -9.65625 4.546875 -9.65625 C 3.859375 -9.65625 3.316406 -9.503906 2.921875 -9.203125 C 2.535156 -8.898438 2.34375 -8.476562 2.34375 -7.9375 C 2.34375 -7.5 2.523438 -7.128906 2.890625 -6.828125 C 3.265625 -6.523438 3.894531 -6.25 4.78125 -6 C 5.664062 -5.75 6.359375 -5.472656 6.859375 -5.171875 C 7.367188 -4.878906 7.742188 -4.53125 7.984375 -4.125 C 8.222656 -3.726562 8.34375 -3.257812 8.34375 -2.71875 C 8.34375 -1.851562 8.003906 -1.160156 7.328125 -0.640625 C 6.648438 -0.117188 5.75 0.140625 4.625 0.140625 C 3.894531 0.140625 3.210938 0 2.578125 -0.28125 C 1.941406 -0.5625 1.453125 -0.941406 1.109375 -1.421875 C 0.765625 -1.910156 0.59375 -2.46875 0.59375 -3.09375 L 2 -3.09375 C 2 -2.445312 2.238281 -1.9375 2.71875 -1.5625 C 3.195312 -1.1875 3.832031 -1 4.625 -1 C 5.363281 -1 5.929688 -1.148438 6.328125 -1.453125 C 6.722656 -1.753906 6.921875 -2.164062 6.921875 -2.6875 C 6.921875 -3.21875 6.738281 -3.625 6.375 -3.90625 C 6.007812 -4.195312 5.347656 -4.484375 4.390625 -4.765625 Z M 4.390625 -4.765625 "/></g></g></g><g fill="#f5f5f5" fill-opacity="1"><g transform="translate(86.233435, 88.185628)"><g><path d="M 8.609375 -9.515625 L 5.1875 -9.515625 L 5.1875 0 L 3.78125 0 L 3.78125 -9.515625 L 0.359375 -9.515625 L 0.359375 -10.671875 L 8.609375 -10.671875 Z M 8.609375 -9.515625 "/></g></g></g><g fill="#f5f5f5" fill-opacity="1"><g transform="translate(100.379029, 88.185628)"><g><path d="M 7.140625 -2.78125 L 2.65625 -2.78125 L 1.65625 0 L 0.203125 0 L 4.28125 -10.671875 L 5.515625 -10.671875 L 9.59375 0 L 8.15625 0 Z M 3.09375 -3.9375 L 6.71875 -3.9375 L 4.890625 -8.9375 Z M 3.09375 -3.9375 "/></g></g></g><g fill="#f5f5f5" fill-opacity="1"><g transform="translate(115.359785, 88.185628)"><g><path d="M 5.15625 -4.3125 L 2.640625 -4.3125 L 2.640625 0 L 1.234375 0 L 1.234375 -10.671875 L 4.765625 -10.671875 C 5.960938 -10.671875 6.882812 -10.394531 7.53125 -9.84375 C 8.1875 -9.300781 8.515625 -8.507812 8.515625 -7.46875 C 8.515625 -6.800781 8.332031 -6.21875 7.96875 -5.71875 C 7.613281 -5.226562 7.113281 -4.863281 6.46875 -4.625 L 8.984375 -0.09375 L 8.984375 0 L 7.46875 0 Z M 2.640625 -5.46875 L 4.8125 -5.46875 C 5.507812 -5.46875 6.0625 -5.644531 6.46875 -6 C 6.882812 -6.363281 7.09375 -6.851562 7.09375 -7.46875 C 7.09375 -8.125 6.894531 -8.628906 6.5 -8.984375 C 6.113281 -9.335938 5.546875 -9.515625 4.796875 -9.515625 L 2.640625 -9.515625 Z M 2.640625 -5.46875 "/></g></g></g><g fill="#f5f5f5" fill-opacity="1"><g transform="translate(129.791086, 88.185628)"><g><path d="M 8.609375 -9.515625 L 5.1875 -9.515625 L 5.1875 0 L 3.78125 0 L 3.78125 -9.515625 L 0.359375 -9.515625 L 0.359375 -10.671875 L 8.609375 -10.671875 Z M 8.609375 -9.515625 "/></g></g></g><g fill="#f5f5f5" fill-opacity="1"><g transform="translate(143.936674, 88.185628)"><g/></g></g><g fill="#f5f5f5" fill-opacity="1"><g transform="translate(152.844178, 88.185628)"><g><path d="M 4.5 -5.3125 L 7.28125 -10.671875 L 8.875 -10.671875 L 5.203125 -3.984375 L 5.203125 0 L 3.796875 0 L 3.796875 -3.984375 L 0.109375 -10.671875 L 1.71875 -10.671875 Z M 4.5 -5.3125 "/></g></g></g><g fill="#f5f5f5" fill-opacity="1"><g transform="translate(167.048374, 88.185628)"><g><path d="M 9.453125 -5 C 9.453125 -3.945312 9.273438 -3.03125 8.921875 -2.25 C 8.566406 -1.46875 8.066406 -0.875 7.421875 -0.46875 C 6.773438 -0.0625 6.023438 0.140625 5.171875 0.140625 C 4.328125 0.140625 3.578125 -0.0625 2.921875 -0.46875 C 2.273438 -0.882812 1.769531 -1.472656 1.40625 -2.234375 C 1.050781 -3.003906 0.867188 -3.890625 0.859375 -4.890625 L 0.859375 -5.671875 C 0.859375 -6.691406 1.035156 -7.59375 1.390625 -8.375 C 1.753906 -9.164062 2.257812 -9.769531 2.90625 -10.1875 C 3.5625 -10.613281 4.3125 -10.828125 5.15625 -10.828125 C 6.007812 -10.828125 6.757812 -10.617188 7.40625 -10.203125 C 8.0625 -9.785156 8.566406 -9.1875 8.921875 -8.40625 C 9.273438 -7.625 9.453125 -6.710938 9.453125 -5.671875 Z M 8.046875 -5.6875 C 8.046875 -6.945312 7.789062 -7.914062 7.28125 -8.59375 C 6.78125 -9.269531 6.070312 -9.609375 5.15625 -9.609375 C 4.257812 -9.609375 3.554688 -9.269531 3.046875 -8.59375 C 2.535156 -7.914062 2.273438 -6.976562 2.265625 -5.78125 L 2.265625 -5 C 2.265625 -3.769531 2.519531 -2.800781 3.03125 -2.09375 C 3.550781 -1.394531 4.265625 -1.046875 5.171875 -1.046875 C 6.078125 -1.046875 6.78125 -1.375 7.28125 -2.03125 C 7.78125 -2.695312 8.035156 -3.648438 8.046875 -4.890625 Z M 8.046875 -5.6875 "/></g></g></g><g fill="#f5f5f5" fill-opacity="1"><g transform="translate(182.556596, 88.185628)"><g><path d="M 8.75 -10.671875 L 8.75 -3.421875 C 8.75 -2.410156 8.429688 -1.582031 7.796875 -0.9375 C 7.171875 -0.300781 6.320312 0.0507812 5.25 0.125 L 4.875 0.140625 C 3.707031 0.140625 2.773438 -0.171875 2.078125 -0.796875 C 1.390625 -1.429688 1.039062 -2.300781 1.03125 -3.40625 L 1.03125 -10.671875 L 2.421875 -10.671875 L 2.421875 -3.453125 C 2.421875 -2.671875 2.628906 -2.066406 3.046875 -1.640625 C 3.472656 -1.210938 4.082031 -1 4.875 -1 C 5.675781 -1 6.285156 -1.210938 6.703125 -1.640625 C 7.128906 -2.066406 7.34375 -2.664062 7.34375 -3.4375 L 7.34375 -10.671875 Z M 8.75 -10.671875 "/></g></g></g><g fill="#f5f5f5" fill-opacity="1"><g transform="translate(197.478738, 88.185628)"><g><path d="M 5.15625 -4.3125 L 2.640625 -4.3125 L 2.640625 0 L 1.234375 0 L 1.234375 -10.671875 L 4.765625 -10.671875 C 5.960938 -10.671875 6.882812 -10.394531 7.53125 -9.84375 C 8.1875 -9.300781 8.515625 -8.507812 8.515625 -7.46875 C 8.515625 -6.800781 8.332031 -6.21875 7.96875 -5.71875 C 7.613281 -5.226562 7.113281 -4.863281 6.46875 -4.625 L 8.984375 -0.09375 L 8.984375 0 L 7.46875 0 Z M 2.640625 -5.46875 L 4.8125 -5.46875 C 5.507812 -5.46875 6.0625 -5.644531 6.46875 -6 C 6.882812 -6.363281 7.09375 -6.851562 7.09375 -7.46875 C 7.09375 -8.125 6.894531 -8.628906 6.5 -8.984375 C 6.113281 -9.335938 5.546875 -9.515625 4.796875 -9.515625 L 2.640625 -9.515625 Z M 2.640625 -5.46875 "/></g></g></g><g fill="#f5f5f5" fill-opacity="1"><g transform="translate(211.910051, 88.185628)"><g/></g></g><g fill="#f5f5f5" fill-opacity="1"><g transform="translate(220.817567, 88.185628)"><g><path d="M 2.640625 -4.171875 L 2.640625 0 L 1.234375 0 L 1.234375 -10.671875 L 5.171875 -10.671875 C 6.335938 -10.671875 7.253906 -10.375 7.921875 -9.78125 C 8.585938 -9.1875 8.921875 -8.394531 8.921875 -7.40625 C 8.921875 -6.375 8.59375 -5.578125 7.9375 -5.015625 C 7.289062 -4.453125 6.363281 -4.171875 5.15625 -4.171875 Z M 2.640625 -5.328125 L 5.171875 -5.328125 C 5.929688 -5.328125 6.507812 -5.503906 6.90625 -5.859375 C 7.3125 -6.210938 7.515625 -6.722656 7.515625 -7.390625 C 7.515625 -8.023438 7.3125 -8.535156 6.90625 -8.921875 C 6.507812 -9.304688 5.957031 -9.503906 5.25 -9.515625 L 2.640625 -9.515625 Z M 2.640625 -5.328125 "/></g></g></g><g fill="#f5f5f5" fill-opacity="1"><g transform="translate(235.475975, 88.185628)"><g><path d="M 5.15625 -4.3125 L 2.640625 -4.3125 L 2.640625 0 L 1.234375 0 L 1.234375 -10.671875 L 4.765625 -10.671875 C 5.960938 -10.671875 6.882812 -10.394531 7.53125 -9.84375 C 8.1875 -9.300781 8.515625 -8.507812 8.515625 -7.46875 C 8.515625 -6.800781 8.332031 -6.21875 7.96875 -5.71875 C 7.613281 -5.226562 7.113281 -4.863281 6.46875 -4.625 L 8.984375 -0.09375 L 8.984375 0 L 7.46875 0 Z M 2.640625 -5.46875 L 4.8125 -5.46875 C 5.507812 -5.46875 6.0625 -5.644531 6.46875 -6 C 6.882812 -6.363281 7.09375 -6.851562 7.09375 -7.46875 C 7.09375 -8.125 6.894531 -8.628906 6.5 -8.984375 C 6.113281 -9.335938 5.546875 -9.515625 4.796875 -9.515625 L 2.640625 -9.515625 Z M 2.640625 -5.46875 "/></g></g></g><g fill="#f5f5f5" fill-opacity="1"><g transform="translate(249.907288, 88.185628)"><g><path d="M 9.453125 -5 C 9.453125 -3.945312 9.273438 -3.03125 8.921875 -2.25 C 8.566406 -1.46875 8.066406 -0.875 7.421875 -0.46875 C 6.773438 -0.0625 6.023438 0.140625 5.171875 0.140625 C 4.328125 0.140625 3.578125 -0.0625 2.921875 -0.46875 C 2.273438 -0.882812 1.769531 -1.472656 1.40625 -2.234375 C 1.050781 -3.003906 0.867188 -3.890625 0.859375 -4.890625 L 0.859375 -5.671875 C 0.859375 -6.691406 1.035156 -7.59375 1.390625 -8.375 C 1.753906 -9.164062 2.257812 -9.769531 2.90625 -10.1875 C 3.5625 -10.613281 4.3125 -10.828125 5.15625 -10.828125 C 6.007812 -10.828125 6.757812 -10.617188 7.40625 -10.203125 C 8.0625 -9.785156 8.566406 -9.1875 8.921875 -8.40625 C 9.273438 -7.625 9.453125 -6.710938 9.453125 -5.671875 Z M 8.046875 -5.6875 C 8.046875 -6.945312 7.789062 -7.914062 7.28125 -8.59375 C 6.78125 -9.269531 6.070312 -9.609375 5.15625 -9.609375 C 4.257812 -9.609375 3.554688 -9.269531 3.046875 -8.59375 C 2.535156 -7.914062 2.273438 -6.976562 2.265625 -5.78125 L 2.265625 -5 C 2.265625 -3.769531 2.519531 -2.800781 3.03125 -2.09375 C 3.550781 -1.394531 4.265625 -1.046875 5.171875 -1.046875 C 6.078125 -1.046875 6.78125 -1.375 7.28125 -2.03125 C 7.78125 -2.695312 8.035156 -3.648438 8.046875 -4.890625 Z M 8.046875 -5.6875 "/></g></g></g><g fill="#f5f5f5" fill-opacity="1"><g transform="translate(265.415509, 88.185628)"><g><path d="M 7.125 -4.71875 L 2.640625 -4.71875 L 2.640625 0 L 1.234375 0 L 1.234375 -10.671875 L 7.859375 -10.671875 L 7.859375 -9.515625 L 2.640625 -9.515625 L 2.640625 -5.859375 L 7.125 -5.859375 Z M 7.125 -4.71875 "/></g></g></g><g fill="#f5f5f5" fill-opacity="1"><g transform="translate(278.901757, 88.185628)"><g><path d="M 7.265625 -4.9375 L 2.640625 -4.9375 L 2.640625 -1.15625 L 8.015625 -1.15625 L 8.015625 0 L 1.234375 0 L 1.234375 -10.671875 L 7.953125 -10.671875 L 7.953125 -9.515625 L 2.640625 -9.515625 L 2.640625 -6.078125 L 7.265625 -6.078125 Z M 7.265625 -4.9375 "/></g></g></g><g fill="#f5f5f5" fill-opacity="1"><g transform="translate(292.622437, 88.185628)"><g><path d="M 4.390625 -4.765625 C 3.179688 -5.109375 2.300781 -5.53125 1.75 -6.03125 C 1.195312 -6.539062 0.921875 -7.164062 0.921875 -7.90625 C 0.921875 -8.75 1.253906 -9.445312 1.921875 -10 C 2.597656 -10.550781 3.472656 -10.828125 4.546875 -10.828125 C 5.285156 -10.828125 5.941406 -10.679688 6.515625 -10.390625 C 7.085938 -10.109375 7.53125 -9.71875 7.84375 -9.21875 C 8.164062 -8.71875 8.328125 -8.175781 8.328125 -7.59375 L 6.90625 -7.59375 C 6.90625 -8.238281 6.695312 -8.742188 6.28125 -9.109375 C 5.875 -9.472656 5.296875 -9.65625 4.546875 -9.65625 C 3.859375 -9.65625 3.316406 -9.503906 2.921875 -9.203125 C 2.535156 -8.898438 2.34375 -8.476562 2.34375 -7.9375 C 2.34375 -7.5 2.523438 -7.128906 2.890625 -6.828125 C 3.265625 -6.523438 3.894531 -6.25 4.78125 -6 C 5.664062 -5.75 6.359375 -5.472656 6.859375 -5.171875 C 7.367188 -4.878906 7.742188 -4.53125 7.984375 -4.125 C 8.222656 -3.726562 8.34375 -3.257812 8.34375 -2.71875 C 8.34375 -1.851562 8.003906 -1.160156 7.328125 -0.640625 C 6.648438 -0.117188 5.75 0.140625 4.625 0.140625 C 3.894531 0.140625 3.210938 0 2.578125 -0.28125 C 1.941406 -0.5625 1.453125 -0.941406 1.109375 -1.421875 C 0.765625 -1.910156 0.59375 -2.46875 0.59375 -3.09375 L 2 -3.09375 C 2 -2.445312 2.238281 -1.9375 2.71875 -1.5625 C 3.195312 -1.1875 3.832031 -1 4.625 -1 C 5.363281 -1 5.929688 -1.148438 6.328125 -1.453125 C 6.722656 -1.753906 6.921875 -2.164062 6.921875 -2.6875 C 6.921875 -3.21875 6.738281 -3.625 6.375 -3.90625 C 6.007812 -4.195312 5.347656 -4.484375 4.390625 -4.765625 Z M 4.390625 -4.765625 "/></g></g></g><g fill="#f5f5f5" fill-opacity="1"><g transform="translate(306.716755, 88.185628)"><g><path d="M 4.390625 -4.765625 C 3.179688 -5.109375 2.300781 -5.53125 1.75 -6.03125 C 1.195312 -6.539062 0.921875 -7.164062 0.921875 -7.90625 C 0.921875 -8.75 1.253906 -9.445312 1.921875 -10 C 2.597656 -10.550781 3.472656 -10.828125 4.546875 -10.828125 C 5.285156 -10.828125 5.941406 -10.679688 6.515625 -10.390625 C 7.085938 -10.109375 7.53125 -9.71875 7.84375 -9.21875 C 8.164062 -8.71875 8.328125 -8.175781 8.328125 -7.59375 L 6.90625 -7.59375 C 6.90625 -8.238281 6.695312 -8.742188 6.28125 -9.109375 C 5.875 -9.472656 5.296875 -9.65625 4.546875 -9.65625 C 3.859375 -9.65625 3.316406 -9.503906 2.921875 -9.203125 C 2.535156 -8.898438 2.34375 -8.476562 2.34375 -7.9375 C 2.34375 -7.5 2.523438 -7.128906 2.890625 -6.828125 C 3.265625 -6.523438 3.894531 -6.25 4.78125 -6 C 5.664062 -5.75 6.359375 -5.472656 6.859375 -5.171875 C 7.367188 -4.878906 7.742188 -4.53125 7.984375 -4.125 C 8.222656 -3.726562 8.34375 -3.257812 8.34375 -2.71875 C 8.34375 -1.851562 8.003906 -1.160156 7.328125 -0.640625 C 6.648438 -0.117188 5.75 0.140625 4.625 0.140625 C 3.894531 0.140625 3.210938 0 2.578125 -0.28125 C 1.941406 -0.5625 1.453125 -0.941406 1.109375 -1.421875 C 0.765625 -1.910156 0.59375 -2.46875 0.59375 -3.09375 L 2 -3.09375 C 2 -2.445312 2.238281 -1.9375 2.71875 -1.5625 C 3.195312 -1.1875 3.832031 -1 4.625 -1 C 5.363281 -1 5.929688 -1.148438 6.328125 -1.453125 C 6.722656 -1.753906 6.921875 -2.164062 6.921875 -2.6875 C 6.921875 -3.21875 6.738281 -3.625 6.375 -3.90625 C 6.007812 -4.195312 5.347656 -4.484375 4.390625 -4.765625 Z M 4.390625 -4.765625 "/></g></g></g><g fill="#f5f5f5" fill-opacity="1"><g transform="translate(320.811072, 88.185628)"><g><path d="M 2.75 0 L 1.34375 0 L 1.34375 -10.671875 L 2.75 -10.671875 Z M 2.75 0 "/></g></g></g><g fill="#f5f5f5" fill-opacity="1"><g transform="translate(330.084887, 88.185628)"><g><path d="M 9.453125 -5 C 9.453125 -3.945312 9.273438 -3.03125 8.921875 -2.25 C 8.566406 -1.46875 8.066406 -0.875 7.421875 -0.46875 C 6.773438 -0.0625 6.023438 0.140625 5.171875 0.140625 C 4.328125 0.140625 3.578125 -0.0625 2.921875 -0.46875 C 2.273438 -0.882812 1.769531 -1.472656 1.40625 -2.234375 C 1.050781 -3.003906 0.867188 -3.890625 0.859375 -4.890625 L 0.859375 -5.671875 C 0.859375 -6.691406 1.035156 -7.59375 1.390625 -8.375 C 1.753906 -9.164062 2.257812 -9.769531 2.90625 -10.1875 C 3.5625 -10.613281 4.3125 -10.828125 5.15625 -10.828125 C 6.007812 -10.828125 6.757812 -10.617188 7.40625 -10.203125 C 8.0625 -9.785156 8.566406 -9.1875 8.921875 -8.40625 C 9.273438 -7.625 9.453125 -6.710938 9.453125 -5.671875 Z M 8.046875 -5.6875 C 8.046875 -6.945312 7.789062 -7.914062 7.28125 -8.59375 C 6.78125 -9.269531 6.070312 -9.609375 5.15625 -9.609375 C 4.257812 -9.609375 3.554688 -9.269531 3.046875 -8.59375 C 2.535156 -7.914062 2.273438 -6.976562 2.265625 -5.78125 L 2.265625 -5 C 2.265625 -3.769531 2.519531 -2.800781 3.03125 -2.09375 C 3.550781 -1.394531 4.265625 -1.046875 5.171875 -1.046875 C 6.078125 -1.046875 6.78125 -1.375 7.28125 -2.03125 C 7.78125 -2.695312 8.035156 -3.648438 8.046875 -4.890625 Z M 8.046875 -5.6875 "/></g></g></g><g fill="#f5f5f5" fill-opacity="1"><g transform="translate(345.593109, 88.185628)"><g><path d="M 9.4375 0 L 8.03125 0 L 2.65625 -8.21875 L 2.65625 0 L 1.234375 0 L 1.234375 -10.671875 L 2.65625 -10.671875 L 8.046875 -2.40625 L 8.046875 -10.671875 L 9.4375 -10.671875 Z M 9.4375 0 "/></g></g></g></svg>