<svg width="88" height="94" viewBox="0 0 88 94" fill="none" xmlns="http://www.w3.org/2000/svg">
<path d="M20.5408 1.49233C19.4417 2.48845 19.4073 2.55715 19.3043 5.78597L19.1669 9.08349H16.8998C15.6289 9.08349 13.4993 9.25523 12.1253 9.42698C6.69813 10.114 2.26708 13.8237 0.687024 18.9073C0.03439 21.1057 4.08432e-05 21.9988 4.08432e-05 51.2986C4.08432e-05 83.999 -0.0343083 83.5868 1.88924 86.8843C3.12581 88.9453 5.87375 91.4184 8.17514 92.4832L10.133 93.4106H43.967H77.8009L80.1023 92.2771C82.9876 90.8688 85.8386 87.8804 86.9721 85.0982L87.7621 83.1059L87.8652 52.1917C87.9339 22.0331 87.9339 21.2087 87.2469 19.0104C86.5256 16.6403 84.7737 13.9611 82.9189 12.4154C80.2053 10.1483 76.53 9.11784 71.0341 9.08349H68.767L68.6296 5.78597C68.5266 2.55715 68.4922 2.48845 67.3931 1.49233C65.8817 0.15271 64.3017 0.15271 62.7903 1.49233C61.6911 2.48845 61.6568 2.55715 61.5537 5.78597L61.4163 9.08349H43.967H26.5176L26.3802 5.78597C26.2771 2.55715 26.2428 2.48845 25.1436 1.49233C24.3879 0.805344 23.6666 0.496201 22.8422 0.496201C22.0178 0.496201 21.2965 0.805344 20.5408 1.49233ZM19.2356 19.0447C19.2356 23.3384 20.2317 24.9528 22.8422 24.9528C25.4871 24.9528 26.4489 23.4414 26.4489 19.2165V16.2968H43.967H61.485V19.2165C61.485 23.4414 62.4468 24.9528 65.0917 24.9528C67.7022 24.9528 68.6983 23.3384 68.6983 19.0104V16.2281L72.5798 16.3312C76.1865 16.4686 76.5986 16.5373 77.8696 17.4303C78.6252 17.9456 79.587 19.0104 80.0679 19.8348L80.8923 21.2774L80.9953 50.2681C81.064 71.1867 80.961 79.8084 80.6862 81.1823C80.2053 83.5181 78.2131 85.7164 76.0834 86.3347C74.1599 86.85 13.7741 86.85 11.8505 86.3347C9.72085 85.7164 7.7286 83.5181 7.24771 81.1823C6.97292 79.8084 6.86987 71.1867 6.93857 50.2681C7.04162 22.8231 7.07597 21.2087 7.6599 20.1096C9.27431 17.1555 11.0605 16.3312 15.732 16.2968H19.2356V19.0447Z" fill="#006BFF"/>
<path d="M21.846 39.9633C20.3003 40.9938 19.4416 42.6082 19.4416 44.5317C19.4416 49.7185 26.5175 51.539 29.0937 47.0049C30.502 44.5661 29.815 41.6464 27.5136 40.1007C26.0022 39.0702 23.2887 39.0359 21.846 39.9633Z" fill="#006BFF"/>
<path d="M41.2876 39.9978C36.8223 42.7114 38.7458 49.6155 43.9669 49.6155C46.8866 49.6155 49.1193 47.3828 49.1193 44.4632C49.1193 41.5435 46.8866 39.3108 43.9669 39.3108C43.0395 39.3108 41.9746 39.5856 41.2876 39.9978Z" fill="#006BFF"/>
<path d="M60.4201 40.1008C56.1265 42.9518 58.2218 49.6155 63.4085 49.6155C64.9885 49.6155 66.6373 48.6538 67.8052 47.1424C69.2822 45.0815 68.3548 41.303 66.019 39.8947C64.5077 39.036 61.8628 39.1047 60.4201 40.1008Z" fill="#0AE8F0"/>
<path d="M21.9834 59.3019C20.1629 60.5729 19.4416 61.7751 19.4416 63.6299C19.4416 66.6527 21.6056 68.8853 24.5252 68.9197C27.2732 68.9884 29.4715 67.0305 29.7807 64.2826C30.2615 60.1263 25.3496 57.0005 21.9834 59.3019Z" fill="#006BFF"/>
<path d="M41.5624 59.1645C39.8793 59.9889 38.8145 61.7407 38.8145 63.5956C38.8145 66.687 41.0128 68.9197 44.0012 68.9197C49.3597 68.9197 51.1115 61.5346 46.3713 59.1645C45.7187 58.821 44.6195 58.5462 43.9669 58.5462C43.3142 58.5462 42.215 58.821 41.5624 59.1645Z" fill="#006BFF"/>
<path d="M60.7979 59.1989C59.0461 60.1263 57.9813 62.0842 58.1531 64.1451C58.7026 70.8432 68.4922 70.328 68.4922 63.6299C68.4922 59.7828 64.2329 57.344 60.7979 59.1989Z" fill="#006BFF"/>
</svg>
