<svg width="1010" height="150" viewBox="0 0 1010 150" fill="none" xmlns="http://www.w3.org/2000/svg">
<path d="M20.5408 28.4923C19.4417 29.4885 19.4073 29.5572 19.3043 32.786L19.1669 36.0835H16.8998C15.6289 36.0835 13.4993 36.2552 12.1253 36.427C6.69813 37.114 2.26708 40.8237 0.687024 45.9073C0.03439 48.1057 4.08432e-05 48.9988 4.08432e-05 78.2986C4.08432e-05 110.999 -0.0343083 110.587 1.88924 113.884C3.12581 115.945 5.87375 118.418 8.17514 119.483L10.133 120.411H43.967H77.8009L80.1023 119.277C82.9876 117.869 85.8386 114.88 86.9721 112.098L87.7621 110.106L87.8652 79.1917C87.9339 49.0331 87.9339 48.2087 87.2469 46.0104C86.5256 43.6403 84.7737 40.9611 82.9189 39.4154C80.2053 37.1483 76.53 36.1178 71.0341 36.0835H68.767L68.6296 32.786C68.5266 29.5572 68.4922 29.4885 67.3931 28.4923C65.8817 27.1527 64.3017 27.1527 62.7903 28.4923C61.6911 29.4885 61.6568 29.5572 61.5537 32.786L61.4163 36.0835H43.967H26.5176L26.3802 32.786C26.2771 29.5572 26.2428 29.4885 25.1436 28.4923C24.3879 27.8053 23.6666 27.4962 22.8422 27.4962C22.0178 27.4962 21.2965 27.8053 20.5408 28.4923ZM19.2356 46.0447C19.2356 50.3384 20.2317 51.9528 22.8422 51.9528C25.4871 51.9528 26.4489 50.4414 26.4489 46.2165V43.2968H43.967H61.485V46.2165C61.485 50.4414 62.4468 51.9528 65.0917 51.9528C67.7022 51.9528 68.6983 50.3384 68.6983 46.0104V43.2281L72.5798 43.3312C76.1865 43.4686 76.5986 43.5373 77.8696 44.4303C78.6252 44.9456 79.587 46.0104 80.0679 46.8348L80.8923 48.2774L80.9953 77.2681C81.064 98.1867 80.961 106.808 80.6862 108.182C80.2053 110.518 78.2131 112.716 76.0834 113.335C74.1599 113.85 13.7741 113.85 11.8505 113.335C9.72085 112.716 7.7286 110.518 7.24771 108.182C6.97292 106.808 6.86987 98.1867 6.93857 77.2681C7.04162 49.8231 7.07597 48.2087 7.6599 47.1096C9.27431 44.1555 11.0605 43.3312 15.732 43.2968H19.2356V46.0447Z" fill="#006BFF"/>
<path d="M21.846 66.9633C20.3003 67.9938 19.4416 69.6082 19.4416 71.5317C19.4416 76.7185 26.5175 78.539 29.0937 74.0049C30.502 71.5661 29.815 68.6464 27.5136 67.1007C26.0022 66.0702 23.2887 66.0359 21.846 66.9633Z" fill="#006BFF"/>
<path d="M41.2876 66.9978C36.8223 69.7114 38.7458 76.6155 43.9669 76.6155C46.8866 76.6155 49.1193 74.3828 49.1193 71.4632C49.1193 68.5435 46.8866 66.3108 43.9669 66.3108C43.0395 66.3108 41.9746 66.5856 41.2876 66.9978Z" fill="#006BFF"/>
<path d="M60.4201 67.1008C56.1265 69.9518 58.2218 76.6155 63.4085 76.6155C64.9885 76.6155 66.6373 75.6538 67.8052 74.1424C69.2822 72.0815 68.3548 68.303 66.019 66.8947C64.5077 66.036 61.8628 66.1047 60.4201 67.1008Z" fill="#0AE8F0"/>
<path d="M21.9834 86.3019C20.1629 87.5729 19.4416 88.7751 19.4416 90.6299C19.4416 93.6527 21.6056 95.8853 24.5252 95.9197C27.2732 95.9884 29.4715 94.0305 29.7807 91.2826C30.2615 87.1263 25.3496 84.0005 21.9834 86.3019Z" fill="#006BFF"/>
<path d="M41.5624 86.1645C39.8793 86.9889 38.8145 88.7407 38.8145 90.5956C38.8145 93.687 41.0128 95.9197 44.0012 95.9197C49.3597 95.9197 51.1115 88.5346 46.3713 86.1645C45.7187 85.821 44.6195 85.5462 43.9669 85.5462C43.3142 85.5462 42.215 85.821 41.5624 86.1645Z" fill="#006BFF"/>
<path d="M60.7979 86.1989C59.0461 87.1263 57.9813 89.0842 58.1531 91.1451C58.7026 97.8432 68.4922 97.328 68.4922 90.6299C68.4922 86.7828 64.2329 84.344 60.7979 86.1989Z" fill="#006BFF"/>
<path d="M168.96 44.12H120.064V71.384H158.208V80.984H120.064V119H109.824V34.52H168.96V44.12ZM180.779 119V55H189.099L190.507 65.496C192.299 61.5707 194.902 58.6267 198.315 56.664C201.814 54.7013 206.038 53.72 210.987 53.72C212.096 53.72 213.291 53.8053 214.571 53.976C215.936 54.1467 217.088 54.488 218.027 55L216.235 64.344C215.296 64.0027 214.272 63.7467 213.163 63.576C212.054 63.4053 210.475 63.32 208.427 63.32C205.782 63.32 203.094 64.088 200.363 65.624C197.718 67.16 195.499 69.5067 193.707 72.664C191.915 75.736 191.019 79.6613 191.019 84.44V119H180.779ZM257.781 120.28C251.722 120.28 246.304 118.957 241.525 116.312C236.832 113.667 233.162 109.869 230.517 104.92C227.872 99.8853 226.549 93.912 226.549 87C226.549 80.088 227.872 74.1573 230.517 69.208C233.162 64.1733 236.789 60.3333 241.397 57.688C246.005 55.0427 251.253 53.72 257.141 53.72C263.114 53.72 268.192 55 272.373 57.56C276.64 60.12 279.882 63.6187 282.101 68.056C284.32 72.408 285.429 77.3147 285.429 82.776C285.429 84.2267 285.386 85.5493 285.301 86.744C285.216 87.9387 285.088 89.0053 284.917 89.944H233.205V80.856H280.437L275.189 81.88C275.189 75.736 273.482 71 270.069 67.672C266.741 64.344 262.346 62.68 256.885 62.68C252.704 62.68 249.077 63.6613 246.005 65.624C243.018 67.5013 240.672 70.2747 238.965 73.944C237.344 77.528 236.533 81.88 236.533 87C236.533 92.0347 237.386 96.3867 239.093 100.056C240.8 103.725 243.189 106.541 246.261 108.504C249.418 110.381 253.173 111.32 257.525 111.32C262.218 111.32 266.016 110.424 268.917 108.632C271.904 106.84 274.293 104.408 276.085 101.336L284.149 106.072C282.528 108.973 280.437 111.491 277.877 113.624C275.402 115.757 272.458 117.421 269.045 118.616C265.717 119.725 261.962 120.28 257.781 120.28ZM331.656 120.28C325.597 120.28 320.179 118.957 315.4 116.312C310.707 113.667 307.037 109.869 304.392 104.92C301.747 99.8853 300.424 93.912 300.424 87C300.424 80.088 301.747 74.1573 304.392 69.208C307.037 64.1733 310.664 60.3333 315.272 57.688C319.88 55.0427 325.128 53.72 331.016 53.72C336.989 53.72 342.067 55 346.248 57.56C350.515 60.12 353.757 63.6187 355.976 68.056C358.195 72.408 359.304 77.3147 359.304 82.776C359.304 84.2267 359.261 85.5493 359.176 86.744C359.091 87.9387 358.963 89.0053 358.792 89.944H307.08V80.856H354.312L349.064 81.88C349.064 75.736 347.357 71 343.944 67.672C340.616 64.344 336.221 62.68 330.76 62.68C326.579 62.68 322.952 63.6613 319.88 65.624C316.893 67.5013 314.547 70.2747 312.84 73.944C311.219 77.528 310.408 81.88 310.408 87C310.408 92.0347 311.261 96.3867 312.968 100.056C314.675 103.725 317.064 106.541 320.136 108.504C323.293 110.381 327.048 111.32 331.4 111.32C336.093 111.32 339.891 110.424 342.792 108.632C345.779 106.84 348.168 104.408 349.96 101.336L358.024 106.072C356.403 108.973 354.312 111.491 351.752 113.624C349.277 115.757 346.333 117.421 342.92 118.616C339.592 119.725 335.837 120.28 331.656 120.28ZM388.507 25.56V102.744C388.507 105.987 389.104 108.248 390.299 109.528C391.494 110.723 393.414 111.32 396.059 111.32C397.766 111.32 399.174 111.192 400.283 110.936C401.392 110.68 402.886 110.211 404.763 109.528L403.099 118.488C401.734 119.085 400.24 119.512 398.619 119.768C396.998 120.109 395.334 120.28 393.627 120.28C388.422 120.28 384.539 118.872 381.979 116.056C379.504 113.24 378.267 108.931 378.267 103.128V25.56H388.507ZM455.28 77.656C455.28 72.8773 454 69.208 451.44 66.648C448.88 64.0027 445.253 62.68 440.56 62.68C436.123 62.68 432.368 63.6613 429.296 65.624C426.224 67.5013 423.963 70.5733 422.512 74.84L414.192 69.72C415.899 64.9413 419.056 61.1013 423.664 58.2C428.272 55.2133 433.989 53.72 440.816 53.72C445.424 53.72 449.605 54.5307 453.36 56.152C457.115 57.688 460.059 60.0773 462.192 63.32C464.411 66.4773 465.52 70.5733 465.52 75.608V106.584C465.52 109.656 467.141 111.192 470.384 111.192C472.005 111.192 473.584 110.979 475.12 110.552L474.608 118.616C472.901 119.469 470.683 119.896 467.952 119.896C465.477 119.896 463.259 119.427 461.296 118.488C459.333 117.549 457.797 116.141 456.688 114.264C455.579 112.301 455.024 109.869 455.024 106.968V105.688L457.584 106.072C456.56 109.4 454.811 112.131 452.336 114.264C449.861 116.312 447.088 117.848 444.016 118.872C440.944 119.811 437.915 120.28 434.928 120.28C431.173 120.28 427.675 119.64 424.432 118.36C421.189 117.08 418.587 115.16 416.624 112.6C414.747 109.955 413.808 106.712 413.808 102.872C413.808 98.0933 415.387 94.168 418.544 91.096C421.787 87.9387 426.267 85.8053 431.984 84.696L457.328 79.704V88.152L436.72 92.376C432.539 93.2293 429.424 94.424 427.376 95.96C425.328 97.496 424.304 99.6293 424.304 102.36C424.304 105.005 425.328 107.181 427.376 108.888C429.509 110.509 432.496 111.32 436.336 111.32C438.811 111.32 441.157 111.021 443.376 110.424C445.68 109.741 447.728 108.76 449.52 107.48C451.312 106.115 452.72 104.451 453.744 102.488C454.768 100.44 455.28 98.0507 455.28 95.32V77.656ZM490.404 119V55H499.364L500.26 69.336L498.596 67.928C499.961 64.5147 501.796 61.784 504.1 59.736C506.404 57.6027 509.049 56.0667 512.036 55.128C515.108 54.1893 518.265 53.72 521.508 53.72C526.116 53.72 530.297 54.616 534.052 56.408C537.807 58.1147 540.793 60.76 543.012 64.344C545.316 67.928 546.468 72.4933 546.468 78.04V119H536.228V81.624C536.228 74.5413 534.692 69.6347 531.62 66.904C528.633 64.088 524.921 62.68 520.484 62.68C517.412 62.68 514.34 63.4053 511.268 64.856C508.196 66.3067 505.636 68.6533 503.588 71.896C501.625 75.1387 500.644 79.4907 500.644 84.952V119H490.404ZM596.15 53.72C600.587 53.72 604.47 54.4027 607.798 55.768C611.211 57.1333 614.155 59.096 616.63 61.656C619.105 64.216 621.11 67.2453 622.646 70.744L612.918 75.352C611.553 71.256 609.462 68.1413 606.646 66.008C603.915 63.7893 600.331 62.68 595.894 62.68C591.627 62.68 587.958 63.6613 584.886 65.624C581.814 67.5013 579.467 70.2747 577.846 73.944C576.225 77.528 575.414 81.88 575.414 87C575.414 92.0347 576.225 96.3867 577.846 100.056C579.467 103.725 581.814 106.541 584.886 108.504C587.958 110.381 591.627 111.32 595.894 111.32C599.222 111.32 602.081 110.808 604.47 109.784C606.945 108.76 608.95 107.267 610.486 105.304C612.107 103.341 613.217 100.952 613.814 98.136L623.286 101.464C621.835 105.389 619.83 108.76 617.27 111.576C614.795 114.392 611.766 116.568 608.182 118.104C604.683 119.555 600.673 120.28 596.15 120.28C590.177 120.28 584.843 118.957 580.15 116.312C575.457 113.667 571.787 109.869 569.142 104.92C566.497 99.8853 565.174 93.912 565.174 87C565.174 80.088 566.497 74.1573 569.142 69.208C571.787 64.1733 575.457 60.3333 580.15 57.688C584.843 55.0427 590.177 53.72 596.15 53.72ZM668.031 120.28C661.972 120.28 656.554 118.957 651.775 116.312C647.082 113.667 643.412 109.869 640.767 104.92C638.122 99.8853 636.799 93.912 636.799 87C636.799 80.088 638.122 74.1573 640.767 69.208C643.412 64.1733 647.039 60.3333 651.647 57.688C656.255 55.0427 661.503 53.72 667.391 53.72C673.364 53.72 678.442 55 682.623 57.56C686.89 60.12 690.132 63.6187 692.351 68.056C694.57 72.408 695.679 77.3147 695.679 82.776C695.679 84.2267 695.636 85.5493 695.551 86.744C695.466 87.9387 695.338 89.0053 695.167 89.944H643.455V80.856H690.687L685.439 81.88C685.439 75.736 683.732 71 680.319 67.672C676.991 64.344 672.596 62.68 667.135 62.68C662.954 62.68 659.327 63.6613 656.255 65.624C653.268 67.5013 650.922 70.2747 649.215 73.944C647.594 77.528 646.783 81.88 646.783 87C646.783 92.0347 647.636 96.3867 649.343 100.056C651.05 103.725 653.439 106.541 656.511 108.504C659.668 110.381 663.423 111.32 667.775 111.32C672.468 111.32 676.266 110.424 679.167 108.632C682.154 106.84 684.543 104.408 686.335 101.336L694.399 106.072C692.778 108.973 690.687 111.491 688.127 113.624C685.652 115.757 682.708 117.421 679.295 118.616C675.967 119.725 672.212 120.28 668.031 120.28ZM746.514 120.28C742.93 120.28 739.602 119.64 736.53 118.36C733.458 117.08 730.813 115.288 728.594 112.984C726.375 110.68 724.711 108.077 723.602 105.176L725.01 103.384L724.114 119H715.154V25.56H725.394V69.464L724.114 67.544C725.821 63.5333 728.679 60.248 732.69 57.688C736.786 55.0427 741.437 53.72 746.642 53.72C751.933 53.72 756.797 55.0427 761.234 57.688C765.671 60.3333 769.213 64.1307 771.858 69.08C774.503 74.0293 775.826 80.0027 775.826 87C775.826 93.912 774.461 99.8853 771.73 104.92C769.085 109.869 765.543 113.667 761.106 116.312C756.669 118.957 751.805 120.28 746.514 120.28ZM745.49 111.32C751.805 111.32 756.711 109.101 760.21 104.664C763.794 100.227 765.586 94.3387 765.586 87C765.586 79.6613 763.837 73.7733 760.338 69.336C756.839 64.8987 751.933 62.68 745.618 62.68C741.607 62.68 738.066 63.704 734.994 65.752C732.007 67.8 729.661 70.6587 727.954 74.328C726.247 77.9973 725.394 82.3067 725.394 87.256C725.394 92.12 726.205 96.3867 727.826 100.056C729.533 103.64 731.879 106.413 734.866 108.376C737.938 110.339 741.479 111.32 745.49 111.32ZM821.9 53.72C827.959 53.72 833.292 55.0427 837.9 57.688C842.593 60.3333 846.263 64.1733 848.908 69.208C851.553 74.1573 852.876 80.088 852.876 87C852.876 93.912 851.553 99.8853 848.908 104.92C846.263 109.869 842.593 113.667 837.9 116.312C833.292 118.957 827.959 120.28 821.9 120.28C815.927 120.28 810.593 118.957 805.9 116.312C801.207 113.667 797.537 109.869 794.892 104.92C792.247 99.8853 790.924 93.912 790.924 87C790.924 80.088 792.247 74.1573 794.892 69.208C797.537 64.1733 801.207 60.3333 805.9 57.688C810.593 55.0427 815.927 53.72 821.9 53.72ZM821.9 62.552C817.548 62.552 813.836 63.5333 810.764 65.496C807.692 67.4587 805.303 70.2747 803.596 73.944C801.975 77.528 801.164 81.88 801.164 87C801.164 92.0347 801.975 96.3867 803.596 100.056C805.303 103.725 807.692 106.541 810.764 108.504C813.836 110.467 817.548 111.448 821.9 111.448C826.252 111.448 829.964 110.467 833.036 108.504C836.108 106.541 838.455 103.725 840.076 100.056C841.783 96.3867 842.636 92.0347 842.636 87C842.636 81.88 841.783 77.528 840.076 73.944C838.455 70.2747 836.108 67.4587 833.036 65.496C829.964 63.5333 826.252 62.552 821.9 62.552ZM898.65 53.72C904.709 53.72 910.042 55.0427 914.65 57.688C919.343 60.3333 923.013 64.1733 925.658 69.208C928.303 74.1573 929.626 80.088 929.626 87C929.626 93.912 928.303 99.8853 925.658 104.92C923.013 109.869 919.343 113.667 914.65 116.312C910.042 118.957 904.709 120.28 898.65 120.28C892.677 120.28 887.343 118.957 882.65 116.312C877.957 113.667 874.287 109.869 871.642 104.92C868.997 99.8853 867.674 93.912 867.674 87C867.674 80.088 868.997 74.1573 871.642 69.208C874.287 64.1733 877.957 60.3333 882.65 57.688C887.343 55.0427 892.677 53.72 898.65 53.72ZM898.65 62.552C894.298 62.552 890.586 63.5333 887.514 65.496C884.442 67.4587 882.053 70.2747 880.346 73.944C878.725 77.528 877.914 81.88 877.914 87C877.914 92.0347 878.725 96.3867 880.346 100.056C882.053 103.725 884.442 106.541 887.514 108.504C890.586 110.467 894.298 111.448 898.65 111.448C903.002 111.448 906.714 110.467 909.786 108.504C912.858 106.541 915.205 103.725 916.826 100.056C918.533 96.3867 919.386 92.0347 919.386 87C919.386 81.88 918.533 77.528 916.826 73.944C915.205 70.2747 912.858 67.4587 909.786 65.496C906.714 63.5333 903.002 62.552 898.65 62.552ZM1005.1 55L977.448 82.648L975.016 85.08L954.024 106.072V93.272L992.168 55H1005.1ZM959.144 25.56V119H948.904V25.56H959.144ZM978.344 77.4L1006.63 119H994.216L969.768 83.16L978.344 77.4Z" fill="white"/>
</svg>
